<?xml version="1.0" encoding="UTF-8" standalone="no"?><svg xmlns="http://www.w3.org/2000/svg" xmlns:xlink="http://www.w3.org/1999/xlink" contentScriptType="application/ecmascript" contentStyleType="text/css" height="843px" preserveAspectRatio="none" style="width:1367px;height:843px;" version="1.1" viewBox="0 0 1367 843" width="1367px" zoomAndPan="magnify"><defs/><g><rect fill="#ADD8E6" height="828.5469" style="stroke: #A80036; stroke-width: 1.0;" width="530.5" x="80" y="4"/><text fill="#000000" font-family="sans-serif" font-size="13" font-weight="bold" lengthAdjust="spacingAndGlyphs" textLength="35" x="327.75" y="17.4951">client</text><rect fill="#FFFFFF" height="828.5469" style="stroke: #A80036; stroke-width: 1.0;" width="648" x="642" y="4"/><text fill="#000000" font-family="sans-serif" font-size="13" font-weight="bold" lengthAdjust="spacingAndGlyphs" textLength="39" x="946.5" y="17.4951">server</text><rect fill="#DDDDDD" height="828.5469" style="stroke: #A80036; stroke-width: 1.0;" width="64" x="1292" y="4"/><text fill="#000000" font-family="sans-serif" font-size="13" font-weight="bold" lengthAdjust="spacingAndGlyphs" textLength="58" x="1295" y="17.4951">database</text><rect fill="#FFFFFF" height="608.3281" style="stroke: #A80036; stroke-width: 1.0;" width="10" x="146" y="131.6094"/><rect fill="#FFFFFF" height="568.625" style="stroke: #A80036; stroke-width: 1.0;" width="10" x="302" y="162.3125"/><rect fill="#FFFFFF" height="524.2734" style="stroke: #A80036; stroke-width: 1.0;" width="10" x="431" y="192.6641"/><rect fill="#FFFFFF" height="479.9219" style="stroke: #A80036; stroke-width: 1.0;" width="10" x="560" y="223.0156"/><rect fill="#FFFFFF" height="435.2188" style="stroke: #A80036; stroke-width: 1.0;" width="10" x="699" y="253.3672"/><rect fill="#FFFFFF" height="374.8672" style="stroke: #A80036; stroke-width: 1.0;" width="10" x="878" y="283.7188"/><rect fill="#FFFFFF" height="28" style="stroke: #A80036; stroke-width: 1.0;" width="10" x="883" y="564.8828"/><rect fill="#FFFFFF" height="91.0547" style="stroke: #A80036; stroke-width: 1.0;" width="10" x="1085" y="314.0703"/><rect fill="#FFFFFF" height="14.3516" style="stroke: #A80036; stroke-width: 1.0;" width="10" x="1085" y="630.2344"/><rect fill="#FFFFFF" height="91.0547" style="stroke: #A80036; stroke-width: 1.0;" width="10" x="1218.5" y="435.4766"/><rect fill="#FFFFFF" height="30.3516" style="stroke: #A80036; stroke-width: 1.0;" width="10" x="1319" y="344.4219"/><rect fill="#FFFFFF" height="30.3516" style="stroke: #A80036; stroke-width: 1.0;" width="10" x="1319" y="465.8281"/><line style="stroke: #A80036; stroke-width: 1.0; stroke-dasharray: 5.0,5.0;" x1="29" x2="29" y1="83.6094" y2="748.9375"/><line style="stroke: #A80036; stroke-width: 1.0; stroke-dasharray: 5.0,5.0;" x1="151" x2="151" y1="83.6094" y2="748.9375"/><line style="stroke: #A80036; stroke-width: 1.0; stroke-dasharray: 5.0,5.0;" x1="307" x2="307" y1="83.6094" y2="748.9375"/><line style="stroke: #A80036; stroke-width: 1.0; stroke-dasharray: 5.0,5.0;" x1="436" x2="436" y1="83.6094" y2="748.9375"/><line style="stroke: #A80036; stroke-width: 1.0; stroke-dasharray: 5.0,5.0;" x1="564.5" x2="564.5" y1="83.6094" y2="748.9375"/><line style="stroke: #A80036; stroke-width: 1.0; stroke-dasharray: 5.0,5.0;" x1="704" x2="704" y1="83.6094" y2="748.9375"/><line style="stroke: #A80036; stroke-width: 1.0; stroke-dasharray: 5.0,5.0;" x1="882.5" x2="882.5" y1="83.6094" y2="748.9375"/><line style="stroke: #A80036; stroke-width: 1.0; stroke-dasharray: 5.0,5.0;" x1="1090" x2="1090" y1="83.6094" y2="748.9375"/><line style="stroke: #A80036; stroke-width: 1.0; stroke-dasharray: 5.0,5.0;" x1="1223" x2="1223" y1="83.6094" y2="748.9375"/><line style="stroke: #A80036; stroke-width: 1.0; stroke-dasharray: 5.0,5.0;" x1="1324" x2="1324" y1="83.6094" y2="748.9375"/><text fill="#000000" font-family="sans-serif" font-size="14" lengthAdjust="spacingAndGlyphs" textLength="36" x="8" y="80.5332">coder</text><ellipse cx="29" cy="13" fill="#FEFECE" rx="8" ry="8" style="stroke: #A80036; stroke-width: 2.0;"/><path d="M29,21 L29,48 M16,29 L42,29 M29,48 L16,63 M29,48 L42,63 " fill="#FEFECE" style="stroke: #A80036; stroke-width: 2.0;"/><text fill="#000000" font-family="sans-serif" font-size="14" lengthAdjust="spacingAndGlyphs" textLength="36" x="8" y="762.4707">coder</text><ellipse cx="29" cy="775.5469" fill="#FEFECE" rx="8" ry="8" style="stroke: #A80036; stroke-width: 2.0;"/><path d="M29,783.5469 L29,810.5469 M16,791.5469 L42,791.5469 M29,810.5469 L16,825.5469 M29,810.5469 L42,825.5469 " fill="#FEFECE" style="stroke: #A80036; stroke-width: 2.0;"/><rect fill="#FEFECE" height="31.6094" style="stroke: #A80036; stroke-width: 1.5;" width="134" x="84" y="51"/><text fill="#000000" font-family="sans-serif" font-size="14" lengthAdjust="spacingAndGlyphs" textLength="120" x="91" y="72.5332">:SmartEventDetails</text><rect fill="#FEFECE" height="31.6094" style="stroke: #A80036; stroke-width: 1.5;" width="134" x="84" y="747.9375"/><text fill="#000000" font-family="sans-serif" font-size="14" lengthAdjust="spacingAndGlyphs" textLength="120" x="91" y="769.4707">:SmartEventDetails</text><rect fill="#FEFECE" height="31.6094" style="stroke: #A80036; stroke-width: 1.5;" width="158" x="228" y="51"/><text fill="#000000" font-family="sans-serif" font-size="14" lengthAdjust="spacingAndGlyphs" textLength="144" x="235" y="72.5332">:eventDetailsPresenter</text><rect fill="#FEFECE" height="31.6094" style="stroke: #A80036; stroke-width: 1.5;" width="158" x="228" y="747.9375"/><text fill="#000000" font-family="sans-serif" font-size="14" lengthAdjust="spacingAndGlyphs" textLength="144" x="235" y="769.4707">:eventDetailsPresenter</text><rect fill="#FEFECE" height="31.6094" style="stroke: #A80036; stroke-width: 1.5;" width="56" x="408" y="51"/><text fill="#000000" font-family="sans-serif" font-size="14" lengthAdjust="spacingAndGlyphs" textLength="42" x="415" y="72.5332">:model</text><rect fill="#FEFECE" height="31.6094" style="stroke: #A80036; stroke-width: 1.5;" width="56" x="408" y="747.9375"/><text fill="#000000" font-family="sans-serif" font-size="14" lengthAdjust="spacingAndGlyphs" textLength="42" x="415" y="769.4707">:model</text><rect fill="#FEFECE" height="31.6094" style="stroke: #A80036; stroke-width: 1.5;" width="83" x="523.5" y="51"/><text fill="#000000" font-family="sans-serif" font-size="14" lengthAdjust="spacingAndGlyphs" textLength="69" x="530.5" y="72.5332">:RestClient</text><rect fill="#FEFECE" height="31.6094" style="stroke: #A80036; stroke-width: 1.5;" width="83" x="523.5" y="747.9375"/><text fill="#000000" font-family="sans-serif" font-size="14" lengthAdjust="spacingAndGlyphs" textLength="69" x="530.5" y="769.4707">:RestClient</text><rect fill="#FEFECE" height="31.6094" style="stroke: #A80036; stroke-width: 1.5;" width="116" x="646" y="51"/><text fill="#000000" font-family="sans-serif" font-size="14" lengthAdjust="spacingAndGlyphs" textLength="102" x="653" y="72.5332">:EventController</text><rect fill="#FEFECE" height="31.6094" style="stroke: #A80036; stroke-width: 1.5;" width="116" x="646" y="747.9375"/><text fill="#000000" font-family="sans-serif" font-size="14" lengthAdjust="spacingAndGlyphs" textLength="102" x="653" y="769.4707">:EventController</text><rect fill="#FEFECE" height="31.6094" style="stroke: #A80036; stroke-width: 1.5;" width="183" x="791.5" y="51"/><text fill="#000000" font-family="sans-serif" font-size="14" lengthAdjust="spacingAndGlyphs" textLength="169" x="798.5" y="72.5332">:EventManagementService</text><rect fill="#FEFECE" height="31.6094" style="stroke: #A80036; stroke-width: 1.5;" width="183" x="791.5" y="747.9375"/><text fill="#000000" font-family="sans-serif" font-size="14" lengthAdjust="spacingAndGlyphs" textLength="169" x="798.5" y="769.4707">:EventManagementService</text><rect fill="#FEFECE" height="31.6094" style="stroke: #A80036; stroke-width: 1.5;" width="122" x="1029" y="51"/><text fill="#000000" font-family="sans-serif" font-size="14" lengthAdjust="spacingAndGlyphs" textLength="108" x="1036" y="72.5332">:EventRepository</text><rect fill="#FEFECE" height="31.6094" style="stroke: #A80036; stroke-width: 1.5;" width="122" x="1029" y="747.9375"/><text fill="#000000" font-family="sans-serif" font-size="14" lengthAdjust="spacingAndGlyphs" textLength="108" x="1036" y="769.4707">:EventRepository</text><rect fill="#FEFECE" height="31.6094" style="stroke: #A80036; stroke-width: 1.5;" width="125" x="1161" y="51"/><text fill="#000000" font-family="sans-serif" font-size="14" lengthAdjust="spacingAndGlyphs" textLength="111" x="1168" y="72.5332">:CoderRepository</text><rect fill="#FEFECE" height="31.6094" style="stroke: #A80036; stroke-width: 1.5;" width="125" x="1161" y="747.9375"/><text fill="#000000" font-family="sans-serif" font-size="14" lengthAdjust="spacingAndGlyphs" textLength="111" x="1168" y="769.4707">:CoderRepository</text><rect fill="#FEFECE" height="31.6094" style="stroke: #A80036; stroke-width: 1.5;" width="30" x="1309" y="51"/><text fill="#000000" font-family="sans-serif" font-size="14" lengthAdjust="spacingAndGlyphs" textLength="16" x="1316" y="72.5332">db</text><rect fill="#FEFECE" height="31.6094" style="stroke: #A80036; stroke-width: 1.5;" width="30" x="1309" y="747.9375"/><text fill="#000000" font-family="sans-serif" font-size="14" lengthAdjust="spacingAndGlyphs" textLength="16" x="1316" y="769.4707">db</text><rect fill="#FFFFFF" height="608.3281" style="stroke: #A80036; stroke-width: 1.0;" width="10" x="146" y="131.6094"/><rect fill="#FFFFFF" height="568.625" style="stroke: #A80036; stroke-width: 1.0;" width="10" x="302" y="162.3125"/><rect fill="#FFFFFF" height="524.2734" style="stroke: #A80036; stroke-width: 1.0;" width="10" x="431" y="192.6641"/><rect fill="#FFFFFF" height="479.9219" style="stroke: #A80036; stroke-width: 1.0;" width="10" x="560" y="223.0156"/><rect fill="#FFFFFF" height="435.2188" style="stroke: #A80036; stroke-width: 1.0;" width="10" x="699" y="253.3672"/><rect fill="#FFFFFF" height="374.8672" style="stroke: #A80036; stroke-width: 1.0;" width="10" x="878" y="283.7188"/><rect fill="#FFFFFF" height="28" style="stroke: #A80036; stroke-width: 1.0;" width="10" x="883" y="564.8828"/><rect fill="#FFFFFF" height="91.0547" style="stroke: #A80036; stroke-width: 1.0;" width="10" x="1085" y="314.0703"/><rect fill="#FFFFFF" height="14.3516" style="stroke: #A80036; stroke-width: 1.0;" width="10" x="1085" y="630.2344"/><rect fill="#FFFFFF" height="91.0547" style="stroke: #A80036; stroke-width: 1.0;" width="10" x="1218.5" y="435.4766"/><rect fill="#FFFFFF" height="30.3516" style="stroke: #A80036; stroke-width: 1.0;" width="10" x="1319" y="344.4219"/><rect fill="#FFFFFF" height="30.3516" style="stroke: #A80036; stroke-width: 1.0;" width="10" x="1319" y="465.8281"/><polygon fill="#A80036" points="134,127.6094,144,131.6094,134,135.6094,138,131.6094" style="stroke: #A80036; stroke-width: 1.0;"/><line style="stroke: #A80036; stroke-width: 1.0;" x1="29" x2="140" y1="131.6094" y2="131.6094"/><text fill="#000000" font-family="sans-serif" font-size="13" lengthAdjust="spacingAndGlyphs" textLength="98" x="36" y="111.1045">click "Join event"</text><text fill="#000000" font-family="sans-serif" font-size="13" lengthAdjust="spacingAndGlyphs" textLength="36" x="36" y="127.4561">button</text><polygon fill="#A80036" points="290,158.3125,300,162.3125,290,166.3125,294,162.3125" style="stroke: #A80036; stroke-width: 1.0;"/><line style="stroke: #A80036; stroke-width: 1.0;" x1="156" x2="296" y1="162.3125" y2="162.3125"/><text fill="#000000" font-family="sans-serif" font-size="13" lengthAdjust="spacingAndGlyphs" textLength="117" x="163" y="157.8076">onJoinEvent(eventId)</text><polygon fill="#A80036" points="419,188.6641,429,192.6641,419,196.6641,423,192.6641" style="stroke: #A80036; stroke-width: 1.0;"/><line style="stroke: #A80036; stroke-width: 1.0;" x1="312" x2="425" y1="192.6641" y2="192.6641"/><text fill="#000000" font-family="sans-serif" font-size="13" lengthAdjust="spacingAndGlyphs" textLength="100" x="319" y="188.1592">joinEvent(eventId)</text><polygon fill="#A80036" points="548,219.0156,558,223.0156,548,227.0156,552,223.0156" style="stroke: #A80036; stroke-width: 1.0;"/><line style="stroke: #A80036; stroke-width: 1.0;" x1="441" x2="554" y1="223.0156" y2="223.0156"/><text fill="#000000" font-family="sans-serif" font-size="13" lengthAdjust="spacingAndGlyphs" textLength="100" x="448" y="218.5107">joinEvent(eventId)</text><polygon fill="#A80036" points="687,249.3672,697,253.3672,687,257.3672,691,253.3672" style="stroke: #A80036; stroke-width: 1.0;"/><line style="stroke: #A80036; stroke-width: 1.0;" x1="570" x2="693" y1="253.3672" y2="253.3672"/><text fill="#000000" font-family="sans-serif" font-size="13" lengthAdjust="spacingAndGlyphs" textLength="110" x="577" y="248.8623">/event/{eventId}/join</text><polygon fill="#A80036" points="866,279.7188,876,283.7188,866,287.7188,870,283.7188" style="stroke: #A80036; stroke-width: 1.0;"/><line style="stroke: #A80036; stroke-width: 1.0;" x1="709" x2="872" y1="283.7188" y2="283.7188"/><text fill="#000000" font-family="sans-serif" font-size="13" lengthAdjust="spacingAndGlyphs" textLength="150" x="716" y="279.2139">joinEvent(coderId, eventId)</text><polygon fill="#A80036" points="1073,310.0703,1083,314.0703,1073,318.0703,1077,314.0703" style="stroke: #A80036; stroke-width: 1.0;"/><line style="stroke: #A80036; stroke-width: 1.0;" x1="888" x2="1079" y1="314.0703" y2="314.0703"/><text fill="#000000" font-family="sans-serif" font-size="13" lengthAdjust="spacingAndGlyphs" textLength="94" x="895" y="309.5654">findById(eventId)</text><polygon fill="#A80036" points="1307,340.4219,1317,344.4219,1307,348.4219,1311,344.4219" style="stroke: #A80036; stroke-width: 1.0;"/><line style="stroke: #A80036; stroke-width: 1.0;" x1="888" x2="1313" y1="344.4219" y2="344.4219"/><text fill="#000000" font-family="sans-serif" font-size="13" lengthAdjust="spacingAndGlyphs" textLength="32" x="895" y="339.917">query</text><polygon fill="#A80036" points="899,370.7734,889,374.7734,899,378.7734,895,374.7734" style="stroke: #A80036; stroke-width: 1.0;"/><line style="stroke: #A80036; stroke-width: 1.0; stroke-dasharray: 2.0,2.0;" x1="893" x2="1323" y1="374.7734" y2="374.7734"/><text fill="#000000" font-family="sans-serif" font-size="13" lengthAdjust="spacingAndGlyphs" textLength="32" x="905" y="370.2686">result</text><polygon fill="#A80036" points="899,401.125,889,405.125,899,409.125,895,405.125" style="stroke: #A80036; stroke-width: 1.0;"/><line style="stroke: #A80036; stroke-width: 1.0; stroke-dasharray: 2.0,2.0;" x1="893" x2="1089" y1="405.125" y2="405.125"/><text fill="#000000" font-family="sans-serif" font-size="13" lengthAdjust="spacingAndGlyphs" textLength="30" x="905" y="400.6201">event</text><polygon fill="#A80036" points="1206.5,431.4766,1216.5,435.4766,1206.5,439.4766,1210.5,435.4766" style="stroke: #A80036; stroke-width: 1.0;"/><line style="stroke: #A80036; stroke-width: 1.0;" x1="888" x2="1212.5" y1="435.4766" y2="435.4766"/><text fill="#000000" font-family="sans-serif" font-size="13" lengthAdjust="spacingAndGlyphs" textLength="96" x="895" y="430.9717">findById(coderId)</text><polygon fill="#A80036" points="1307,461.8281,1317,465.8281,1307,469.8281,1311,465.8281" style="stroke: #A80036; stroke-width: 1.0;"/><line style="stroke: #A80036; stroke-width: 1.0;" x1="1228.5" x2="1313" y1="465.8281" y2="465.8281"/><text fill="#000000" font-family="sans-serif" font-size="13" lengthAdjust="spacingAndGlyphs" textLength="32" x="1235.5" y="461.3232">query</text><polygon fill="#A80036" points="1239.5,492.1797,1229.5,496.1797,1239.5,500.1797,1235.5,496.1797" style="stroke: #A80036; stroke-width: 1.0;"/><line style="stroke: #A80036; stroke-width: 1.0; stroke-dasharray: 2.0,2.0;" x1="1233.5" x2="1323" y1="496.1797" y2="496.1797"/><text fill="#000000" font-family="sans-serif" font-size="13" lengthAdjust="spacingAndGlyphs" textLength="32" x="1245.5" y="491.6748">result</text><polygon fill="#A80036" points="899,522.5313,889,526.5313,899,530.5313,895,526.5313" style="stroke: #A80036; stroke-width: 1.0;"/><line style="stroke: #A80036; stroke-width: 1.0; stroke-dasharray: 2.0,2.0;" x1="893" x2="1222.5" y1="526.5313" y2="526.5313"/><text fill="#000000" font-family="sans-serif" font-size="13" lengthAdjust="spacingAndGlyphs" textLength="32" x="905" y="522.0264">coder</text><line style="stroke: #A80036; stroke-width: 1.0;" x1="893" x2="935" y1="557.2344" y2="557.2344"/><line style="stroke: #A80036; stroke-width: 1.0;" x1="935" x2="935" y1="557.2344" y2="570.2344"/><line style="stroke: #A80036; stroke-width: 1.0;" x1="894" x2="935" y1="570.2344" y2="570.2344"/><polygon fill="#A80036" points="904,566.2344,894,570.2344,904,574.2344,900,570.2344" style="stroke: #A80036; stroke-width: 1.0;"/><text fill="#000000" font-family="sans-serif" font-size="13" lengthAdjust="spacingAndGlyphs" textLength="179" x="900" y="552.3779">addCoderToEvent(coder, event)</text><polygon fill="#A80036" points="1073,626.2344,1083,630.2344,1073,634.2344,1077,630.2344" style="stroke: #A80036; stroke-width: 1.0;"/><line style="stroke: #A80036; stroke-width: 1.0;" x1="888" x2="1079" y1="630.2344" y2="630.2344"/><text fill="#000000" font-family="sans-serif" font-size="13" lengthAdjust="spacingAndGlyphs" textLength="178" x="895" y="625.7295">updateEventParticipants(event)</text><polygon fill="#A80036" points="899,640.5859,889,644.5859,899,648.5859,895,644.5859" style="stroke: #A80036; stroke-width: 1.0;"/><line style="stroke: #A80036; stroke-width: 1.0; stroke-dasharray: 2.0,2.0;" x1="893" x2="1089" y1="644.5859" y2="644.5859"/><polygon fill="#A80036" points="720,654.5859,710,658.5859,720,662.5859,716,658.5859" style="stroke: #A80036; stroke-width: 1.0;"/><line style="stroke: #A80036; stroke-width: 1.0; stroke-dasharray: 2.0,2.0;" x1="714" x2="882" y1="658.5859" y2="658.5859"/><polygon fill="#A80036" points="581,684.5859,571,688.5859,581,692.5859,577,688.5859" style="stroke: #A80036; stroke-width: 1.0;"/><line style="stroke: #A80036; stroke-width: 1.0; stroke-dasharray: 2.0,2.0;" x1="575" x2="703" y1="688.5859" y2="688.5859"/><text fill="#000000" font-family="sans-serif" font-size="13" lengthAdjust="spacingAndGlyphs" textLength="92" x="587" y="684.0811">status 200 (OK)</text><polygon fill="#A80036" points="452,698.9375,442,702.9375,452,706.9375,448,702.9375" style="stroke: #A80036; stroke-width: 1.0;"/><line style="stroke: #A80036; stroke-width: 1.0; stroke-dasharray: 2.0,2.0;" x1="446" x2="564" y1="702.9375" y2="702.9375"/><polygon fill="#A80036" points="323,712.9375,313,716.9375,323,720.9375,319,716.9375" style="stroke: #A80036; stroke-width: 1.0;"/><line style="stroke: #A80036; stroke-width: 1.0; stroke-dasharray: 2.0,2.0;" x1="317" x2="435" y1="716.9375" y2="716.9375"/><polygon fill="#A80036" points="167,726.9375,157,730.9375,167,734.9375,163,730.9375" style="stroke: #A80036; stroke-width: 1.0;"/><line style="stroke: #A80036; stroke-width: 1.0; stroke-dasharray: 2.0,2.0;" x1="161" x2="306" y1="730.9375" y2="730.9375"/><!--
@startuml
skinparam shadowing false
autoactivate on
actor coder

box "client" #LightBlue
    participant ":SmartEventDetails" as SmartEventDetails
    participant ":eventDetailsPresenter" as eventDetailsPresenter
    participant ":model" as model
    participant ":RestClient" as RestClient
end box

box "server" #Light
    participant ":EventController" as EventController
    participant ":EventManagementService" as EventManagementService
    participant ":EventRepository" as EventRepository
    participant ":CoderRepository" as CoderRepository
end box

box "database"
    participant db
end box
coder ->  SmartEventDetails : click "Join event"\nbutton
SmartEventDetails -> eventDetailsPresenter : onJoinEvent(eventId)
eventDetailsPresenter -> model : joinEvent(eventId)
model -> RestClient : joinEvent(eventId)
RestClient -> EventController : /event/{eventId}/join
EventController -> EventManagementService : joinEvent(coderId, eventId)
EventManagementService -> EventRepository : findById(eventId)
EventManagementService -> db : query
db - -> EventManagementService : result
EventRepository - -> EventManagementService : event
EventManagementService -> CoderRepository : findById(coderId)
CoderRepository -> db : query
db - -> CoderRepository : result
CoderRepository - -> EventManagementService : coder
EventManagementService -> EventManagementService : addCoderToEvent(coder, event)
deactivate EventManagementService
EventManagementService -> EventRepository : updateEventParticipants(event)
EventRepository - -> EventManagementService
EventManagementService - -> EventController
EventController - -> RestClient : status 200 (OK)
RestClient - -> model
model - -> eventDetailsPresenter
eventDetailsPresenter - -> SmartEventDetails


@enduml

PlantUML version 1.2017.15(Mon Jul 03 19:45:34 EEST 2017)
(GPL source distribution)
Java Runtime: OpenJDK Runtime Environment
JVM: OpenJDK 64-Bit Server VM
Java Version: 1.8.0_152-release-1343-b28
Operating System: Windows 8.1
OS Version: 6.3
Default Encoding: Cp1252
Language: en
Country: US
--></g></svg>