<?xml version="1.0" encoding="UTF-8" standalone="no"?><svg xmlns="http://www.w3.org/2000/svg" xmlns:xlink="http://www.w3.org/1999/xlink" contentScriptType="application/ecmascript" contentStyleType="text/css" height="600.6px" preserveAspectRatio="none" style="width:828px;height:600px;" version="1.1" viewBox="0 0 828 600" width="828.8px" zoomAndPan="magnify"><defs/><g><!--cluster client--><polygon fill="#FFFFFF" points="15.4,16.8,46.9,16.8,51.8,33.3266,813.4,33.3266,813.4,592.2,15.4,592.2,15.4,16.8" style="stroke: #000000; stroke-width: 1.399999976158142;"/><line style="stroke: #000000; stroke-width: 1.399999976158142;" x1="15.4" x2="51.8" y1="33.3266" y2="33.3266"/><text fill="#000000" font-family="sans-serif" font-size="9.8" font-weight="bold" lengthAdjust="spacingAndGlyphs" textLength="27.3" x="18.2" y="28.3732">client</text><!--cluster rest_controller--><polygon fill="#FFFFFF" points="284.9,100.1,362.6,100.1,367.5,116.6266,399.7,116.6266,399.7,183.4,284.9,183.4,284.9,100.1" style="stroke: #000000; stroke-width: 1.399999976158142;"/><line style="stroke: #000000; stroke-width: 1.399999976158142;" x1="284.9" x2="367.5" y1="116.6266" y2="116.6266"/><text fill="#000000" font-family="sans-serif" font-size="9.8" font-weight="bold" lengthAdjust="spacingAndGlyphs" textLength="73.5" x="287.7" y="111.6732">rest_controller</text><!--cluster service--><polygon fill="#FFFFFF" points="270.2,205.8,311.5,205.8,316.4,222.3266,615.3,222.3266,615.3,311.5,270.2,311.5,270.2,205.8" style="stroke: #000000; stroke-width: 1.399999976158142;"/><line style="stroke: #000000; stroke-width: 1.399999976158142;" x1="270.2" x2="316.4" y1="222.3266" y2="222.3266"/><text fill="#000000" font-family="sans-serif" font-size="9.8" font-weight="bold" lengthAdjust="spacingAndGlyphs" textLength="37.1" x="273" y="217.3732">service</text><!--cluster exceptions--><polygon fill="#FFFFFF" points="32.2,228.9,91,228.9,95.9,245.4266,207.2,245.4266,207.2,334.6,32.2,334.6,32.2,228.9" style="stroke: #000000; stroke-width: 1.399999976158142;"/><line style="stroke: #000000; stroke-width: 1.399999976158142;" x1="32.2" x2="95.9" y1="245.4266" y2="245.4266"/><text fill="#000000" font-family="sans-serif" font-size="9.8" font-weight="bold" lengthAdjust="spacingAndGlyphs" textLength="54.6" x="35" y="240.4732">exceptions</text><!--cluster repository--><polygon fill="#FFFFFF" points="456.4,328.3,511,328.3,515.9,344.8266,796.6,344.8266,796.6,575.4,456.4,575.4,456.4,328.3" style="stroke: #000000; stroke-width: 1.399999976158142;"/><line style="stroke: #000000; stroke-width: 1.399999976158142;" x1="456.4" x2="515.9" y1="344.8266" y2="344.8266"/><text fill="#000000" font-family="sans-serif" font-size="9.8" font-weight="bold" lengthAdjust="spacingAndGlyphs" textLength="50.4" x="459.2" y="339.8732">repository</text><!--cluster api--><polygon fill="#FFFFFF" points="473.2,359.1,492.1,359.1,497,375.6266,597.1,375.6266,597.1,558.6,473.2,558.6,473.2,359.1" style="stroke: #000000; stroke-width: 1.399999976158142;"/><line style="stroke: #000000; stroke-width: 1.399999976158142;" x1="473.2" x2="497" y1="375.6266" y2="375.6266"/><text fill="#000000" font-family="sans-serif" font-size="9.8" font-weight="bold" lengthAdjust="spacingAndGlyphs" textLength="14.7" x="476" y="370.6732">api</text><!--cluster data--><polygon fill="#FFFFFF" points="638.4,359.1,663.6,359.1,668.5,375.6266,779.8,375.6266,779.8,558.6,638.4,558.6,638.4,359.1" style="stroke: #000000; stroke-width: 1.399999976158142;"/><line style="stroke: #000000; stroke-width: 1.399999976158142;" x1="638.4" x2="668.5" y1="375.6266" y2="375.6266"/><text fill="#000000" font-family="sans-serif" font-size="9.8" font-weight="bold" lengthAdjust="spacingAndGlyphs" textLength="21" x="641.2" y="370.6732">data</text><!--cluster dto--><polygon fill="#FFFFFF" points="479.85,53.2,500.15,53.2,505.05,69.7266,757.75,69.7266,757.75,183.4,479.85,183.4,479.85,53.2" style="stroke: #000000; stroke-width: 1.399999976158142;"/><line style="stroke: #000000; stroke-width: 1.399999976158142;" x1="479.85" x2="505.05" y1="69.7266" y2="69.7266"/><text fill="#000000" font-family="sans-serif" font-size="9.8" font-weight="bold" lengthAdjust="spacingAndGlyphs" textLength="16.1" x="482.65" y="64.7732">dto</text><!--cluster model--><polygon fill="#FFFFFF" points="78.75,403.9,113.05,403.9,117.95,420.4266,376.6,420.4266,376.6,522.2,78.75,522.2,78.75,403.9" style="stroke: #000000; stroke-width: 1.399999976158142;"/><line style="stroke: #000000; stroke-width: 1.399999976158142;" x1="78.75" x2="117.95" y1="420.4266" y2="420.4266"/><text fill="#000000" font-family="sans-serif" font-size="9.8" font-weight="bold" lengthAdjust="spacingAndGlyphs" textLength="30.1" x="81.55" y="415.4732">model</text><!--class EventController--><rect fill="#FEFECE" height="22.4" id="EventController" style="stroke: #A80036; stroke-width: 1.0499999821186066;" width="81.2" x="301.7" y="144.2"/><ellipse cx="312.2" cy="155.4" fill="#ADD1B2" rx="7.7" ry="7.7" style="stroke: #A80036; stroke-width: 0.699999988079071;"/><path d="M313.6,152.95 Q313.7422,152.6 313.9062,152.425 Q314.0703,152.25 314.2562,152.25 Q314.5844,152.25 314.7922,152.4469 Q315,152.6437 315,153.1031 L315,154.1969 Q315,154.6562 314.8031,154.8531 Q314.6062,155.05 314.3,155.05 Q314.0266,155.05 313.8516,154.9297 Q313.6766,154.8094 313.6,154.4922 Q313.5672,154.2734 313.4469,154.1531 Q313.2281,153.9234 312.8344,153.7867 Q312.4406,153.65 312.0469,153.65 Q311.5547,153.65 311.1445,153.8469 Q310.7344,154.0437 310.4172,154.4812 Q310.1,154.9187 310.1,155.5203 L310.1,156.1656 Q310.1,156.8875 310.6906,157.3687 Q311.2812,157.85 312.3312,157.85 Q312.9547,157.85 313.3922,157.7078 Q313.6437,157.6312 313.9281,157.3797 Q314.1141,157.2375 314.2125,157.1937 Q314.3109,157.15 314.4312,157.15 Q314.6609,157.15 314.8305,157.3305 Q315,157.5109 315,157.7625 Q315,158.0031 314.7594,158.2875 Q314.4094,158.7031 313.8516,158.9328 Q313.1187,159.25 312.2219,159.25 Q311.1719,159.25 310.3297,158.8344 Q309.6516,158.5062 309.1758,157.7953 Q308.7,157.0844 308.7,156.2422 L308.7,155.4766 Q308.7,154.6016 309.1211,153.8359 Q309.5422,153.0703 310.2805,152.6602 Q311.0187,152.25 311.85,152.25 Q312.3531,152.25 312.7906,152.425 Q313.2281,152.6 313.6,152.95 Z "/><text fill="#000000" font-family="sans-serif" font-size="8.4" lengthAdjust="spacingAndGlyphs" textLength="58.8" x="322" y="158.8371">EventController</text><!--class CoderManagementService--><rect fill="#FEFECE" height="22.4" id="CoderManagementService" style="stroke: #A80036; stroke-width: 1.0499999821186066;" width="124.6" x="472.85" y="277.9"/><ellipse cx="483.35" cy="289.1" fill="#ADD1B2" rx="7.7" ry="7.7" style="stroke: #A80036; stroke-width: 0.699999988079071;"/><path d="M484.75,286.65 Q484.8922,286.3 485.0562,286.125 Q485.2203,285.95 485.4062,285.95 Q485.7344,285.95 485.9422,286.1469 Q486.15,286.3437 486.15,286.8031 L486.15,287.8969 Q486.15,288.3562 485.9531,288.5531 Q485.7562,288.75 485.45,288.75 Q485.1766,288.75 485.0016,288.6297 Q484.8266,288.5094 484.75,288.1922 Q484.7172,287.9734 484.5969,287.8531 Q484.3781,287.6234 483.9844,287.4867 Q483.5906,287.35 483.1969,287.35 Q482.7047,287.35 482.2945,287.5469 Q481.8844,287.7437 481.5672,288.1812 Q481.25,288.6187 481.25,289.2203 L481.25,289.8656 Q481.25,290.5875 481.8406,291.0687 Q482.4312,291.55 483.4812,291.55 Q484.1047,291.55 484.5422,291.4078 Q484.7937,291.3312 485.0781,291.0797 Q485.2641,290.9375 485.3625,290.8937 Q485.4609,290.85 485.5812,290.85 Q485.8109,290.85 485.9805,291.0305 Q486.15,291.2109 486.15,291.4625 Q486.15,291.7031 485.9094,291.9875 Q485.5594,292.4031 485.0016,292.6328 Q484.2687,292.95 483.3719,292.95 Q482.3219,292.95 481.4797,292.5344 Q480.8016,292.2062 480.3258,291.4953 Q479.85,290.7844 479.85,289.9422 L479.85,289.1766 Q479.85,288.3016 480.2711,287.5359 Q480.6922,286.7703 481.4305,286.3602 Q482.1687,285.95 483,285.95 Q483.5031,285.95 483.9406,286.125 Q484.3781,286.3 484.75,286.65 Z "/><text fill="#000000" font-family="sans-serif" font-size="8.4" lengthAdjust="spacingAndGlyphs" textLength="102.2" x="493.15" y="292.5371">CoderManagementService</text><!--class UserDetailsService--><rect fill="#FEFECE" height="22.4" id="UserDetailsService" style="stroke: #A80036; stroke-width: 1.0499999821186066;" width="95.9" x="294.35" y="231"/><ellipse cx="304.85" cy="242.2" fill="#B4A7E5" rx="7.7" ry="7.7" style="stroke: #A80036; stroke-width: 0.699999988079071;"/><path d="M305.55,240.1 L305.55,244.3 L306.95,244.3 L307.2891,244.3 L307.65,244.7375 L307.65,245 L307.65,245.2625 L307.2891,245.7 L306.95,245.7 L302.75,245.7 L302.4109,245.7 L302.05,245.2625 L302.05,245 L302.05,244.7375 L302.4109,244.3 L302.75,244.3 L304.15,244.3 L304.15,240.1 L302.75,240.1 L302.4109,240.1 L302.05,239.6625 L302.05,239.4 L302.05,239.1375 L302.4109,238.7 L302.75,238.7 L306.95,238.7 L307.2891,238.7 L307.65,239.1375 L307.65,239.4 L307.65,239.6625 L307.2891,240.1 L306.95,240.1 L305.55,240.1 Z "/><text fill="#000000" font-family="sans-serif" font-size="8.4" font-style="italic" lengthAdjust="spacingAndGlyphs" textLength="73.5" x="314.65" y="245.6371">UserDetailsService</text><!--class CompanyManagementService--><rect fill="#FEFECE" height="22.4" id="CompanyManagementService" style="stroke: #A80036; stroke-width: 1.0499999821186066;" width="137.9" x="466.2" y="231"/><ellipse cx="476.7" cy="242.2" fill="#ADD1B2" rx="7.7" ry="7.7" style="stroke: #A80036; stroke-width: 0.699999988079071;"/><path d="M478.1,239.75 Q478.2422,239.4 478.4062,239.225 Q478.5703,239.05 478.7562,239.05 Q479.0844,239.05 479.2922,239.2469 Q479.5,239.4437 479.5,239.9031 L479.5,240.9969 Q479.5,241.4562 479.3031,241.6531 Q479.1062,241.85 478.8,241.85 Q478.5266,241.85 478.3516,241.7297 Q478.1766,241.6094 478.1,241.2922 Q478.0672,241.0734 477.9469,240.9531 Q477.7281,240.7234 477.3344,240.5867 Q476.9406,240.45 476.5469,240.45 Q476.0547,240.45 475.6445,240.6469 Q475.2344,240.8437 474.9172,241.2812 Q474.6,241.7187 474.6,242.3203 L474.6,242.9656 Q474.6,243.6875 475.1906,244.1687 Q475.7812,244.65 476.8312,244.65 Q477.4547,244.65 477.8922,244.5078 Q478.1437,244.4312 478.4281,244.1797 Q478.6141,244.0375 478.7125,243.9937 Q478.8109,243.95 478.9312,243.95 Q479.1609,243.95 479.3305,244.1305 Q479.5,244.3109 479.5,244.5625 Q479.5,244.8031 479.2594,245.0875 Q478.9094,245.5031 478.3516,245.7328 Q477.6187,246.05 476.7219,246.05 Q475.6719,246.05 474.8297,245.6344 Q474.1516,245.3062 473.6758,244.5953 Q473.2,243.8844 473.2,243.0422 L473.2,242.2766 Q473.2,241.4016 473.6211,240.6359 Q474.0422,239.8703 474.7805,239.4602 Q475.5187,239.05 476.35,239.05 Q476.8531,239.05 477.2906,239.225 Q477.7281,239.4 478.1,239.75 Z "/><text fill="#000000" font-family="sans-serif" font-size="8.4" lengthAdjust="spacingAndGlyphs" textLength="115.5" x="486.5" y="245.6371">CompanyManagementService</text><!--class EventManagementService--><rect fill="#FEFECE" height="22.4" id="EventManagementService" style="stroke: #A80036; stroke-width: 1.0499999821186066;" width="121.8" x="281.4" y="277.9"/><ellipse cx="291.9" cy="289.1" fill="#ADD1B2" rx="7.7" ry="7.7" style="stroke: #A80036; stroke-width: 0.699999988079071;"/><path d="M293.3,286.65 Q293.4422,286.3 293.6062,286.125 Q293.7703,285.95 293.9562,285.95 Q294.2844,285.95 294.4922,286.1469 Q294.7,286.3437 294.7,286.8031 L294.7,287.8969 Q294.7,288.3562 294.5031,288.5531 Q294.3062,288.75 294,288.75 Q293.7266,288.75 293.5516,288.6297 Q293.3766,288.5094 293.3,288.1922 Q293.2672,287.9734 293.1469,287.8531 Q292.9281,287.6234 292.5344,287.4867 Q292.1406,287.35 291.7469,287.35 Q291.2547,287.35 290.8445,287.5469 Q290.4344,287.7437 290.1172,288.1812 Q289.8,288.6187 289.8,289.2203 L289.8,289.8656 Q289.8,290.5875 290.3906,291.0687 Q290.9812,291.55 292.0312,291.55 Q292.6547,291.55 293.0922,291.4078 Q293.3437,291.3312 293.6281,291.0797 Q293.8141,290.9375 293.9125,290.8937 Q294.0109,290.85 294.1312,290.85 Q294.3609,290.85 294.5305,291.0305 Q294.7,291.2109 294.7,291.4625 Q294.7,291.7031 294.4594,291.9875 Q294.1094,292.4031 293.5516,292.6328 Q292.8187,292.95 291.9219,292.95 Q290.8719,292.95 290.0297,292.5344 Q289.3516,292.2062 288.8758,291.4953 Q288.4,290.7844 288.4,289.9422 L288.4,289.1766 Q288.4,288.3016 288.8211,287.5359 Q289.2422,286.7703 289.9805,286.3602 Q290.7187,285.95 291.55,285.95 Q292.0531,285.95 292.4906,286.125 Q292.9281,286.3 293.3,286.65 Z "/><text fill="#000000" font-family="sans-serif" font-size="8.4" lengthAdjust="spacingAndGlyphs" textLength="99.4" x="301.7" y="292.5371">EventManagementService</text><!--class NotEnoughPlacesException--><rect fill="#FEFECE" height="22.4" id="NotEnoughPlacesException" style="stroke: #A80036; stroke-width: 1.0499999821186066;" width="129.5" x="54.95" y="254.1"/><ellipse cx="65.45" cy="265.3" fill="#ADD1B2" rx="7.7" ry="7.7" style="stroke: #A80036; stroke-width: 0.699999988079071;"/><path d="M66.85,262.85 Q66.9922,262.5 67.1562,262.325 Q67.3203,262.15 67.5062,262.15 Q67.8344,262.15 68.0422,262.3469 Q68.25,262.5437 68.25,263.0031 L68.25,264.0969 Q68.25,264.5562 68.0531,264.7531 Q67.8562,264.95 67.55,264.95 Q67.2766,264.95 67.1016,264.8297 Q66.9266,264.7094 66.85,264.3922 Q66.8172,264.1734 66.6969,264.0531 Q66.4781,263.8234 66.0844,263.6867 Q65.6906,263.55 65.2969,263.55 Q64.8047,263.55 64.3945,263.7469 Q63.9844,263.9437 63.6672,264.3812 Q63.35,264.8187 63.35,265.4203 L63.35,266.0656 Q63.35,266.7875 63.9406,267.2687 Q64.5312,267.75 65.5812,267.75 Q66.2047,267.75 66.6422,267.6078 Q66.8937,267.5312 67.1781,267.2797 Q67.3641,267.1375 67.4625,267.0937 Q67.5609,267.05 67.6812,267.05 Q67.9109,267.05 68.0805,267.2305 Q68.25,267.4109 68.25,267.6625 Q68.25,267.9031 68.0094,268.1875 Q67.6594,268.6031 67.1016,268.8328 Q66.3687,269.15 65.4719,269.15 Q64.4219,269.15 63.5797,268.7344 Q62.9016,268.4062 62.4258,267.6953 Q61.95,266.9844 61.95,266.1422 L61.95,265.3766 Q61.95,264.5016 62.3711,263.7359 Q62.7922,262.9703 63.5305,262.5602 Q64.2687,262.15 65.1,262.15 Q65.6031,262.15 66.0406,262.325 Q66.4781,262.5 66.85,262.85 Z "/><text fill="#000000" font-family="sans-serif" font-size="8.4" lengthAdjust="spacingAndGlyphs" textLength="107.1" x="75.25" y="268.7371">NotEnoughPlacesException</text><!--class NotEnoughPermissionsException--><rect fill="#FEFECE" height="22.4" id="NotEnoughPermissionsException" style="stroke: #A80036; stroke-width: 1.0499999821186066;" width="152.6" x="43.4" y="301"/><ellipse cx="53.9" cy="312.2" fill="#ADD1B2" rx="7.7" ry="7.7" style="stroke: #A80036; stroke-width: 0.699999988079071;"/><path d="M55.3,309.75 Q55.4422,309.4 55.6062,309.225 Q55.7703,309.05 55.9562,309.05 Q56.2844,309.05 56.4922,309.2469 Q56.7,309.4437 56.7,309.9031 L56.7,310.9969 Q56.7,311.4562 56.5031,311.6531 Q56.3062,311.85 56,311.85 Q55.7266,311.85 55.5516,311.7297 Q55.3766,311.6094 55.3,311.2922 Q55.2672,311.0734 55.1469,310.9531 Q54.9281,310.7234 54.5344,310.5867 Q54.1406,310.45 53.7469,310.45 Q53.2547,310.45 52.8445,310.6469 Q52.4344,310.8437 52.1172,311.2812 Q51.8,311.7187 51.8,312.3203 L51.8,312.9656 Q51.8,313.6875 52.3906,314.1687 Q52.9812,314.65 54.0312,314.65 Q54.6547,314.65 55.0922,314.5078 Q55.3437,314.4312 55.6281,314.1797 Q55.8141,314.0375 55.9125,313.9937 Q56.0109,313.95 56.1312,313.95 Q56.3609,313.95 56.5305,314.1305 Q56.7,314.3109 56.7,314.5625 Q56.7,314.8031 56.4594,315.0875 Q56.1094,315.5031 55.5516,315.7328 Q54.8187,316.05 53.9219,316.05 Q52.8719,316.05 52.0297,315.6344 Q51.3516,315.3062 50.8758,314.5953 Q50.4,313.8844 50.4,313.0422 L50.4,312.2766 Q50.4,311.4016 50.8211,310.6359 Q51.2422,309.8703 51.9805,309.4602 Q52.7187,309.05 53.55,309.05 Q54.0531,309.05 54.4906,309.225 Q54.9281,309.4 55.3,309.75 Z "/><text fill="#000000" font-family="sans-serif" font-size="8.4" lengthAdjust="spacingAndGlyphs" textLength="130.2" x="63.7" y="315.6371">NotEnoughPermissionsException</text><!--class CoderRepository--><rect fill="#FEFECE" height="22.4" id="CoderRepository" style="stroke: #A80036; stroke-width: 1.0499999821186066;" width="87.5" x="491.4" y="478.1"/><ellipse cx="501.9" cy="489.3" fill="#B4A7E5" rx="7.7" ry="7.7" style="stroke: #A80036; stroke-width: 0.699999988079071;"/><path d="M502.6,487.2 L502.6,491.4 L504,491.4 L504.3391,491.4 L504.7,491.8375 L504.7,492.1 L504.7,492.3625 L504.3391,492.8 L504,492.8 L499.8,492.8 L499.4609,492.8 L499.1,492.3625 L499.1,492.1 L499.1,491.8375 L499.4609,491.4 L499.8,491.4 L501.2,491.4 L501.2,487.2 L499.8,487.2 L499.4609,487.2 L499.1,486.7625 L499.1,486.5 L499.1,486.2375 L499.4609,485.8 L499.8,485.8 L504,485.8 L504.3391,485.8 L504.7,486.2375 L504.7,486.5 L504.7,486.7625 L504.3391,487.2 L504,487.2 L502.6,487.2 Z "/><text fill="#000000" font-family="sans-serif" font-size="8.4" font-style="italic" lengthAdjust="spacingAndGlyphs" textLength="65.1" x="511.7" y="492.7371">CoderRepository</text><!--class CompanyRepository--><rect fill="#FEFECE" height="22.4" id="CompanyRepository" style="stroke: #A80036; stroke-width: 1.0499999821186066;" width="101.5" x="484.4" y="431.2"/><ellipse cx="494.9" cy="442.4" fill="#B4A7E5" rx="7.7" ry="7.7" style="stroke: #A80036; stroke-width: 0.699999988079071;"/><path d="M495.6,440.3 L495.6,444.5 L497,444.5 L497.3391,444.5 L497.7,444.9375 L497.7,445.2 L497.7,445.4625 L497.3391,445.9 L497,445.9 L492.8,445.9 L492.4609,445.9 L492.1,445.4625 L492.1,445.2 L492.1,444.9375 L492.4609,444.5 L492.8,444.5 L494.2,444.5 L494.2,440.3 L492.8,440.3 L492.4609,440.3 L492.1,439.8625 L492.1,439.6 L492.1,439.3375 L492.4609,438.9 L492.8,438.9 L497,438.9 L497.3391,438.9 L497.7,439.3375 L497.7,439.6 L497.7,439.8625 L497.3391,440.3 L497,440.3 L495.6,440.3 Z "/><text fill="#000000" font-family="sans-serif" font-size="8.4" font-style="italic" lengthAdjust="spacingAndGlyphs" textLength="79.1" x="504.7" y="445.8371">CompanyRepository</text><!--class EventRepository--><rect fill="#FEFECE" height="22.4" id="EventRepository" style="stroke: #A80036; stroke-width: 1.0499999821186066;" width="85.4" x="492.45" y="384.3"/><ellipse cx="502.95" cy="395.5" fill="#B4A7E5" rx="7.7" ry="7.7" style="stroke: #A80036; stroke-width: 0.699999988079071;"/><path d="M503.65,393.4 L503.65,397.6 L505.05,397.6 L505.3891,397.6 L505.75,398.0375 L505.75,398.3 L505.75,398.5625 L505.3891,399 L505.05,399 L500.85,399 L500.5109,399 L500.15,398.5625 L500.15,398.3 L500.15,398.0375 L500.5109,397.6 L500.85,397.6 L502.25,397.6 L502.25,393.4 L500.85,393.4 L500.5109,393.4 L500.15,392.9625 L500.15,392.7 L500.15,392.4375 L500.5109,392 L500.85,392 L505.05,392 L505.3891,392 L505.75,392.4375 L505.75,392.7 L505.75,392.9625 L505.3891,393.4 L505.05,393.4 L503.65,393.4 Z "/><text fill="#000000" font-family="sans-serif" font-size="8.4" font-style="italic" lengthAdjust="spacingAndGlyphs" textLength="63" x="512.75" y="398.9371">EventRepository</text><!--class RepositoryFactory--><rect fill="#FEFECE" height="22.4" id="RepositoryFactory" style="stroke: #A80036; stroke-width: 1.0499999821186066;" width="91.7" x="489.3" y="525"/><ellipse cx="499.8" cy="536.2" fill="#B4A7E5" rx="7.7" ry="7.7" style="stroke: #A80036; stroke-width: 0.699999988079071;"/><path d="M500.5,534.1 L500.5,538.3 L501.9,538.3 L502.2391,538.3 L502.6,538.7375 L502.6,539 L502.6,539.2625 L502.2391,539.7 L501.9,539.7 L497.7,539.7 L497.3609,539.7 L497,539.2625 L497,539 L497,538.7375 L497.3609,538.3 L497.7,538.3 L499.1,538.3 L499.1,534.1 L497.7,534.1 L497.3609,534.1 L497,533.6625 L497,533.4 L497,533.1375 L497.3609,532.7 L497.7,532.7 L501.9,532.7 L502.2391,532.7 L502.6,533.1375 L502.6,533.4 L502.6,533.6625 L502.2391,534.1 L501.9,534.1 L500.5,534.1 Z "/><text fill="#000000" font-family="sans-serif" font-size="8.4" font-style="italic" lengthAdjust="spacingAndGlyphs" textLength="69.3" x="509.6" y="539.6371">RepositoryFactory</text><!--class DataCoderRepository--><rect fill="#FEFECE" height="22.4" id="DataCoderRepository" style="stroke: #A80036; stroke-width: 1.0499999821186066;" width="105.7" x="656.25" y="478.1"/><ellipse cx="666.75" cy="489.3" fill="#ADD1B2" rx="7.7" ry="7.7" style="stroke: #A80036; stroke-width: 0.699999988079071;"/><path d="M668.15,486.85 Q668.2922,486.5 668.4562,486.325 Q668.6203,486.15 668.8062,486.15 Q669.1344,486.15 669.3422,486.3469 Q669.55,486.5437 669.55,487.0031 L669.55,488.0969 Q669.55,488.5562 669.3531,488.7531 Q669.1562,488.95 668.85,488.95 Q668.5766,488.95 668.4016,488.8297 Q668.2266,488.7094 668.15,488.3922 Q668.1172,488.1734 667.9969,488.0531 Q667.7781,487.8234 667.3844,487.6867 Q666.9906,487.55 666.5969,487.55 Q666.1047,487.55 665.6945,487.7469 Q665.2844,487.9437 664.9672,488.3812 Q664.65,488.8187 664.65,489.4203 L664.65,490.0656 Q664.65,490.7875 665.2406,491.2687 Q665.8312,491.75 666.8812,491.75 Q667.5047,491.75 667.9422,491.6078 Q668.1937,491.5312 668.4781,491.2797 Q668.6641,491.1375 668.7625,491.0937 Q668.8609,491.05 668.9812,491.05 Q669.2109,491.05 669.3805,491.2305 Q669.55,491.4109 669.55,491.6625 Q669.55,491.9031 669.3094,492.1875 Q668.9594,492.6031 668.4016,492.8328 Q667.6687,493.15 666.7719,493.15 Q665.7219,493.15 664.8797,492.7344 Q664.2016,492.4062 663.7258,491.6953 Q663.25,490.9844 663.25,490.1422 L663.25,489.3766 Q663.25,488.5016 663.6711,487.7359 Q664.0922,486.9703 664.8305,486.5601 Q665.5687,486.15 666.4,486.15 Q666.9031,486.15 667.3406,486.325 Q667.7781,486.5 668.15,486.85 Z "/><text fill="#000000" font-family="sans-serif" font-size="8.4" lengthAdjust="spacingAndGlyphs" textLength="83.3" x="676.55" y="492.7371">DataCoderRepository</text><!--class DataCompanyRepository--><rect fill="#FEFECE" height="22.4" id="DataCompanyRepository" style="stroke: #A80036; stroke-width: 1.0499999821186066;" width="119" x="649.6" y="431.2"/><ellipse cx="660.1" cy="442.4" fill="#ADD1B2" rx="7.7" ry="7.7" style="stroke: #A80036; stroke-width: 0.699999988079071;"/><path d="M661.5,439.95 Q661.6422,439.6 661.8062,439.425 Q661.9703,439.25 662.1562,439.25 Q662.4844,439.25 662.6922,439.4469 Q662.9,439.6437 662.9,440.1031 L662.9,441.1969 Q662.9,441.6562 662.7031,441.8531 Q662.5062,442.05 662.2,442.05 Q661.9266,442.05 661.7516,441.9297 Q661.5766,441.8094 661.5,441.4922 Q661.4672,441.2734 661.3469,441.1531 Q661.1281,440.9234 660.7344,440.7867 Q660.3406,440.65 659.9469,440.65 Q659.4547,440.65 659.0445,440.8469 Q658.6344,441.0437 658.3172,441.4812 Q658,441.9187 658,442.5203 L658,443.1656 Q658,443.8875 658.5906,444.3687 Q659.1812,444.85 660.2312,444.85 Q660.8547,444.85 661.2922,444.7078 Q661.5437,444.6312 661.8281,444.3797 Q662.0141,444.2375 662.1125,444.1937 Q662.2109,444.15 662.3312,444.15 Q662.5609,444.15 662.7305,444.3305 Q662.9,444.5109 662.9,444.7625 Q662.9,445.0031 662.6594,445.2875 Q662.3094,445.7031 661.7516,445.9328 Q661.0187,446.25 660.1219,446.25 Q659.0719,446.25 658.2297,445.8344 Q657.5516,445.5062 657.0758,444.7953 Q656.6,444.0844 656.6,443.2422 L656.6,442.4766 Q656.6,441.6016 657.0211,440.8359 Q657.4422,440.0703 658.1805,439.6601 Q658.9187,439.25 659.75,439.25 Q660.2531,439.25 660.6906,439.425 Q661.1281,439.6 661.5,439.95 Z "/><text fill="#000000" font-family="sans-serif" font-size="8.4" lengthAdjust="spacingAndGlyphs" textLength="96.6" x="669.9" y="445.8371">DataCompanyRepository</text><!--class DataEventRepository--><rect fill="#FEFECE" height="22.4" id="DataEventRepository" style="stroke: #A80036; stroke-width: 1.0499999821186066;" width="102.9" x="657.65" y="384.3"/><ellipse cx="668.15" cy="395.5" fill="#ADD1B2" rx="7.7" ry="7.7" style="stroke: #A80036; stroke-width: 0.699999988079071;"/><path d="M669.55,393.05 Q669.6922,392.7 669.8562,392.525 Q670.0203,392.35 670.2062,392.35 Q670.5344,392.35 670.7422,392.5469 Q670.95,392.7437 670.95,393.2031 L670.95,394.2969 Q670.95,394.7562 670.7531,394.9531 Q670.5562,395.15 670.25,395.15 Q669.9766,395.15 669.8016,395.0297 Q669.6266,394.9094 669.55,394.5922 Q669.5172,394.3734 669.3969,394.2531 Q669.1781,394.0234 668.7844,393.8867 Q668.3906,393.75 667.9969,393.75 Q667.5047,393.75 667.0945,393.9469 Q666.6844,394.1437 666.3672,394.5812 Q666.05,395.0187 666.05,395.6203 L666.05,396.2656 Q666.05,396.9875 666.6406,397.4687 Q667.2312,397.95 668.2812,397.95 Q668.9047,397.95 669.3422,397.8078 Q669.5937,397.7312 669.8781,397.4797 Q670.0641,397.3375 670.1625,397.2937 Q670.2609,397.25 670.3812,397.25 Q670.6109,397.25 670.7805,397.4305 Q670.95,397.6109 670.95,397.8625 Q670.95,398.1031 670.7094,398.3875 Q670.3594,398.8031 669.8016,399.0328 Q669.0687,399.35 668.1719,399.35 Q667.1219,399.35 666.2797,398.9344 Q665.6016,398.6062 665.1258,397.8953 Q664.65,397.1844 664.65,396.3422 L664.65,395.5766 Q664.65,394.7016 665.0711,393.9359 Q665.4922,393.1703 666.2305,392.7601 Q666.9687,392.35 667.8,392.35 Q668.3031,392.35 668.7406,392.525 Q669.1781,392.7 669.55,393.05 Z "/><text fill="#000000" font-family="sans-serif" font-size="8.4" lengthAdjust="spacingAndGlyphs" textLength="80.5" x="677.95" y="398.9371">DataEventRepository</text><!--class DataRepositoryFactory--><rect fill="#FEFECE" height="22.4" id="DataRepositoryFactory" style="stroke: #A80036; stroke-width: 1.0499999821186066;" width="109.2" x="654.5" y="525"/><ellipse cx="665" cy="536.2" fill="#ADD1B2" rx="7.7" ry="7.7" style="stroke: #A80036; stroke-width: 0.699999988079071;"/><path d="M666.4,533.75 Q666.5422,533.4 666.7062,533.225 Q666.8703,533.05 667.0562,533.05 Q667.3844,533.05 667.5922,533.2469 Q667.8,533.4437 667.8,533.9031 L667.8,534.9969 Q667.8,535.4562 667.6031,535.6531 Q667.4062,535.85 667.1,535.85 Q666.8266,535.85 666.6516,535.7297 Q666.4766,535.6094 666.4,535.2922 Q666.3672,535.0734 666.2469,534.9531 Q666.0281,534.7234 665.6344,534.5867 Q665.2406,534.45 664.8469,534.45 Q664.3547,534.45 663.9445,534.6469 Q663.5344,534.8437 663.2172,535.2812 Q662.9,535.7187 662.9,536.3203 L662.9,536.9656 Q662.9,537.6875 663.4906,538.1687 Q664.0812,538.65 665.1312,538.65 Q665.7547,538.65 666.1922,538.5078 Q666.4437,538.4312 666.7281,538.1797 Q666.9141,538.0375 667.0125,537.9937 Q667.1109,537.95 667.2312,537.95 Q667.4609,537.95 667.6305,538.1305 Q667.8,538.3109 667.8,538.5625 Q667.8,538.8031 667.5594,539.0875 Q667.2094,539.5031 666.6516,539.7328 Q665.9187,540.05 665.0219,540.05 Q663.9719,540.05 663.1297,539.6344 Q662.4516,539.3062 661.9758,538.5953 Q661.5,537.8844 661.5,537.0422 L661.5,536.2766 Q661.5,535.4016 661.9211,534.6359 Q662.3422,533.8703 663.0805,533.4601 Q663.8187,533.05 664.65,533.05 Q665.1531,533.05 665.5906,533.225 Q666.0281,533.4 666.4,533.75 Z "/><text fill="#000000" font-family="sans-serif" font-size="8.4" lengthAdjust="spacingAndGlyphs" textLength="86.8" x="674.8" y="539.6371">DataRepositoryFactory</text><!--class EventDTO--><rect fill="#FEFECE" height="22.4" id="EventDTO" style="stroke: #A80036; stroke-width: 1.0499999821186066;" width="60.9" x="504.7" y="130.9"/><ellipse cx="515.2" cy="142.1" fill="#ADD1B2" rx="7.7" ry="7.7" style="stroke: #A80036; stroke-width: 0.699999988079071;"/><path d="M516.6,139.65 Q516.7422,139.3 516.9062,139.125 Q517.0703,138.95 517.2562,138.95 Q517.5844,138.95 517.7922,139.1469 Q518,139.3437 518,139.8031 L518,140.8969 Q518,141.3562 517.8031,141.5531 Q517.6062,141.75 517.3,141.75 Q517.0266,141.75 516.8516,141.6297 Q516.6766,141.5094 516.6,141.1922 Q516.5672,140.9734 516.4469,140.8531 Q516.2281,140.6234 515.8344,140.4867 Q515.4406,140.35 515.0469,140.35 Q514.5547,140.35 514.1445,140.5469 Q513.7344,140.7437 513.4172,141.1812 Q513.1,141.6187 513.1,142.2203 L513.1,142.8656 Q513.1,143.5875 513.6906,144.0687 Q514.2812,144.55 515.3312,144.55 Q515.9547,144.55 516.3922,144.4078 Q516.6437,144.3312 516.9281,144.0797 Q517.1141,143.9375 517.2125,143.8937 Q517.3109,143.85 517.4312,143.85 Q517.6609,143.85 517.8305,144.0305 Q518,144.2109 518,144.4625 Q518,144.7031 517.7594,144.9875 Q517.4094,145.4031 516.8516,145.6328 Q516.1187,145.95 515.2219,145.95 Q514.1719,145.95 513.3297,145.5344 Q512.6516,145.2062 512.1758,144.4953 Q511.7,143.7844 511.7,142.9422 L511.7,142.1766 Q511.7,141.3016 512.1211,140.5359 Q512.5422,139.7703 513.2805,139.3602 Q514.0187,138.95 514.85,138.95 Q515.3531,138.95 515.7906,139.125 Q516.2281,139.3 516.6,139.65 Z "/><text fill="#000000" font-family="sans-serif" font-size="8.4" lengthAdjust="spacingAndGlyphs" textLength="38.5" x="525" y="145.5371">EventDTO</text><!--class CompanyDTO--><rect fill="#FEFECE" height="22.4" id="CompanyDTO" style="stroke: #A80036; stroke-width: 1.0499999821186066;" width="77" x="496.65" y="84"/><ellipse cx="507.15" cy="95.2" fill="#ADD1B2" rx="7.7" ry="7.7" style="stroke: #A80036; stroke-width: 0.699999988079071;"/><path d="M508.55,92.75 Q508.6922,92.4 508.8562,92.225 Q509.0203,92.05 509.2062,92.05 Q509.5344,92.05 509.7422,92.2469 Q509.95,92.4437 509.95,92.9031 L509.95,93.9969 Q509.95,94.4562 509.7531,94.6531 Q509.5562,94.85 509.25,94.85 Q508.9766,94.85 508.8016,94.7297 Q508.6266,94.6094 508.55,94.2922 Q508.5172,94.0734 508.3969,93.9531 Q508.1781,93.7234 507.7844,93.5867 Q507.3906,93.45 506.9969,93.45 Q506.5047,93.45 506.0945,93.6469 Q505.6844,93.8437 505.3672,94.2812 Q505.05,94.7187 505.05,95.3203 L505.05,95.9656 Q505.05,96.6875 505.6406,97.1687 Q506.2312,97.65 507.2812,97.65 Q507.9047,97.65 508.3422,97.5078 Q508.5937,97.4312 508.8781,97.1797 Q509.0641,97.0375 509.1625,96.9937 Q509.2609,96.95 509.3812,96.95 Q509.6109,96.95 509.7805,97.1305 Q509.95,97.3109 509.95,97.5625 Q509.95,97.8031 509.7094,98.0875 Q509.3594,98.5031 508.8016,98.7328 Q508.0687,99.05 507.1719,99.05 Q506.1219,99.05 505.2797,98.6344 Q504.6016,98.3062 504.1258,97.5953 Q503.65,96.8844 503.65,96.0422 L503.65,95.2766 Q503.65,94.4016 504.0711,93.6359 Q504.4922,92.8703 505.2305,92.4602 Q505.9687,92.05 506.8,92.05 Q507.3031,92.05 507.7406,92.225 Q508.1781,92.4 508.55,92.75 Z "/><text fill="#000000" font-family="sans-serif" font-size="8.4" lengthAdjust="spacingAndGlyphs" textLength="54.6" x="516.95" y="98.6371">CompanyDTO</text><!--class CoderDTO--><rect fill="#FEFECE" height="22.4" id="CoderDTO" style="stroke: #A80036; stroke-width: 1.0499999821186066;" width="63.7" x="677.25" y="130.9"/><ellipse cx="687.75" cy="142.1" fill="#ADD1B2" rx="7.7" ry="7.7" style="stroke: #A80036; stroke-width: 0.699999988079071;"/><path d="M689.15,139.65 Q689.2922,139.3 689.4562,139.125 Q689.6203,138.95 689.8062,138.95 Q690.1344,138.95 690.3422,139.1469 Q690.55,139.3437 690.55,139.8031 L690.55,140.8969 Q690.55,141.3562 690.3531,141.5531 Q690.1562,141.75 689.85,141.75 Q689.5766,141.75 689.4016,141.6297 Q689.2266,141.5094 689.15,141.1922 Q689.1172,140.9734 688.9969,140.8531 Q688.7781,140.6234 688.3844,140.4867 Q687.9906,140.35 687.5969,140.35 Q687.1047,140.35 686.6945,140.5469 Q686.2844,140.7437 685.9672,141.1812 Q685.65,141.6187 685.65,142.2203 L685.65,142.8656 Q685.65,143.5875 686.2406,144.0687 Q686.8312,144.55 687.8812,144.55 Q688.5047,144.55 688.9422,144.4078 Q689.1937,144.3312 689.4781,144.0797 Q689.6641,143.9375 689.7625,143.8937 Q689.8609,143.85 689.9812,143.85 Q690.2109,143.85 690.3805,144.0305 Q690.55,144.2109 690.55,144.4625 Q690.55,144.7031 690.3094,144.9875 Q689.9594,145.4031 689.4016,145.6328 Q688.6687,145.95 687.7719,145.95 Q686.7219,145.95 685.8797,145.5344 Q685.2016,145.2062 684.7258,144.4953 Q684.25,143.7844 684.25,142.9422 L684.25,142.1766 Q684.25,141.3016 684.6711,140.5359 Q685.0922,139.7703 685.8305,139.3602 Q686.5687,138.95 687.4,138.95 Q687.9031,138.95 688.3406,139.125 Q688.7781,139.3 689.15,139.65 Z "/><text fill="#000000" font-family="sans-serif" font-size="8.4" lengthAdjust="spacingAndGlyphs" textLength="41.3" x="697.55" y="145.5371">CoderDTO</text><!--class Coder--><rect fill="#FEFECE" height="22.4" id="Coder" style="stroke: #A80036; stroke-width: 1.0499999821186066;" width="46.2" x="319.2" y="488.6"/><ellipse cx="329.7" cy="499.8" fill="#ADD1B2" rx="7.7" ry="7.7" style="stroke: #A80036; stroke-width: 0.699999988079071;"/><path d="M331.1,497.35 Q331.2422,497 331.4062,496.825 Q331.5703,496.65 331.7562,496.65 Q332.0844,496.65 332.2922,496.8469 Q332.5,497.0437 332.5,497.5031 L332.5,498.5969 Q332.5,499.0562 332.3031,499.2531 Q332.1062,499.45 331.8,499.45 Q331.5266,499.45 331.3516,499.3297 Q331.1766,499.2094 331.1,498.8922 Q331.0672,498.6734 330.9469,498.5531 Q330.7281,498.3234 330.3344,498.1867 Q329.9406,498.05 329.5469,498.05 Q329.0547,498.05 328.6445,498.2469 Q328.2344,498.4437 327.9172,498.8812 Q327.6,499.3187 327.6,499.9203 L327.6,500.5656 Q327.6,501.2875 328.1906,501.7687 Q328.7812,502.25 329.8312,502.25 Q330.4547,502.25 330.8922,502.1078 Q331.1437,502.0312 331.4281,501.7797 Q331.6141,501.6375 331.7125,501.5937 Q331.8109,501.55 331.9312,501.55 Q332.1609,501.55 332.3305,501.7305 Q332.5,501.9109 332.5,502.1625 Q332.5,502.4031 332.2594,502.6875 Q331.9094,503.1031 331.3516,503.3328 Q330.6187,503.65 329.7219,503.65 Q328.6719,503.65 327.8297,503.2344 Q327.1516,502.9062 326.6758,502.1953 Q326.2,501.4844 326.2,500.6422 L326.2,499.8766 Q326.2,499.0016 326.6211,498.2359 Q327.0422,497.4703 327.7805,497.0601 Q328.5187,496.65 329.35,496.65 Q329.8531,496.65 330.2906,496.825 Q330.7281,497 331.1,497.35 Z "/><text fill="#000000" font-family="sans-serif" font-size="8.4" lengthAdjust="spacingAndGlyphs" textLength="23.8" x="339.5" y="503.2371">Coder</text><!--class Company--><rect fill="#FEFECE" height="22.4" id="Company" style="stroke: #A80036; stroke-width: 1.0499999821186066;" width="59.5" x="89.95" y="430.5"/><ellipse cx="100.45" cy="441.7" fill="#ADD1B2" rx="7.7" ry="7.7" style="stroke: #A80036; stroke-width: 0.699999988079071;"/><path d="M101.85,439.25 Q101.9922,438.9 102.1562,438.725 Q102.3203,438.55 102.5062,438.55 Q102.8344,438.55 103.0422,438.7469 Q103.25,438.9437 103.25,439.4031 L103.25,440.4969 Q103.25,440.9562 103.0531,441.1531 Q102.8562,441.35 102.55,441.35 Q102.2766,441.35 102.1016,441.2297 Q101.9266,441.1094 101.85,440.7922 Q101.8172,440.5734 101.6969,440.4531 Q101.4781,440.2234 101.0844,440.0867 Q100.6906,439.95 100.2969,439.95 Q99.8047,439.95 99.3945,440.1469 Q98.9844,440.3437 98.6672,440.7812 Q98.35,441.2187 98.35,441.8203 L98.35,442.4656 Q98.35,443.1875 98.9406,443.6687 Q99.5312,444.15 100.5812,444.15 Q101.2047,444.15 101.6422,444.0078 Q101.8937,443.9312 102.1781,443.6797 Q102.3641,443.5375 102.4625,443.4937 Q102.5609,443.45 102.6812,443.45 Q102.9109,443.45 103.0805,443.6305 Q103.25,443.8109 103.25,444.0625 Q103.25,444.3031 103.0094,444.5875 Q102.6594,445.0031 102.1016,445.2328 Q101.3687,445.55 100.4719,445.55 Q99.4219,445.55 98.5797,445.1344 Q97.9016,444.8062 97.4258,444.0953 Q96.95,443.3844 96.95,442.5422 L96.95,441.7766 Q96.95,440.9016 97.3711,440.1359 Q97.7922,439.3703 98.5305,438.9601 Q99.2687,438.55 100.1,438.55 Q100.6031,438.55 101.0406,438.725 Q101.4781,438.9 101.85,439.25 Z "/><text fill="#000000" font-family="sans-serif" font-size="8.4" lengthAdjust="spacingAndGlyphs" textLength="37.1" x="110.25" y="445.1371">Company</text><!--class Event--><rect fill="#FEFECE" height="22.4" id="Event" style="stroke: #A80036; stroke-width: 1.0499999821186066;" width="43.4" x="320.6" y="429.1"/><ellipse cx="331.1" cy="440.3" fill="#ADD1B2" rx="7.7" ry="7.7" style="stroke: #A80036; stroke-width: 0.699999988079071;"/><path d="M332.5,437.85 Q332.6422,437.5 332.8062,437.325 Q332.9703,437.15 333.1562,437.15 Q333.4844,437.15 333.6922,437.3469 Q333.9,437.5437 333.9,438.0031 L333.9,439.0969 Q333.9,439.5562 333.7031,439.7531 Q333.5062,439.95 333.2,439.95 Q332.9266,439.95 332.7516,439.8297 Q332.5766,439.7094 332.5,439.3922 Q332.4672,439.1734 332.3469,439.0531 Q332.1281,438.8234 331.7344,438.6867 Q331.3406,438.55 330.9469,438.55 Q330.4547,438.55 330.0445,438.7469 Q329.6344,438.9437 329.3172,439.3812 Q329,439.8187 329,440.4203 L329,441.0656 Q329,441.7875 329.5906,442.2687 Q330.1812,442.75 331.2312,442.75 Q331.8547,442.75 332.2922,442.6078 Q332.5437,442.5312 332.8281,442.2797 Q333.0141,442.1375 333.1125,442.0937 Q333.2109,442.05 333.3312,442.05 Q333.5609,442.05 333.7305,442.2305 Q333.9,442.4109 333.9,442.6625 Q333.9,442.9031 333.6594,443.1875 Q333.3094,443.6031 332.7516,443.8328 Q332.0187,444.15 331.1219,444.15 Q330.0719,444.15 329.2297,443.7344 Q328.5516,443.4062 328.0758,442.6953 Q327.6,441.9844 327.6,441.1422 L327.6,440.3766 Q327.6,439.5016 328.0211,438.7359 Q328.4422,437.9703 329.1805,437.5601 Q329.9187,437.15 330.75,437.15 Q331.2531,437.15 331.6906,437.325 Q332.1281,437.5 332.5,437.85 Z "/><text fill="#000000" font-family="sans-serif" font-size="8.4" lengthAdjust="spacingAndGlyphs" textLength="21" x="340.9" y="443.7371">Event</text><!--link UserDetailsService to CoderManagementService--><path d="M402.472,256.7691 C430.2501,263.5738 462.8078,271.5496 488.6357,277.8769 " fill="none" id="UserDetailsService-CoderManagementService" style="stroke: #A80036; stroke-width: 0.699999988079071; stroke-dasharray: 7.0,7.0;"/><polygon fill="none" points="401.289,261.5242,388.857,253.4336,403.6207,252.0056,401.289,261.5242" style="stroke: #A80036; stroke-width: 0.699999988079071;"/><!--link UserDetailsService to CompanyManagementService--><path d="M404.5244,242.2 C424.1839,242.2 446.0596,242.2 466.1692,242.2 " fill="none" id="UserDetailsService-CompanyManagementService" style="stroke: #A80036; stroke-width: 0.699999988079071; stroke-dasharray: 7.0,7.0;"/><polygon fill="none" points="404.3249,247.1,390.3249,242.2,404.3249,237.3,404.3249,247.1" style="stroke: #A80036; stroke-width: 0.699999988079071;"/><!--link CoderRepository to DataCoderRepository--><path d="M593.2087,489.3 C613.4835,489.3 636.1677,489.3 656.0092,489.3 " fill="none" id="CoderRepository-DataCoderRepository" style="stroke: #A80036; stroke-width: 0.699999988079071; stroke-dasharray: 7.0,7.0;"/><polygon fill="none" points="592.9469,494.2,578.9462,489.3,592.9462,484.4,592.9469,494.2" style="stroke: #A80036; stroke-width: 0.699999988079071;"/><!--link CompanyRepository to DataCompanyRepository--><path d="M600.1086,442.4 C616.2254,442.4 633.4398,442.4 649.292,442.4 " fill="none" id="CompanyRepository-DataCompanyRepository" style="stroke: #A80036; stroke-width: 0.699999988079071; stroke-dasharray: 7.0,7.0;"/><polygon fill="none" points="599.9903,447.3,585.9903,442.4,599.9903,437.5,599.9903,447.3" style="stroke: #A80036; stroke-width: 0.699999988079071;"/><!--link EventRepository to DataEventRepository--><path d="M592.1097,395.5 C613.1349,395.5 636.8775,395.5 657.4022,395.5 " fill="none" id="EventRepository-DataEventRepository" style="stroke: #A80036; stroke-width: 0.699999988079071; stroke-dasharray: 7.0,7.0;"/><polygon fill="none" points="592.0607,400.4,578.0607,395.5,592.0607,390.6,592.0607,400.4" style="stroke: #A80036; stroke-width: 0.699999988079071;"/><!--link RepositoryFactory to DataRepositoryFactory--><path d="M595.4011,536.2 C614.5825,536.2 635.7204,536.2 654.4734,536.2 " fill="none" id="RepositoryFactory-DataRepositoryFactory" style="stroke: #A80036; stroke-width: 0.699999988079071; stroke-dasharray: 7.0,7.0;"/><polygon fill="none" points="595.1855,541.0999,581.1855,536.2,595.1855,531.3,595.1855,541.0999" style="stroke: #A80036; stroke-width: 0.699999988079071;"/><!--link rest_controller to dto--><path d="M399.9714,128.7448 C400.0854,128.7824 400.1994,128.8201 400.3132,128.858 C403.9569,130.0712 407.5165,131.4448 410.9,133 C431.4289,142.436 430.1059,155.4322 450.8,164.5 C459.2852,168.218 468.6601,170.9116 477.973,172.8597 C478.555,172.9815 479.1368,173.1003 479.7182,173.2163 " fill="none" id="rest_controller-dto" style="stroke: #A80036; stroke-width: 0.699999988079071; stroke-dasharray: 7.0,7.0;"/><polygon fill="#A80036" points="479.7182,173.2163,474.0879,169.2376,476.2859,172.5314,472.9921,174.7294,479.7182,173.2163" style="stroke: #A80036; stroke-width: 0.699999988079071;"/><text fill="#000000" font-family="sans-serif" font-size="9.1" lengthAdjust="spacingAndGlyphs" textLength="19.6" x="424.9" y="140.3466">uses</text><!--link NotEnoughPlacesException to EventManagementService--><path d="M188.2755,272.6031 C217.9835,275.7993 252.5516,279.5191 281.337,282.6159 " fill="none" id="NotEnoughPlacesException-EventManagementService" style="stroke: #A80036; stroke-width: 0.699999988079071; stroke-dasharray: 7.0,7.0;"/><polygon fill="#A80036" points="184.6775,272.216,190.6422,275.6732,188.1575,272.59,191.2406,270.1052,184.6775,272.216" style="stroke: #A80036; stroke-width: 0.699999988079071;"/><text fill="#000000" font-family="sans-serif" font-size="9.1" lengthAdjust="spacingAndGlyphs" textLength="37.8" x="219.8" y="273.3466">&lt;throws&gt;</text><!--link NotEnoughPermissionsException to EventManagementService--><path d="M199.7786,314.1817 C219.2134,313.7911 239.911,312.6354 259,310.1 C274.3279,308.0637 290.9053,304.1913 305.1587,300.3203 " fill="none" id="NotEnoughPermissionsException-EventManagementService" style="stroke: #A80036; stroke-width: 0.699999988079071; stroke-dasharray: 7.0,7.0;"/><polygon fill="#A80036" points="196.1645,314.2461,202.5131,316.9341,199.6639,314.1841,202.4139,311.335,196.1645,314.2461" style="stroke: #A80036; stroke-width: 0.699999988079071;"/><text fill="#000000" font-family="sans-serif" font-size="9.1" lengthAdjust="spacingAndGlyphs" textLength="37.8" x="219.8" y="307.6466">&lt;throws&gt;</text><!--link EventManagementService to RepositoryFactory--><path d="M353.9501,308.5621 C367.8486,333.5493 392.2569,378.4032 410.9,417.9 C430.4832,459.3876 416.36,482.7914 450.8,513.1 C461.4316,522.4562 475.5338,528.0562 489.1243,531.3966 " fill="none" id="EventManagementService-RepositoryFactory" style="stroke: #A80036; stroke-width: 0.699999988079071;"/><polygon fill="#FFFFFF" points="349.3357,300.3014,348.9397,305.3336,353.4325,307.6346,353.8285,302.6024,349.3357,300.3014" style="stroke: #A80036; stroke-width: 0.699999988079071;"/><!--link CoderManagementService to RepositoryFactory--><path d="M507.3852,305.249 C482.0844,321.7389 446.3683,349.9125 430.85,385.35 C410.2581,432.3725 405.7872,456.0507 430.85,500.85 C442.3314,521.3733 466.858,530.3361 489.2433,534.1085 " fill="none" id="CoderManagementService-RepositoryFactory" style="stroke: #A80036; stroke-width: 0.699999988079071;"/><polygon fill="#FFFFFF" points="515.1951,300.3112,510.1488,300.1892,508.0953,304.8004,513.1416,304.9224,515.1951,300.3112" style="stroke: #A80036; stroke-width: 0.699999988079071;"/><!--link CompanyManagementService to RepositoryFactory--><path d="M457.5291,254.422 C446.5111,259.8155 436.8875,267.4574 430.85,278.25 C406.6986,321.4204 406.6986,457.6796 430.85,500.85 C442.3314,521.3733 466.858,530.3361 489.2433,534.1085 " fill="none" id="CompanyManagementService-RepositoryFactory" style="stroke: #A80036; stroke-width: 0.699999988079071;"/><polygon fill="#FFFFFF" points="466.1895,250.7204,461.2271,249.7961,458.4652,254.0213,463.4277,254.9456,466.1895,250.7204" style="stroke: #A80036; stroke-width: 0.699999988079071;"/><!--link DataRepositoryFactory to DataCompanyRepository--><path d="M646.0776,524.2818 C636.6899,519.05 629.3133,511.5593 626.85,500.85 C623.3472,485.6222 620.9553,476.3913 632.8,466.2 C638.9005,460.9507 646.1539,456.8585 653.723,453.6686 " fill="none" id="DataRepositoryFactory-DataCompanyRepository" style="stroke: #A80036; stroke-width: 0.699999988079071;"/><polygon fill="#FFFFFF" points="654.3726,528.1675,651.7568,523.8504,646.7657,524.6045,649.3815,528.9216,654.3726,528.1675" style="stroke: #A80036; stroke-width: 0.699999988079071;"/><!--link DataRepositoryFactory to DataCoderRepository--><path d="M709.1,515.5941 C709.1,510.6241 709.1,505.6541 709.1,500.6841 " fill="none" id="DataRepositoryFactory-DataCoderRepository" style="stroke: #A80036; stroke-width: 0.699999988079071;"/><polygon fill="#FFFFFF" points="709.1,524.8411,711.9,520.6411,709.1,516.4411,706.3,520.6411,709.1,524.8411" style="stroke: #A80036; stroke-width: 0.699999988079071;"/><!--link DataRepositoryFactory to DataEventRepository--><path d="M646.0776,524.2818 C636.6899,519.05 629.3133,511.5593 626.85,500.85 C622.7767,483.1421 619.0261,431.151 632.8,419.3 C639.9001,413.1911 648.5605,408.6488 657.4645,405.2727 " fill="none" id="DataRepositoryFactory-DataEventRepository" style="stroke: #A80036; stroke-width: 0.699999988079071;"/><polygon fill="#FFFFFF" points="654.3726,528.1675,651.7568,523.8504,646.7657,524.6045,649.3815,528.9216,654.3726,528.1675" style="stroke: #A80036; stroke-width: 0.699999988079071;"/><!--link EventController to CoderManagementService--><path d="M362.5566,172.7887 C384.0795,192.4286 419.083,225.89 445.2,258.3 C447.8551,261.5949 447.321,263.5906 450.8,266 C457.9218,270.9322 466.0642,274.8144 474.4103,277.8692 " fill="none" id="EventController-CoderManagementService" style="stroke: #A80036; stroke-width: 0.699999988079071;"/><polygon fill="#FFFFFF" points="355.8072,166.6798,357.0425,171.5741,362.0354,172.3163,360.8001,167.422,355.8072,166.6798" style="stroke: #A80036; stroke-width: 0.699999988079071;"/><!--link EventController to EventManagementService--><path d="M304.6883,170.4395 C266.7441,187.9605 216.6822,218.9796 238.7,253.75 C248.1556,268.6817 264.4131,277.4303 281.2838,282.5172 " fill="none" id="EventController-EventManagementService" style="stroke: #A80036; stroke-width: 0.699999988079071;"/><polygon fill="#FFFFFF" points="313.0533,166.7001,308.0763,165.858,305.3847,170.1283,310.3617,170.9704,313.0533,166.7001" style="stroke: #A80036; stroke-width: 0.699999988079071;"/><!--link EventController to CompanyManagementService--><path d="M376.4453,170.4955 C396.4086,179.5115 422.2603,191.1973 445.2,201.6 C467.0596,211.5127 491.9145,222.8226 509.8338,230.9832 " fill="none" id="EventController-CompanyManagementService" style="stroke: #A80036; stroke-width: 0.699999988079071;"/><polygon fill="#FFFFFF" points="367.9977,166.6805,370.6731,170.9609,375.6533,170.1377,372.9779,165.8572,367.9977,166.6805" style="stroke: #A80036; stroke-width: 0.699999988079071;"/><!--link Company to Event--><path d="M158.7628,441.4571 C205.5851,441.161 283.1115,440.6703 320.3494,440.4344 " fill="none" id="Company-Event" style="stroke: #A80036; stroke-width: 0.699999988079071;"/><polygon fill="#A80036" points="149.5452,441.5152,153.763,444.2884,157.945,441.4617,153.7273,438.6885,149.5452,441.5152" style="stroke: #A80036; stroke-width: 0.699999988079071;"/><text fill="#000000" font-family="sans-serif" font-size="9.1" lengthAdjust="spacingAndGlyphs" textLength="39.2" x="219.1" y="437.8466">organizes</text><text fill="#000000" font-family="sans-serif" font-size="9.1" lengthAdjust="spacingAndGlyphs" textLength="4.9" x="155.0959" y="451.9137">1</text><text fill="#000000" font-family="sans-serif" font-size="9.1" lengthAdjust="spacingAndGlyphs" textLength="3.5" x="311.3686" y="451.2355">*</text><!--link Coder to Event--><path d="M342.3,488.3277 C342.3,477.7241 342.3,462.0623 342.3,451.535 " fill="none" id="Coder-Event" style="stroke: #A80036; stroke-width: 0.699999988079071;"/><text fill="#000000" font-family="sans-serif" font-size="9.1" lengthAdjust="spacingAndGlyphs" textLength="46.9" x="310.45" y="473.8966">participates</text><text fill="#000000" font-family="sans-serif" font-size="9.1" lengthAdjust="spacingAndGlyphs" textLength="4.9" x="336.5884" y="480.9598">1</text><text fill="#000000" font-family="sans-serif" font-size="9.1" lengthAdjust="spacingAndGlyphs" textLength="3.5" x="338.2203" y="466.5989">*</text><!--link EventDTO to CompanyDTO--><!--link EventDTO to CoderDTO--><!--
@startuml
hide members
hide methods
'hide circle
'skinparam monochrome true
skinparam shadowing false
left to right direction
skinparam dpi 600
package client {



    package rest_controller {
        class EventController
    }


    package service {
        class CoderManagementService implements UserDetailsService
        class CompanyManagementService implements UserDetailsService
        class EventManagementService
    }


    package exceptions {
        class NotEnoughPlacesException
        class NotEnoughPermissionsException
    }

    package repository {
        package api {
            interface CoderRepository
            interface CompanyRepository
            interface EventRepository
            interface RepositoryFactory
        }

    package data {
        class DataCoderRepository implements CoderRepository
        class DataCompanyRepository implements CompanyRepository
        class DataEventRepository implements EventRepository
        class DataRepositoryFactory implements RepositoryFactory
    }
}

    package dto {
        class EventDTO
        class CompanyDTO
        class CoderDTO
    }

    package model {
        class Coder
        class Company
        class Event
    }

}

rest_controller -.> dto : uses
'service <-. rest_controller : uses

'repository <-. service : uses
NotEnoughPlacesException <-. EventManagementService : <throws>
NotEnoughPermissionsException <-. EventManagementService : <throws>

EventManagementService o- RepositoryFactory
CoderManagementService o- RepositoryFactory
CompanyManagementService o- RepositoryFactory

DataRepositoryFactory o- DataCompanyRepository
DataRepositoryFactory o- DataCoderRepository
DataRepositoryFactory o- DataEventRepository

EventController o- -CoderManagementService
EventController o- EventManagementService
EventController o- CompanyManagementService
Company "1" *- - "*" Event : organizes
Coder "1" - "*" Event : participates


class EventController {
    void addEvent(event : EventDTO)
    void joinEvent(coderId, eventId)
    List<CoderDTO> getParticipantsForEvent(conpanyId, eventId)
    List<EventDTO> listAllEvents()
}

class CoderManagementService {
    loadUserByUsername(username)
}

class CompanyManagementService {
    loadUserByUsername(username)
}

class EventManagementService {
    addEvent(companyId, eventName, dateOfEvent, address, maxNrOfParticipants)
    joinEvent(coderId, eventId)
    getParticipantsForEvent(companyId, eventId)
    listAllEvents()
}

interface RepositoryFactory {
    {abstract} getCoderRepository()
    {abstract} getCompanyRepository()
    {abstract} getEventRepository()
}

interface CoderRepository {
    {abstract} findAllParticipatingEvents(coderId)
}

interface CompanyRepository {
    {abstract} findAllOrganisingEvents(companyId)
    {abstract} findAllParticipantsForEvent(eventId)
}

interface EventRepository {
    {abstract} findById(eventId)
    {abstract} findAll()
}

class Coder{
    id : int
    firstName : String
    lastName : String
    email : String
    linkedin : String
    username : String
    password : String
}

class Company{
    id : int
    name : String
    address : String
    email : String
    website : String
    username : String
    password : String
}

class Event{
    name : String
    dateOfEvent : LocalDateTime
    address : String
    maxNrOfParticipants : int
    organiser : Company
    participants : List<Coder>
}

@enduml

PlantUML version 1.2017.15(Mon Jul 03 19:45:34 EEST 2017)
(GPL source distribution)
Java Runtime: OpenJDK Runtime Environment
JVM: OpenJDK 64-Bit Server VM
Java Version: 1.8.0_152-release-1343-b28
Operating System: Windows 8.1
OS Version: 6.3
Default Encoding: Cp1252
Language: en
Country: US
--></g></svg>