<?xml version="1.0" encoding="UTF-8" standalone="no"?><svg xmlns="http://www.w3.org/2000/svg" xmlns:xlink="http://www.w3.org/1999/xlink" contentScriptType="application/ecmascript" contentStyleType="text/css" height="686.4px" preserveAspectRatio="none" style="width:947px;height:686px;" version="1.1" viewBox="0 0 947 686" width="947.2px" zoomAndPan="magnify"><defs/><g><!--cluster server--><polygon fill="#FFFFFF" points="17.6,19.2,60,19.2,65.6,38.0875,929.6,38.0875,929.6,676.8,17.6,676.8,17.6,19.2" style="stroke: #000000; stroke-width: 1.600000023841858;"/><line style="stroke: #000000; stroke-width: 1.600000023841858;" x1="17.6" x2="65.6" y1="38.0875" y2="38.0875"/><text fill="#000000" font-family="sans-serif" font-size="11.2" font-weight="bold" lengthAdjust="spacingAndGlyphs" textLength="37.6" x="20.8" y="32.4266">server</text><!--cluster rest_controller--><polygon fill="#FFFFFF" points="325.6,114.4,414.4,114.4,420,133.2875,456.8,133.2875,456.8,209.6,325.6,209.6,325.6,114.4" style="stroke: #000000; stroke-width: 1.600000023841858;"/><line style="stroke: #000000; stroke-width: 1.600000023841858;" x1="325.6" x2="420" y1="133.2875" y2="133.2875"/><text fill="#000000" font-family="sans-serif" font-size="11.2" font-weight="bold" lengthAdjust="spacingAndGlyphs" textLength="84" x="328.8" y="127.6266">rest_controller</text><!--cluster service--><polygon fill="#FFFFFF" points="308.8,235.2,356,235.2,361.6,254.0875,703.2,254.0875,703.2,356,308.8,356,308.8,235.2" style="stroke: #000000; stroke-width: 1.600000023841858;"/><line style="stroke: #000000; stroke-width: 1.600000023841858;" x1="308.8" x2="361.6" y1="254.0875" y2="254.0875"/><text fill="#000000" font-family="sans-serif" font-size="11.2" font-weight="bold" lengthAdjust="spacingAndGlyphs" textLength="42.4" x="312" y="248.4266">service</text><!--cluster exceptions--><polygon fill="#FFFFFF" points="36.8,261.6,104,261.6,109.6,280.4875,236.8,280.4875,236.8,382.4,36.8,382.4,36.8,261.6" style="stroke: #000000; stroke-width: 1.600000023841858;"/><line style="stroke: #000000; stroke-width: 1.600000023841858;" x1="36.8" x2="109.6" y1="280.4875" y2="280.4875"/><text fill="#000000" font-family="sans-serif" font-size="11.2" font-weight="bold" lengthAdjust="spacingAndGlyphs" textLength="62.4" x="40" y="274.8266">exceptions</text><!--cluster repository--><polygon fill="#FFFFFF" points="521.6,375.2,584,375.2,589.6,394.0875,910.4,394.0875,910.4,657.6,521.6,657.6,521.6,375.2" style="stroke: #000000; stroke-width: 1.600000023841858;"/><line style="stroke: #000000; stroke-width: 1.600000023841858;" x1="521.6" x2="589.6" y1="394.0875" y2="394.0875"/><text fill="#000000" font-family="sans-serif" font-size="11.2" font-weight="bold" lengthAdjust="spacingAndGlyphs" textLength="57.6" x="524.8" y="388.4266">repository</text><!--cluster api--><polygon fill="#FFFFFF" points="540.8,410.4,562.4,410.4,568,429.2875,682.4,429.2875,682.4,638.4,540.8,638.4,540.8,410.4" style="stroke: #000000; stroke-width: 1.600000023841858;"/><line style="stroke: #000000; stroke-width: 1.600000023841858;" x1="540.8" x2="568" y1="429.2875" y2="429.2875"/><text fill="#000000" font-family="sans-serif" font-size="11.2" font-weight="bold" lengthAdjust="spacingAndGlyphs" textLength="16.8" x="544" y="423.6266">api</text><!--cluster data--><polygon fill="#FFFFFF" points="729.6,410.4,758.4,410.4,764,429.2875,891.2,429.2875,891.2,638.4,729.6,638.4,729.6,410.4" style="stroke: #000000; stroke-width: 1.600000023841858;"/><line style="stroke: #000000; stroke-width: 1.600000023841858;" x1="729.6" x2="764" y1="429.2875" y2="429.2875"/><text fill="#000000" font-family="sans-serif" font-size="11.2" font-weight="bold" lengthAdjust="spacingAndGlyphs" textLength="24" x="732.8" y="423.6266">data</text><!--cluster dto--><polygon fill="#FFFFFF" points="548.4,60.8,571.6,60.8,577.2,79.6875,866,79.6875,866,209.6,548.4,209.6,548.4,60.8" style="stroke: #000000; stroke-width: 1.600000023841858;"/><line style="stroke: #000000; stroke-width: 1.600000023841858;" x1="548.4" x2="577.2" y1="79.6875" y2="79.6875"/><text fill="#000000" font-family="sans-serif" font-size="11.2" font-weight="bold" lengthAdjust="spacingAndGlyphs" textLength="18.4" x="551.6" y="74.0266">dto</text><!--cluster model--><polygon fill="#FFFFFF" points="90,461.6,129.2,461.6,134.8,480.4875,430.4,480.4875,430.4,596.8,90,596.8,90,461.6" style="stroke: #000000; stroke-width: 1.600000023841858;"/><line style="stroke: #000000; stroke-width: 1.600000023841858;" x1="90" x2="134.8" y1="480.4875" y2="480.4875"/><text fill="#000000" font-family="sans-serif" font-size="11.2" font-weight="bold" lengthAdjust="spacingAndGlyphs" textLength="34.4" x="93.2" y="474.8266">model</text><!--class EventController--><rect fill="#FEFECE" height="25.6" id="EventController" style="stroke: #A80036; stroke-width: 1.2000000178813934;" width="92.8" x="344.8" y="164.8"/><ellipse cx="356.8" cy="177.6" fill="#ADD1B2" rx="8.8" ry="8.8" style="stroke: #A80036; stroke-width: 0.800000011920929;"/><path d="M358.4,174.8 Q358.5625,174.4 358.75,174.2 Q358.9375,174 359.15,174 Q359.525,174 359.7625,174.225 Q360,174.45 360,174.975 L360,176.225 Q360,176.75 359.775,176.975 Q359.55,177.2 359.2,177.2 Q358.8875,177.2 358.6875,177.0625 Q358.4875,176.925 358.4,176.5625 Q358.3625,176.3125 358.225,176.175 Q357.975,175.9125 357.525,175.7563 Q357.075,175.6 356.625,175.6 Q356.0625,175.6 355.5938,175.825 Q355.125,176.05 354.7625,176.55 Q354.4,177.05 354.4,177.7375 L354.4,178.475 Q354.4,179.3 355.075,179.85 Q355.75,180.4 356.95,180.4 Q357.6625,180.4 358.1625,180.2375 Q358.45,180.15 358.775,179.8625 Q358.9875,179.7 359.1,179.65 Q359.2125,179.6 359.35,179.6 Q359.6125,179.6 359.8063,179.8063 Q360,180.0125 360,180.3 Q360,180.575 359.725,180.9 Q359.325,181.375 358.6875,181.6375 Q357.85,182 356.825,182 Q355.625,182 354.6625,181.525 Q353.8875,181.15 353.3438,180.3375 Q352.8,179.525 352.8,178.5625 L352.8,177.6875 Q352.8,176.6875 353.2813,175.8125 Q353.7625,174.9375 354.6063,174.4688 Q355.45,174 356.4,174 Q356.975,174 357.475,174.2 Q357.975,174.4 358.4,174.8 Z "/><text fill="#000000" font-family="sans-serif" font-size="9.6" lengthAdjust="spacingAndGlyphs" textLength="67.2" x="368" y="181.5281">EventController</text><!--class CoderManagementService--><rect fill="#FEFECE" height="25.6" id="CoderManagementService" style="stroke: #A80036; stroke-width: 1.2000000178813934;" width="142.4" x="540.4" y="317.6"/><ellipse cx="552.4" cy="330.4" fill="#ADD1B2" rx="8.8" ry="8.8" style="stroke: #A80036; stroke-width: 0.800000011920929;"/><path d="M554,327.6 Q554.1625,327.2 554.35,327 Q554.5375,326.8 554.75,326.8 Q555.125,326.8 555.3625,327.025 Q555.6,327.25 555.6,327.775 L555.6,329.025 Q555.6,329.55 555.375,329.775 Q555.15,330 554.8,330 Q554.4875,330 554.2875,329.8625 Q554.0875,329.725 554,329.3625 Q553.9625,329.1125 553.825,328.975 Q553.575,328.7125 553.125,328.5563 Q552.675,328.4 552.225,328.4 Q551.6625,328.4 551.1938,328.625 Q550.725,328.85 550.3625,329.35 Q550,329.85 550,330.5375 L550,331.275 Q550,332.1 550.675,332.65 Q551.35,333.2 552.55,333.2 Q553.2625,333.2 553.7625,333.0375 Q554.05,332.95 554.375,332.6625 Q554.5875,332.5 554.7,332.45 Q554.8125,332.4 554.95,332.4 Q555.2125,332.4 555.4063,332.6063 Q555.6,332.8125 555.6,333.1 Q555.6,333.375 555.325,333.7 Q554.925,334.175 554.2875,334.4375 Q553.45,334.8 552.425,334.8 Q551.225,334.8 550.2625,334.325 Q549.4875,333.95 548.9438,333.1375 Q548.4,332.325 548.4,331.3625 L548.4,330.4875 Q548.4,329.4875 548.8813,328.6125 Q549.3625,327.7375 550.2063,327.2688 Q551.05,326.8 552,326.8 Q552.575,326.8 553.075,327 Q553.575,327.2 554,327.6 Z "/><text fill="#000000" font-family="sans-serif" font-size="9.6" lengthAdjust="spacingAndGlyphs" textLength="116.8" x="563.6" y="334.3281">CoderManagementService</text><!--class UserDetailsService--><rect fill="#FEFECE" height="25.6" id="UserDetailsService" style="stroke: #A80036; stroke-width: 1.2000000178813934;" width="109.6" x="336.4" y="264"/><ellipse cx="348.4" cy="276.8" fill="#B4A7E5" rx="8.8" ry="8.8" style="stroke: #A80036; stroke-width: 0.800000011920929;"/><path d="M349.2,274.4 L349.2,279.2 L350.8,279.2 L351.1875,279.2 L351.6,279.7 L351.6,280 L351.6,280.3 L351.1875,280.8 L350.8,280.8 L346,280.8 L345.6125,280.8 L345.2,280.3 L345.2,280 L345.2,279.7 L345.6125,279.2 L346,279.2 L347.6,279.2 L347.6,274.4 L346,274.4 L345.6125,274.4 L345.2,273.9 L345.2,273.6 L345.2,273.3 L345.6125,272.8 L346,272.8 L350.8,272.8 L351.1875,272.8 L351.6,273.3 L351.6,273.6 L351.6,273.9 L351.1875,274.4 L350.8,274.4 L349.2,274.4 Z "/><text fill="#000000" font-family="sans-serif" font-size="9.6" font-style="italic" lengthAdjust="spacingAndGlyphs" textLength="84" x="359.6" y="280.7281">UserDetailsService</text><!--class CompanyManagementService--><rect fill="#FEFECE" height="25.6" id="CompanyManagementService" style="stroke: #A80036; stroke-width: 1.2000000178813934;" width="157.6" x="532.8" y="264"/><ellipse cx="544.8" cy="276.8" fill="#ADD1B2" rx="8.8" ry="8.8" style="stroke: #A80036; stroke-width: 0.800000011920929;"/><path d="M546.4,274 Q546.5625,273.6 546.75,273.4 Q546.9375,273.2 547.15,273.2 Q547.525,273.2 547.7625,273.425 Q548,273.65 548,274.175 L548,275.425 Q548,275.95 547.775,276.175 Q547.55,276.4 547.2,276.4 Q546.8875,276.4 546.6875,276.2625 Q546.4875,276.125 546.4,275.7625 Q546.3625,275.5125 546.225,275.375 Q545.975,275.1125 545.525,274.9563 Q545.075,274.8 544.625,274.8 Q544.0625,274.8 543.5938,275.025 Q543.125,275.25 542.7625,275.75 Q542.4,276.25 542.4,276.9375 L542.4,277.675 Q542.4,278.5 543.075,279.05 Q543.75,279.6 544.95,279.6 Q545.6625,279.6 546.1625,279.4375 Q546.45,279.35 546.775,279.0625 Q546.9875,278.9 547.1,278.85 Q547.2125,278.8 547.35,278.8 Q547.6125,278.8 547.8063,279.0063 Q548,279.2125 548,279.5 Q548,279.775 547.725,280.1 Q547.325,280.575 546.6875,280.8375 Q545.85,281.2 544.825,281.2 Q543.625,281.2 542.6625,280.725 Q541.8875,280.35 541.3438,279.5375 Q540.8,278.725 540.8,277.7625 L540.8,276.8875 Q540.8,275.8875 541.2813,275.0125 Q541.7625,274.1375 542.6063,273.6688 Q543.45,273.2 544.4,273.2 Q544.975,273.2 545.475,273.4 Q545.975,273.6 546.4,274 Z "/><text fill="#000000" font-family="sans-serif" font-size="9.6" lengthAdjust="spacingAndGlyphs" textLength="132" x="556" y="280.7281">CompanyManagementService</text><!--class EventManagementService--><rect fill="#FEFECE" height="25.6" id="EventManagementService" style="stroke: #A80036; stroke-width: 1.2000000178813934;" width="139.2" x="321.6" y="317.6"/><ellipse cx="333.6" cy="330.4" fill="#ADD1B2" rx="8.8" ry="8.8" style="stroke: #A80036; stroke-width: 0.800000011920929;"/><path d="M335.2,327.6 Q335.3625,327.2 335.55,327 Q335.7375,326.8 335.95,326.8 Q336.325,326.8 336.5625,327.025 Q336.8,327.25 336.8,327.775 L336.8,329.025 Q336.8,329.55 336.575,329.775 Q336.35,330 336,330 Q335.6875,330 335.4875,329.8625 Q335.2875,329.725 335.2,329.3625 Q335.1625,329.1125 335.025,328.975 Q334.775,328.7125 334.325,328.5563 Q333.875,328.4 333.425,328.4 Q332.8625,328.4 332.3938,328.625 Q331.925,328.85 331.5625,329.35 Q331.2,329.85 331.2,330.5375 L331.2,331.275 Q331.2,332.1 331.875,332.65 Q332.55,333.2 333.75,333.2 Q334.4625,333.2 334.9625,333.0375 Q335.25,332.95 335.575,332.6625 Q335.7875,332.5 335.9,332.45 Q336.0125,332.4 336.15,332.4 Q336.4125,332.4 336.6063,332.6063 Q336.8,332.8125 336.8,333.1 Q336.8,333.375 336.525,333.7 Q336.125,334.175 335.4875,334.4375 Q334.65,334.8 333.625,334.8 Q332.425,334.8 331.4625,334.325 Q330.6875,333.95 330.1438,333.1375 Q329.6,332.325 329.6,331.3625 L329.6,330.4875 Q329.6,329.4875 330.0813,328.6125 Q330.5625,327.7375 331.4063,327.2688 Q332.25,326.8 333.2,326.8 Q333.775,326.8 334.275,327 Q334.775,327.2 335.2,327.6 Z "/><text fill="#000000" font-family="sans-serif" font-size="9.6" lengthAdjust="spacingAndGlyphs" textLength="113.6" x="344.8" y="334.3281">EventManagementService</text><!--class NotEnoughPlacesException--><rect fill="#FEFECE" height="25.6" id="NotEnoughPlacesException" style="stroke: #A80036; stroke-width: 1.2000000178813934;" width="148" x="62.8" y="290.4"/><ellipse cx="74.8" cy="303.2" fill="#ADD1B2" rx="8.8" ry="8.8" style="stroke: #A80036; stroke-width: 0.800000011920929;"/><path d="M76.4,300.4 Q76.5625,300 76.75,299.8 Q76.9375,299.6 77.15,299.6 Q77.525,299.6 77.7625,299.825 Q78,300.05 78,300.575 L78,301.825 Q78,302.35 77.775,302.575 Q77.55,302.8 77.2,302.8 Q76.8875,302.8 76.6875,302.6625 Q76.4875,302.525 76.4,302.1625 Q76.3625,301.9125 76.225,301.775 Q75.975,301.5125 75.525,301.3563 Q75.075,301.2 74.625,301.2 Q74.0625,301.2 73.5938,301.425 Q73.125,301.65 72.7625,302.15 Q72.4,302.65 72.4,303.3375 L72.4,304.075 Q72.4,304.9 73.075,305.45 Q73.75,306 74.95,306 Q75.6625,306 76.1625,305.8375 Q76.45,305.75 76.775,305.4625 Q76.9875,305.3 77.1,305.25 Q77.2125,305.2 77.35,305.2 Q77.6125,305.2 77.8063,305.4063 Q78,305.6125 78,305.9 Q78,306.175 77.725,306.5 Q77.325,306.975 76.6875,307.2375 Q75.85,307.6 74.825,307.6 Q73.625,307.6 72.6625,307.125 Q71.8875,306.75 71.3438,305.9375 Q70.8,305.125 70.8,304.1625 L70.8,303.2875 Q70.8,302.2875 71.2813,301.4125 Q71.7625,300.5375 72.6063,300.0688 Q73.45,299.6 74.4,299.6 Q74.975,299.6 75.475,299.8 Q75.975,300 76.4,300.4 Z "/><text fill="#000000" font-family="sans-serif" font-size="9.6" lengthAdjust="spacingAndGlyphs" textLength="122.4" x="86" y="307.1281">NotEnoughPlacesException</text><!--class NotEnoughPermissionsException--><rect fill="#FEFECE" height="25.6" id="NotEnoughPermissionsException" style="stroke: #A80036; stroke-width: 1.2000000178813934;" width="174.4" x="49.6" y="344"/><ellipse cx="61.6" cy="356.8" fill="#ADD1B2" rx="8.8" ry="8.8" style="stroke: #A80036; stroke-width: 0.800000011920929;"/><path d="M63.2,354 Q63.3625,353.6 63.55,353.4 Q63.7375,353.2 63.95,353.2 Q64.325,353.2 64.5625,353.425 Q64.8,353.65 64.8,354.175 L64.8,355.425 Q64.8,355.95 64.575,356.175 Q64.35,356.4 64,356.4 Q63.6875,356.4 63.4875,356.2625 Q63.2875,356.125 63.2,355.7625 Q63.1625,355.5125 63.025,355.375 Q62.775,355.1125 62.325,354.9563 Q61.875,354.8 61.425,354.8 Q60.8625,354.8 60.3938,355.025 Q59.925,355.25 59.5625,355.75 Q59.2,356.25 59.2,356.9375 L59.2,357.675 Q59.2,358.5 59.875,359.05 Q60.55,359.6 61.75,359.6 Q62.4625,359.6 62.9625,359.4375 Q63.25,359.35 63.575,359.0625 Q63.7875,358.9 63.9,358.85 Q64.0125,358.8 64.15,358.8 Q64.4125,358.8 64.6063,359.0063 Q64.8,359.2125 64.8,359.5 Q64.8,359.775 64.525,360.1 Q64.125,360.575 63.4875,360.8375 Q62.65,361.2 61.625,361.2 Q60.425,361.2 59.4625,360.725 Q58.6875,360.35 58.1438,359.5375 Q57.6,358.725 57.6,357.7625 L57.6,356.8875 Q57.6,355.8875 58.0813,355.0125 Q58.5625,354.1375 59.4063,353.6688 Q60.25,353.2 61.2,353.2 Q61.775,353.2 62.275,353.4 Q62.775,353.6 63.2,354 Z "/><text fill="#000000" font-family="sans-serif" font-size="9.6" lengthAdjust="spacingAndGlyphs" textLength="148.8" x="72.8" y="360.7281">NotEnoughPermissionsException</text><!--class CoderRepository--><rect fill="#FEFECE" height="25.6" id="CoderRepository" style="stroke: #A80036; stroke-width: 1.2000000178813934;" width="100" x="561.6" y="546.4"/><ellipse cx="573.6" cy="559.2" fill="#B4A7E5" rx="8.8" ry="8.8" style="stroke: #A80036; stroke-width: 0.800000011920929;"/><path d="M574.4,556.8 L574.4,561.6 L576,561.6 L576.3875,561.6 L576.8,562.1 L576.8,562.4 L576.8,562.7 L576.3875,563.2 L576,563.2 L571.2,563.2 L570.8125,563.2 L570.4,562.7 L570.4,562.4 L570.4,562.1 L570.8125,561.6 L571.2,561.6 L572.8,561.6 L572.8,556.8 L571.2,556.8 L570.8125,556.8 L570.4,556.3 L570.4,556 L570.4,555.7 L570.8125,555.2 L571.2,555.2 L576,555.2 L576.3875,555.2 L576.8,555.7 L576.8,556 L576.8,556.3 L576.3875,556.8 L576,556.8 L574.4,556.8 Z "/><text fill="#000000" font-family="sans-serif" font-size="9.6" font-style="italic" lengthAdjust="spacingAndGlyphs" textLength="74.4" x="584.8" y="563.1281">CoderRepository</text><!--class CompanyRepository--><rect fill="#FEFECE" height="25.6" id="CompanyRepository" style="stroke: #A80036; stroke-width: 1.2000000178813934;" width="116" x="553.6" y="492.8"/><ellipse cx="565.6" cy="505.6" fill="#B4A7E5" rx="8.8" ry="8.8" style="stroke: #A80036; stroke-width: 0.800000011920929;"/><path d="M566.4,503.2 L566.4,508 L568,508 L568.3875,508 L568.8,508.5 L568.8,508.8 L568.8,509.1 L568.3875,509.6 L568,509.6 L563.2,509.6 L562.8125,509.6 L562.4,509.1 L562.4,508.8 L562.4,508.5 L562.8125,508 L563.2,508 L564.8,508 L564.8,503.2 L563.2,503.2 L562.8125,503.2 L562.4,502.7 L562.4,502.4 L562.4,502.1 L562.8125,501.6 L563.2,501.6 L568,501.6 L568.3875,501.6 L568.8,502.1 L568.8,502.4 L568.8,502.7 L568.3875,503.2 L568,503.2 L566.4,503.2 Z "/><text fill="#000000" font-family="sans-serif" font-size="9.6" font-style="italic" lengthAdjust="spacingAndGlyphs" textLength="90.4" x="576.8" y="509.5281">CompanyRepository</text><!--class EventRepository--><rect fill="#FEFECE" height="25.6" id="EventRepository" style="stroke: #A80036; stroke-width: 1.2000000178813934;" width="97.6" x="562.8" y="439.2"/><ellipse cx="574.8" cy="452" fill="#B4A7E5" rx="8.8" ry="8.8" style="stroke: #A80036; stroke-width: 0.800000011920929;"/><path d="M575.6,449.6 L575.6,454.4 L577.2,454.4 L577.5875,454.4 L578,454.9 L578,455.2 L578,455.5 L577.5875,456 L577.2,456 L572.4,456 L572.0125,456 L571.6,455.5 L571.6,455.2 L571.6,454.9 L572.0125,454.4 L572.4,454.4 L574,454.4 L574,449.6 L572.4,449.6 L572.0125,449.6 L571.6,449.1 L571.6,448.8 L571.6,448.5 L572.0125,448 L572.4,448 L577.2,448 L577.5875,448 L578,448.5 L578,448.8 L578,449.1 L577.5875,449.6 L577.2,449.6 L575.6,449.6 Z "/><text fill="#000000" font-family="sans-serif" font-size="9.6" font-style="italic" lengthAdjust="spacingAndGlyphs" textLength="72" x="586" y="455.9281">EventRepository</text><!--class RepositoryFactory--><rect fill="#FEFECE" height="25.6" id="RepositoryFactory" style="stroke: #A80036; stroke-width: 1.2000000178813934;" width="104.8" x="559.2" y="600"/><ellipse cx="571.2" cy="612.8" fill="#B4A7E5" rx="8.8" ry="8.8" style="stroke: #A80036; stroke-width: 0.800000011920929;"/><path d="M572,610.4 L572,615.2 L573.6,615.2 L573.9875,615.2 L574.4,615.7 L574.4,616 L574.4,616.3 L573.9875,616.8 L573.6,616.8 L568.8,616.8 L568.4125,616.8 L568,616.3 L568,616 L568,615.7 L568.4125,615.2 L568.8,615.2 L570.4,615.2 L570.4,610.4 L568.8,610.4 L568.4125,610.4 L568,609.9 L568,609.6 L568,609.3 L568.4125,608.8 L568.8,608.8 L573.6,608.8 L573.9875,608.8 L574.4,609.3 L574.4,609.6 L574.4,609.9 L573.9875,610.4 L573.6,610.4 L572,610.4 Z "/><text fill="#000000" font-family="sans-serif" font-size="9.6" font-style="italic" lengthAdjust="spacingAndGlyphs" textLength="79.2" x="582.4" y="616.7281">RepositoryFactory</text><!--class DataCoderRepository--><rect fill="#FEFECE" height="25.6" id="DataCoderRepository" style="stroke: #A80036; stroke-width: 1.2000000178813934;" width="120.8" x="750" y="546.4"/><ellipse cx="762" cy="559.2" fill="#ADD1B2" rx="8.8" ry="8.8" style="stroke: #A80036; stroke-width: 0.800000011920929;"/><path d="M763.6,556.4 Q763.7625,556 763.95,555.8 Q764.1375,555.6 764.35,555.6 Q764.725,555.6 764.9625,555.825 Q765.2,556.05 765.2,556.575 L765.2,557.825 Q765.2,558.35 764.975,558.575 Q764.75,558.8 764.4,558.8 Q764.0875,558.8 763.8875,558.6625 Q763.6875,558.525 763.6,558.1625 Q763.5625,557.9125 763.425,557.775 Q763.175,557.5125 762.725,557.3563 Q762.275,557.2 761.825,557.2 Q761.2625,557.2 760.7938,557.425 Q760.325,557.65 759.9625,558.15 Q759.6,558.65 759.6,559.3375 L759.6,560.075 Q759.6,560.9 760.275,561.45 Q760.95,562 762.15,562 Q762.8625,562 763.3625,561.8375 Q763.65,561.75 763.975,561.4625 Q764.1875,561.3 764.3,561.25 Q764.4125,561.2 764.55,561.2 Q764.8125,561.2 765.0063,561.4063 Q765.2,561.6125 765.2,561.9 Q765.2,562.175 764.925,562.5 Q764.525,562.975 763.8875,563.2375 Q763.05,563.6 762.025,563.6 Q760.825,563.6 759.8625,563.125 Q759.0875,562.75 758.5438,561.9375 Q758,561.125 758,560.1625 L758,559.2875 Q758,558.2875 758.4813,557.4125 Q758.9625,556.5375 759.8063,556.0688 Q760.65,555.6 761.6,555.6 Q762.175,555.6 762.675,555.8 Q763.175,556 763.6,556.4 Z "/><text fill="#000000" font-family="sans-serif" font-size="9.6" lengthAdjust="spacingAndGlyphs" textLength="95.2" x="773.2" y="563.1281">DataCoderRepository</text><!--class DataCompanyRepository--><rect fill="#FEFECE" height="25.6" id="DataCompanyRepository" style="stroke: #A80036; stroke-width: 1.2000000178813934;" width="136" x="742.4" y="492.8"/><ellipse cx="754.4" cy="505.6" fill="#ADD1B2" rx="8.8" ry="8.8" style="stroke: #A80036; stroke-width: 0.800000011920929;"/><path d="M756,502.8 Q756.1625,502.4 756.35,502.2 Q756.5375,502 756.75,502 Q757.125,502 757.3625,502.225 Q757.6,502.45 757.6,502.975 L757.6,504.225 Q757.6,504.75 757.375,504.975 Q757.15,505.2 756.8,505.2 Q756.4875,505.2 756.2875,505.0625 Q756.0875,504.925 756,504.5625 Q755.9625,504.3125 755.825,504.175 Q755.575,503.9125 755.125,503.7563 Q754.675,503.6 754.225,503.6 Q753.6625,503.6 753.1938,503.825 Q752.725,504.05 752.3625,504.55 Q752,505.05 752,505.7375 L752,506.475 Q752,507.3 752.675,507.85 Q753.35,508.4 754.55,508.4 Q755.2625,508.4 755.7625,508.2375 Q756.05,508.15 756.375,507.8625 Q756.5875,507.7 756.7,507.65 Q756.8125,507.6 756.95,507.6 Q757.2125,507.6 757.4063,507.8063 Q757.6,508.0125 757.6,508.3 Q757.6,508.575 757.325,508.9 Q756.925,509.375 756.2875,509.6375 Q755.45,510 754.425,510 Q753.225,510 752.2625,509.525 Q751.4875,509.15 750.9438,508.3375 Q750.4,507.525 750.4,506.5625 L750.4,505.6875 Q750.4,504.6875 750.8813,503.8125 Q751.3625,502.9375 752.2063,502.4688 Q753.05,502 754,502 Q754.575,502 755.075,502.2 Q755.575,502.4 756,502.8 Z "/><text fill="#000000" font-family="sans-serif" font-size="9.6" lengthAdjust="spacingAndGlyphs" textLength="110.4" x="765.6" y="509.5281">DataCompanyRepository</text><!--class DataEventRepository--><rect fill="#FEFECE" height="25.6" id="DataEventRepository" style="stroke: #A80036; stroke-width: 1.2000000178813934;" width="117.6" x="751.6" y="439.2"/><ellipse cx="763.6" cy="452" fill="#ADD1B2" rx="8.8" ry="8.8" style="stroke: #A80036; stroke-width: 0.800000011920929;"/><path d="M765.2,449.2 Q765.3625,448.8 765.55,448.6 Q765.7375,448.4 765.95,448.4 Q766.325,448.4 766.5625,448.625 Q766.8,448.85 766.8,449.375 L766.8,450.625 Q766.8,451.15 766.575,451.375 Q766.35,451.6 766,451.6 Q765.6875,451.6 765.4875,451.4625 Q765.2875,451.325 765.2,450.9625 Q765.1625,450.7125 765.025,450.575 Q764.775,450.3125 764.325,450.1563 Q763.875,450 763.425,450 Q762.8625,450 762.3938,450.225 Q761.925,450.45 761.5625,450.95 Q761.2,451.45 761.2,452.1375 L761.2,452.875 Q761.2,453.7 761.875,454.25 Q762.55,454.8 763.75,454.8 Q764.4625,454.8 764.9625,454.6375 Q765.25,454.55 765.575,454.2625 Q765.7875,454.1 765.9,454.05 Q766.0125,454 766.15,454 Q766.4125,454 766.6063,454.2063 Q766.8,454.4125 766.8,454.7 Q766.8,454.975 766.525,455.3 Q766.125,455.775 765.4875,456.0375 Q764.65,456.4 763.625,456.4 Q762.425,456.4 761.4625,455.925 Q760.6875,455.55 760.1438,454.7375 Q759.6,453.925 759.6,452.9625 L759.6,452.0875 Q759.6,451.0875 760.0813,450.2125 Q760.5625,449.3375 761.4063,448.8688 Q762.25,448.4 763.2,448.4 Q763.775,448.4 764.275,448.6 Q764.775,448.8 765.2,449.2 Z "/><text fill="#000000" font-family="sans-serif" font-size="9.6" lengthAdjust="spacingAndGlyphs" textLength="92" x="774.8" y="455.9281">DataEventRepository</text><!--class DataRepositoryFactory--><rect fill="#FEFECE" height="25.6" id="DataRepositoryFactory" style="stroke: #A80036; stroke-width: 1.2000000178813934;" width="124.8" x="748" y="600"/><ellipse cx="760" cy="612.8" fill="#ADD1B2" rx="8.8" ry="8.8" style="stroke: #A80036; stroke-width: 0.800000011920929;"/><path d="M761.6,610 Q761.7625,609.6 761.95,609.4 Q762.1375,609.2 762.35,609.2 Q762.725,609.2 762.9625,609.425 Q763.2,609.65 763.2,610.175 L763.2,611.425 Q763.2,611.95 762.975,612.175 Q762.75,612.4 762.4,612.4 Q762.0875,612.4 761.8875,612.2625 Q761.6875,612.125 761.6,611.7625 Q761.5625,611.5125 761.425,611.375 Q761.175,611.1125 760.725,610.9563 Q760.275,610.8 759.825,610.8 Q759.2625,610.8 758.7938,611.025 Q758.325,611.25 757.9625,611.75 Q757.6,612.25 757.6,612.9375 L757.6,613.675 Q757.6,614.5 758.275,615.05 Q758.95,615.6 760.15,615.6 Q760.8625,615.6 761.3625,615.4375 Q761.65,615.35 761.975,615.0625 Q762.1875,614.9 762.3,614.85 Q762.4125,614.8 762.55,614.8 Q762.8125,614.8 763.0063,615.0063 Q763.2,615.2125 763.2,615.5 Q763.2,615.775 762.925,616.1 Q762.525,616.575 761.8875,616.8375 Q761.05,617.2 760.025,617.2 Q758.825,617.2 757.8625,616.725 Q757.0875,616.35 756.5438,615.5375 Q756,614.725 756,613.7625 L756,612.8875 Q756,611.8875 756.4813,611.0125 Q756.9625,610.1375 757.8063,609.6688 Q758.65,609.2 759.6,609.2 Q760.175,609.2 760.675,609.4 Q761.175,609.6 761.6,610 Z "/><text fill="#000000" font-family="sans-serif" font-size="9.6" lengthAdjust="spacingAndGlyphs" textLength="99.2" x="771.2" y="616.7281">DataRepositoryFactory</text><!--class EventDTO--><rect fill="#FEFECE" height="25.6" id="EventDTO" style="stroke: #A80036; stroke-width: 1.2000000178813934;" width="69.6" x="576.8" y="149.6"/><ellipse cx="588.8" cy="162.4" fill="#ADD1B2" rx="8.8" ry="8.8" style="stroke: #A80036; stroke-width: 0.800000011920929;"/><path d="M590.4,159.6 Q590.5625,159.2 590.75,159 Q590.9375,158.8 591.15,158.8 Q591.525,158.8 591.7625,159.025 Q592,159.25 592,159.775 L592,161.025 Q592,161.55 591.775,161.775 Q591.55,162 591.2,162 Q590.8875,162 590.6875,161.8625 Q590.4875,161.725 590.4,161.3625 Q590.3625,161.1125 590.225,160.975 Q589.975,160.7125 589.525,160.5563 Q589.075,160.4 588.625,160.4 Q588.0625,160.4 587.5938,160.625 Q587.125,160.85 586.7625,161.35 Q586.4,161.85 586.4,162.5375 L586.4,163.275 Q586.4,164.1 587.075,164.65 Q587.75,165.2 588.95,165.2 Q589.6625,165.2 590.1625,165.0375 Q590.45,164.95 590.775,164.6625 Q590.9875,164.5 591.1,164.45 Q591.2125,164.4 591.35,164.4 Q591.6125,164.4 591.8063,164.6063 Q592,164.8125 592,165.1 Q592,165.375 591.725,165.7 Q591.325,166.175 590.6875,166.4375 Q589.85,166.8 588.825,166.8 Q587.625,166.8 586.6625,166.325 Q585.8875,165.95 585.3438,165.1375 Q584.8,164.325 584.8,163.3625 L584.8,162.4875 Q584.8,161.4875 585.2813,160.6125 Q585.7625,159.7375 586.6063,159.2688 Q587.45,158.8 588.4,158.8 Q588.975,158.8 589.475,159 Q589.975,159.2 590.4,159.6 Z "/><text fill="#000000" font-family="sans-serif" font-size="9.6" lengthAdjust="spacingAndGlyphs" textLength="44" x="600" y="166.3281">EventDTO</text><!--class CompanyDTO--><rect fill="#FEFECE" height="25.6" id="CompanyDTO" style="stroke: #A80036; stroke-width: 1.2000000178813934;" width="88" x="567.6" y="96"/><ellipse cx="579.6" cy="108.8" fill="#ADD1B2" rx="8.8" ry="8.8" style="stroke: #A80036; stroke-width: 0.800000011920929;"/><path d="M581.2,106 Q581.3625,105.6 581.55,105.4 Q581.7375,105.2 581.95,105.2 Q582.325,105.2 582.5625,105.425 Q582.8,105.65 582.8,106.175 L582.8,107.425 Q582.8,107.95 582.575,108.175 Q582.35,108.4 582,108.4 Q581.6875,108.4 581.4875,108.2625 Q581.2875,108.125 581.2,107.7625 Q581.1625,107.5125 581.025,107.375 Q580.775,107.1125 580.325,106.9563 Q579.875,106.8 579.425,106.8 Q578.8625,106.8 578.3938,107.025 Q577.925,107.25 577.5625,107.75 Q577.2,108.25 577.2,108.9375 L577.2,109.675 Q577.2,110.5 577.875,111.05 Q578.55,111.6 579.75,111.6 Q580.4625,111.6 580.9625,111.4375 Q581.25,111.35 581.575,111.0625 Q581.7875,110.9 581.9,110.85 Q582.0125,110.8 582.15,110.8 Q582.4125,110.8 582.6063,111.0063 Q582.8,111.2125 582.8,111.5 Q582.8,111.775 582.525,112.1 Q582.125,112.575 581.4875,112.8375 Q580.65,113.2 579.625,113.2 Q578.425,113.2 577.4625,112.725 Q576.6875,112.35 576.1438,111.5375 Q575.6,110.725 575.6,109.7625 L575.6,108.8875 Q575.6,107.8875 576.0813,107.0125 Q576.5625,106.1375 577.4063,105.6688 Q578.25,105.2 579.2,105.2 Q579.775,105.2 580.275,105.4 Q580.775,105.6 581.2,106 Z "/><text fill="#000000" font-family="sans-serif" font-size="9.6" lengthAdjust="spacingAndGlyphs" textLength="62.4" x="590.8" y="112.7281">CompanyDTO</text><!--class CoderDTO--><rect fill="#FEFECE" height="25.6" id="CoderDTO" style="stroke: #A80036; stroke-width: 1.2000000178813934;" width="72.8" x="774" y="149.6"/><ellipse cx="786" cy="162.4" fill="#ADD1B2" rx="8.8" ry="8.8" style="stroke: #A80036; stroke-width: 0.800000011920929;"/><path d="M787.6,159.6 Q787.7625,159.2 787.95,159 Q788.1375,158.8 788.35,158.8 Q788.725,158.8 788.9625,159.025 Q789.2,159.25 789.2,159.775 L789.2,161.025 Q789.2,161.55 788.975,161.775 Q788.75,162 788.4,162 Q788.0875,162 787.8875,161.8625 Q787.6875,161.725 787.6,161.3625 Q787.5625,161.1125 787.425,160.975 Q787.175,160.7125 786.725,160.5563 Q786.275,160.4 785.825,160.4 Q785.2625,160.4 784.7938,160.625 Q784.325,160.85 783.9625,161.35 Q783.6,161.85 783.6,162.5375 L783.6,163.275 Q783.6,164.1 784.275,164.65 Q784.95,165.2 786.15,165.2 Q786.8625,165.2 787.3625,165.0375 Q787.65,164.95 787.975,164.6625 Q788.1875,164.5 788.3,164.45 Q788.4125,164.4 788.55,164.4 Q788.8125,164.4 789.0063,164.6063 Q789.2,164.8125 789.2,165.1 Q789.2,165.375 788.925,165.7 Q788.525,166.175 787.8875,166.4375 Q787.05,166.8 786.025,166.8 Q784.825,166.8 783.8625,166.325 Q783.0875,165.95 782.5438,165.1375 Q782,164.325 782,163.3625 L782,162.4875 Q782,161.4875 782.4813,160.6125 Q782.9625,159.7375 783.8063,159.2688 Q784.65,158.8 785.6,158.8 Q786.175,158.8 786.675,159 Q787.175,159.2 787.6,159.6 Z "/><text fill="#000000" font-family="sans-serif" font-size="9.6" lengthAdjust="spacingAndGlyphs" textLength="47.2" x="797.2" y="166.3281">CoderDTO</text><!--class Coder--><rect fill="#FEFECE" height="25.6" id="Coder" style="stroke: #A80036; stroke-width: 1.2000000178813934;" width="52.8" x="364.8" y="558.4"/><ellipse cx="376.8" cy="571.2" fill="#ADD1B2" rx="8.8" ry="8.8" style="stroke: #A80036; stroke-width: 0.800000011920929;"/><path d="M378.4,568.4 Q378.5625,568 378.75,567.8 Q378.9375,567.6 379.15,567.6 Q379.525,567.6 379.7625,567.825 Q380,568.05 380,568.575 L380,569.825 Q380,570.35 379.775,570.575 Q379.55,570.8 379.2,570.8 Q378.8875,570.8 378.6875,570.6625 Q378.4875,570.525 378.4,570.1625 Q378.3625,569.9125 378.225,569.775 Q377.975,569.5125 377.525,569.3563 Q377.075,569.2 376.625,569.2 Q376.0625,569.2 375.5938,569.425 Q375.125,569.65 374.7625,570.15 Q374.4,570.65 374.4,571.3375 L374.4,572.075 Q374.4,572.9 375.075,573.45 Q375.75,574 376.95,574 Q377.6625,574 378.1625,573.8375 Q378.45,573.75 378.775,573.4625 Q378.9875,573.3 379.1,573.25 Q379.2125,573.2 379.35,573.2 Q379.6125,573.2 379.8063,573.4063 Q380,573.6125 380,573.9 Q380,574.175 379.725,574.5 Q379.325,574.975 378.6875,575.2375 Q377.85,575.6 376.825,575.6 Q375.625,575.6 374.6625,575.125 Q373.8875,574.75 373.3438,573.9375 Q372.8,573.125 372.8,572.1625 L372.8,571.2875 Q372.8,570.2875 373.2813,569.4125 Q373.7625,568.5375 374.6063,568.0688 Q375.45,567.6 376.4,567.6 Q376.975,567.6 377.475,567.8 Q377.975,568 378.4,568.4 Z "/><text fill="#000000" font-family="sans-serif" font-size="9.6" lengthAdjust="spacingAndGlyphs" textLength="27.2" x="388" y="575.1281">Coder</text><!--class Company--><rect fill="#FEFECE" height="25.6" id="Company" style="stroke: #A80036; stroke-width: 1.2000000178813934;" width="68" x="102.8" y="492"/><ellipse cx="114.8" cy="504.8" fill="#ADD1B2" rx="8.8" ry="8.8" style="stroke: #A80036; stroke-width: 0.800000011920929;"/><path d="M116.4,502 Q116.5625,501.6 116.75,501.4 Q116.9375,501.2 117.15,501.2 Q117.525,501.2 117.7625,501.425 Q118,501.65 118,502.175 L118,503.425 Q118,503.95 117.775,504.175 Q117.55,504.4 117.2,504.4 Q116.8875,504.4 116.6875,504.2625 Q116.4875,504.125 116.4,503.7625 Q116.3625,503.5125 116.225,503.375 Q115.975,503.1125 115.525,502.9563 Q115.075,502.8 114.625,502.8 Q114.0625,502.8 113.5938,503.025 Q113.125,503.25 112.7625,503.75 Q112.4,504.25 112.4,504.9375 L112.4,505.675 Q112.4,506.5 113.075,507.05 Q113.75,507.6 114.95,507.6 Q115.6625,507.6 116.1625,507.4375 Q116.45,507.35 116.775,507.0625 Q116.9875,506.9 117.1,506.85 Q117.2125,506.8 117.35,506.8 Q117.6125,506.8 117.8063,507.0063 Q118,507.2125 118,507.5 Q118,507.775 117.725,508.1 Q117.325,508.575 116.6875,508.8375 Q115.85,509.2 114.825,509.2 Q113.625,509.2 112.6625,508.725 Q111.8875,508.35 111.3438,507.5375 Q110.8,506.725 110.8,505.7625 L110.8,504.8875 Q110.8,503.8875 111.2813,503.0125 Q111.7625,502.1375 112.6063,501.6688 Q113.45,501.2 114.4,501.2 Q114.975,501.2 115.475,501.4 Q115.975,501.6 116.4,502 Z "/><text fill="#000000" font-family="sans-serif" font-size="9.6" lengthAdjust="spacingAndGlyphs" textLength="42.4" x="126" y="508.7281">Company</text><!--class Event--><rect fill="#FEFECE" height="25.6" id="Event" style="stroke: #A80036; stroke-width: 1.2000000178813934;" width="49.6" x="366.4" y="490.4"/><ellipse cx="378.4" cy="503.2" fill="#ADD1B2" rx="8.8" ry="8.8" style="stroke: #A80036; stroke-width: 0.800000011920929;"/><path d="M380,500.4 Q380.1625,500 380.35,499.8 Q380.5375,499.6 380.75,499.6 Q381.125,499.6 381.3625,499.825 Q381.6,500.05 381.6,500.575 L381.6,501.825 Q381.6,502.35 381.375,502.575 Q381.15,502.8 380.8,502.8 Q380.4875,502.8 380.2875,502.6625 Q380.0875,502.525 380,502.1625 Q379.9625,501.9125 379.825,501.775 Q379.575,501.5125 379.125,501.3563 Q378.675,501.2 378.225,501.2 Q377.6625,501.2 377.1938,501.425 Q376.725,501.65 376.3625,502.15 Q376,502.65 376,503.3375 L376,504.075 Q376,504.9 376.675,505.45 Q377.35,506 378.55,506 Q379.2625,506 379.7625,505.8375 Q380.05,505.75 380.375,505.4625 Q380.5875,505.3 380.7,505.25 Q380.8125,505.2 380.95,505.2 Q381.2125,505.2 381.4063,505.4063 Q381.6,505.6125 381.6,505.9 Q381.6,506.175 381.325,506.5 Q380.925,506.975 380.2875,507.2375 Q379.45,507.6 378.425,507.6 Q377.225,507.6 376.2625,507.125 Q375.4875,506.75 374.9438,505.9375 Q374.4,505.125 374.4,504.1625 L374.4,503.2875 Q374.4,502.2875 374.8813,501.4125 Q375.3625,500.5375 376.2063,500.0688 Q377.05,499.6 378,499.6 Q378.575,499.6 379.075,499.8 Q379.575,500 380,500.4 Z "/><text fill="#000000" font-family="sans-serif" font-size="9.6" lengthAdjust="spacingAndGlyphs" textLength="24" x="389.6" y="507.1281">Event</text><!--link UserDetailsService to CoderManagementService--><path d="M459.968,293.4504 C491.7144,301.2272 528.9232,310.3424 558.4408,317.5736 " fill="none" id="UserDetailsService-CoderManagementService" style="stroke: #A80036; stroke-width: 0.800000011920929; stroke-dasharray: 7.0,7.0;"/><polygon fill="none" points="458.616,298.8848,444.408,289.6384,461.2808,288.0064,458.616,298.8848" style="stroke: #A80036; stroke-width: 0.800000011920929;"/><!--link UserDetailsService to CompanyManagementService--><path d="M462.3136,276.8 C484.7816,276.8 509.7824,276.8 532.7648,276.8 " fill="none" id="UserDetailsService-CompanyManagementService" style="stroke: #A80036; stroke-width: 0.800000011920929; stroke-dasharray: 7.0,7.0;"/><polygon fill="none" points="462.0856,282.4,446.0856,276.8,462.0856,271.2,462.0856,282.4" style="stroke: #A80036; stroke-width: 0.800000011920929;"/><!--link CoderRepository to DataCoderRepository--><path d="M677.9528,559.2 C701.124,559.2 727.0488,559.2 749.7248,559.2 " fill="none" id="CoderRepository-DataCoderRepository" style="stroke: #A80036; stroke-width: 0.800000011920929; stroke-dasharray: 7.0,7.0;"/><polygon fill="none" points="677.6536,564.8,661.6528,559.2,677.6528,553.6,677.6536,564.8" style="stroke: #A80036; stroke-width: 0.800000011920929;"/><!--link CompanyRepository to DataCompanyRepository--><path d="M685.8384,505.6 C704.2576,505.6 723.9312,505.6 742.048,505.6 " fill="none" id="CompanyRepository-DataCompanyRepository" style="stroke: #A80036; stroke-width: 0.800000011920929; stroke-dasharray: 7.0,7.0;"/><polygon fill="none" points="685.7032,511.2,669.7032,505.6,685.7032,500,685.7032,511.2" style="stroke: #A80036; stroke-width: 0.800000011920929;"/><!--link EventRepository to DataEventRepository--><path d="M676.6968,452 C700.7256,452 727.86,452 751.3168,452 " fill="none" id="EventRepository-DataEventRepository" style="stroke: #A80036; stroke-width: 0.800000011920929; stroke-dasharray: 7.0,7.0;"/><polygon fill="none" points="676.6408,457.6,660.6408,452,676.6408,446.4,676.6408,457.6" style="stroke: #A80036; stroke-width: 0.800000011920929;"/><!--link RepositoryFactory to DataRepositoryFactory--><path d="M680.4584,612.8 C702.38,612.8 726.5376,612.8 747.9696,612.8 " fill="none" id="RepositoryFactory-DataRepositoryFactory" style="stroke: #A80036; stroke-width: 0.800000011920929; stroke-dasharray: 7.0,7.0;"/><polygon fill="none" points="680.212,618.3999,664.212,612.8,680.212,607.2,680.212,618.3999" style="stroke: #A80036; stroke-width: 0.800000011920929;"/><!--link rest_controller to dto--><path d="M457.1102,147.1369 C457.2405,147.1798 457.3707,147.223 457.5009,147.2663 C461.665,148.6528 465.7332,150.2226 469.6,152 C493.0616,162.784 491.5496,177.6368 515.2,188 C524.8974,192.2492 535.6116,195.3276 546.2549,197.554 C546.9201,197.6931 547.585,197.829 548.2494,197.9615 " fill="none" id="rest_controller-dto" style="stroke: #A80036; stroke-width: 0.800000011920929; stroke-dasharray: 7.0,7.0;"/><polygon fill="#A80036" points="548.2494,197.9615,541.8148,193.4145,544.3267,197.1788,540.5624,199.6907,548.2494,197.9615" style="stroke: #A80036; stroke-width: 0.800000011920929;"/><text fill="#000000" font-family="sans-serif" font-size="10.4" lengthAdjust="spacingAndGlyphs" textLength="22.4" x="485.6" y="160.3961">uses</text><!--link NotEnoughPlacesException to EventManagementService--><path d="M215.172,311.5464 C249.124,315.1992 288.6304,319.4504 321.528,322.9896 " fill="none" id="NotEnoughPlacesException-EventManagementService" style="stroke: #A80036; stroke-width: 0.800000011920929; stroke-dasharray: 7.0,7.0;"/><polygon fill="#A80036" points="211.06,311.104,217.8768,315.055,215.0371,311.5314,218.5607,308.6917,211.06,311.104" style="stroke: #A80036; stroke-width: 0.800000011920929;"/><text fill="#000000" font-family="sans-serif" font-size="10.4" lengthAdjust="spacingAndGlyphs" textLength="43.2" x="251.2" y="312.3961">&lt;throws&gt;</text><!--link NotEnoughPermissionsException to EventManagementService--><path d="M228.3184,359.0648 C250.5296,358.6184 274.184,357.2976 296,354.4 C313.5176,352.0728 332.4632,347.6472 348.7528,343.2232 " fill="none" id="NotEnoughPermissionsException-EventManagementService" style="stroke: #A80036; stroke-width: 0.800000011920929; stroke-dasharray: 7.0,7.0;"/><polygon fill="#A80036" points="224.188,359.1384,231.4436,362.2104,228.1874,359.0676,231.3302,355.8114,224.188,359.1384" style="stroke: #A80036; stroke-width: 0.800000011920929;"/><text fill="#000000" font-family="sans-serif" font-size="10.4" lengthAdjust="spacingAndGlyphs" textLength="43.2" x="251.2" y="351.5961">&lt;throws&gt;</text><!--link EventManagementService to RepositoryFactory--><path d="M404.5144,352.6424 C420.3984,381.1992 448.2936,432.4608 469.6,477.6 C491.9808,525.0144 475.84,551.7616 515.2,586.4 C527.3504,597.0928 543.4672,603.4928 558.9992,607.3104 " fill="none" id="EventManagementService-RepositoryFactory" style="stroke: #A80036; stroke-width: 0.800000011920929;"/><polygon fill="#FFFFFF" points="399.2408,343.2016,398.7882,348.9527,403.9229,351.5824,404.3754,345.8313,399.2408,343.2016" style="stroke: #A80036; stroke-width: 0.800000011920929;"/><!--link CoderManagementService to RepositoryFactory--><path d="M579.8688,348.856 C550.9536,367.7016 510.1352,399.9 492.4,440.4 C468.8664,494.14 463.7568,521.2008 492.4,572.4 C505.5216,595.8552 533.552,606.0984 559.1352,610.4098 " fill="none" id="CoderManagementService-RepositoryFactory" style="stroke: #A80036; stroke-width: 0.800000011920929;"/><polygon fill="#FFFFFF" points="588.7944,343.2128,583.0272,343.0734,580.6803,348.3433,586.4475,348.4827,588.7944,343.2128" style="stroke: #A80036; stroke-width: 0.800000011920929;"/><!--link CompanyManagementService to RepositoryFactory--><path d="M522.8904,290.768 C510.2984,296.932 499.3,305.6656 492.4,318 C464.7984,367.3376 464.7984,523.0624 492.4,572.4 C505.5216,595.8552 533.552,606.0984 559.1352,610.4098 " fill="none" id="CompanyManagementService-RepositoryFactory" style="stroke: #A80036; stroke-width: 0.800000011920929;"/><polygon fill="#FFFFFF" points="532.788,286.5376,527.1167,285.4813,523.9603,290.3101,529.6316,291.3664,532.788,286.5376" style="stroke: #A80036; stroke-width: 0.800000011920929;"/><!--link DataRepositoryFactory to DataCompanyRepository--><path d="M738.3744,599.1792 C727.6456,593.2 719.2152,584.6392 716.4,572.4 C712.3968,554.9968 709.6632,544.4472 723.2,532.8 C730.172,526.8008 738.4616,522.124 747.112,518.4784 " fill="none" id="DataRepositoryFactory-DataCompanyRepository" style="stroke: #A80036; stroke-width: 0.800000011920929;"/><polygon fill="#FFFFFF" points="747.8544,603.62,744.8649,598.6861,739.1608,599.548,742.1503,604.4819,747.8544,603.62" style="stroke: #A80036; stroke-width: 0.800000011920929;"/><!--link DataRepositoryFactory to DataCoderRepository--><path d="M810.4,589.2504 C810.4,583.5704 810.4,577.8904 810.4,572.2104 " fill="none" id="DataRepositoryFactory-DataCoderRepository" style="stroke: #A80036; stroke-width: 0.800000011920929;"/><polygon fill="#FFFFFF" points="810.4,599.8184,813.6,595.0184,810.4,590.2184,807.2,595.0184,810.4,599.8184" style="stroke: #A80036; stroke-width: 0.800000011920929;"/><!--link DataRepositoryFactory to DataEventRepository--><path d="M738.3744,599.1792 C727.6456,593.2 719.2152,584.6392 716.4,572.4 C711.7448,552.1624 707.4584,492.744 723.2,479.2 C731.3144,472.2184 741.212,467.0272 751.388,463.1688 " fill="none" id="DataRepositoryFactory-DataEventRepository" style="stroke: #A80036; stroke-width: 0.800000011920929;"/><polygon fill="#FFFFFF" points="747.8544,603.62,744.8649,598.6861,739.1608,599.548,742.1503,604.4819,747.8544,603.62" style="stroke: #A80036; stroke-width: 0.800000011920929;"/><!--link EventController to CoderManagementService--><path d="M414.3504,197.4728 C438.948,219.9184 478.952,258.16 508.8,295.2 C511.8344,298.9656 511.224,301.2464 515.2,304 C523.3392,309.6368 532.6448,314.0736 542.1832,317.5648 " fill="none" id="EventController-CoderManagementService" style="stroke: #A80036; stroke-width: 0.800000011920929;"/><polygon fill="#FFFFFF" points="406.6368,190.4912,408.0485,196.0847,413.7547,196.9329,412.343,191.3394,406.6368,190.4912" style="stroke: #A80036; stroke-width: 0.800000011920929;"/><!--link EventController to EventManagementService--><path d="M348.2152,194.788 C304.8504,214.812 247.6368,250.2624 272.8,290 C283.6064,307.0648 302.1864,317.0632 321.4672,322.8768 " fill="none" id="EventController-EventManagementService" style="stroke: #A80036; stroke-width: 0.800000011920929;"/><polygon fill="#FFFFFF" points="357.7752,190.5144,352.0872,189.552,349.0111,194.4323,354.6991,195.3947,357.7752,190.5144" style="stroke: #A80036; stroke-width: 0.800000011920929;"/><!--link EventController to CompanyManagementService--><path d="M430.2232,194.852 C453.0384,205.156 482.5832,218.5112 508.8,230.4 C533.7824,241.7288 562.188,254.6544 582.6672,263.9808 " fill="none" id="EventController-CompanyManagementService" style="stroke: #A80036; stroke-width: 0.800000011920929;"/><polygon fill="#FFFFFF" points="420.5688,190.492,423.6264,195.3839,429.3181,194.443,426.2604,189.5511,420.5688,190.492" style="stroke: #A80036; stroke-width: 0.800000011920929;"/><!--link Company to Event--><path d="M181.4432,504.5224 C234.9544,504.184 323.556,503.6232 366.1136,503.3536 " fill="none" id="Company-Event" style="stroke: #A80036; stroke-width: 0.800000011920929;"/><polygon fill="#A80036" points="170.9088,504.5888,175.7291,507.7581,180.5086,504.5276,175.6883,501.3583,170.9088,504.5888" style="stroke: #A80036; stroke-width: 0.800000011920929;"/><text fill="#000000" font-family="sans-serif" font-size="10.4" lengthAdjust="spacingAndGlyphs" textLength="44.8" x="250.4" y="500.3961">organizes</text><text fill="#000000" font-family="sans-serif" font-size="10.4" lengthAdjust="spacingAndGlyphs" textLength="5.6" x="177.2525" y="516.4728">1</text><text fill="#000000" font-family="sans-serif" font-size="10.4" lengthAdjust="spacingAndGlyphs" textLength="4" x="355.8499" y="515.6977">*</text><!--link Coder to Event--><path d="M391.2,558.0888 C391.2,545.9704 391.2,528.0712 391.2,516.04 " fill="none" id="Coder-Event" style="stroke: #A80036; stroke-width: 0.800000011920929;"/><text fill="#000000" font-family="sans-serif" font-size="10.4" lengthAdjust="spacingAndGlyphs" textLength="53.6" x="354.8" y="541.5961">participates</text><text fill="#000000" font-family="sans-serif" font-size="10.4" lengthAdjust="spacingAndGlyphs" textLength="5.6" x="384.6725" y="549.6684">1</text><text fill="#000000" font-family="sans-serif" font-size="10.4" lengthAdjust="spacingAndGlyphs" textLength="4" x="386.5375" y="533.2559">*</text><!--link EventDTO to CompanyDTO--><!--link EventDTO to CoderDTO--><!--
@startuml
hide members
hide methods
'hide circle
'skinparam monochrome true
skinparam shadowing false
skinparam classAttributeIconSize 0
left to right direction
skinparam dpi 600
package server {



    package rest_controller {
        class EventController
    }


    package service {
        class CoderManagementService implements UserDetailsService
        class CompanyManagementService implements UserDetailsService
        class EventManagementService
    }


    package exceptions {
        class NotEnoughPlacesException
        class NotEnoughPermissionsException
    }

    package repository {
        package api {
            interface CoderRepository
            interface CompanyRepository
            interface EventRepository
            interface RepositoryFactory
        }

    package data {
        class DataCoderRepository implements CoderRepository
        class DataCompanyRepository implements CompanyRepository
        class DataEventRepository implements EventRepository
        class DataRepositoryFactory implements RepositoryFactory
    }
}

    package dto {
        class EventDTO
        class CompanyDTO
        class CoderDTO
    }

    package model {
        class Coder
        class Company
        class Event
    }

}

rest_controller -.> dto : uses
'service <-. rest_controller : uses

'repository <-. service : uses
NotEnoughPlacesException <-. EventManagementService : <throws>
NotEnoughPermissionsException <-. EventManagementService : <throws>

EventManagementService o- RepositoryFactory
CoderManagementService o- RepositoryFactory
CompanyManagementService o- RepositoryFactory

DataRepositoryFactory o- DataCompanyRepository
DataRepositoryFactory o- DataCoderRepository
DataRepositoryFactory o- DataEventRepository

EventController o- -CoderManagementService
EventController o- EventManagementService
EventController o- CompanyManagementService
Company "1" *- - "*" Event : organizes
Coder "1" - "*" Event : participates


class EventController {
    +void addEvent(event : EventDTO)
    +void joinEvent(coderId, eventId)
    +List<CoderDTO> getParticipantsForEvent(conpanyId, eventId)
    +List<EventDTO> listAllEvents()
}

class CoderManagementService {
    +loadUserByUsername(username)
}

class CompanyManagementService {
    +loadUserByUsername(username)
}

class EventManagementService {
    +addEvent(companyId, eventName, dateOfEvent, address, maxNrOfParticipants)
    +joinEvent(coderId, eventId)
    +getParticipantsForEvent(companyId, eventId)
    +listAllEvents()
}

interface RepositoryFactory {
    {abstract} +getCoderRepository()
    {abstract} +getCompanyRepository()
    {abstract} +getEventRepository()
}

interface CoderRepository {
    {abstract} +findAllParticipatingEvents(coderId)
}

interface CompanyRepository {
    {abstract} +findAllOrganisingEvents(companyId)
    {abstract} +findAllParticipantsForEvent(eventId)
}

interface EventRepository {
    {abstract} +findById(eventId)
    {abstract} +findAll()
}

class Coder{
    -id: int
    -firstName : String
    -lastName : String
    -email : String
    -linkedin : String
    -username : String
    -password : String
}

class Company{
    -id : int
    -name : String
    -address : String
    -email : String
    -website : String
    -username : String
    -password : String
}

class Event{
    -name : String
    -dateOfEvent : LocalDateTime
    -address : String
    -maxNrOfParticipants : int
    -organiser : Company
    -participants : List<Coder>
}

@enduml

PlantUML version 1.2017.15(Mon Jul 03 19:45:34 EEST 2017)
(GPL source distribution)
Java Runtime: OpenJDK Runtime Environment
JVM: OpenJDK 64-Bit Server VM
Java Version: 1.8.0_152-release-1343-b28
Operating System: Windows 8.1
OS Version: 6.3
Default Encoding: Cp1252
Language: en
Country: US
--></g></svg>