<?xml version="1.0" encoding="UTF-8" standalone="no"?><svg xmlns="http://www.w3.org/2000/svg" xmlns:xlink="http://www.w3.org/1999/xlink" contentScriptType="application/ecmascript" contentStyleType="text/css" height="923.2px" preserveAspectRatio="none" style="width:1149px;height:923px;" version="1.1" viewBox="0 0 1149 923" width="1149.6px" zoomAndPan="magnify"><defs/><g><!--cluster server--><polygon fill="#FFFFFF" points="17.6,19.2,60,19.2,65.6,38.0875,1132,38.0875,1132,913.6,17.6,913.6,17.6,19.2" style="stroke: #000000; stroke-width: 1.600000023841858;"/><line style="stroke: #000000; stroke-width: 1.600000023841858;" x1="17.6" x2="65.6" y1="38.0875" y2="38.0875"/><text fill="#000000" font-family="sans-serif" font-size="11.2" font-weight="bold" lengthAdjust="spacingAndGlyphs" textLength="37.6" x="20.8" y="32.4266">server</text><!--cluster rest_controller--><polygon fill="#FFFFFF" points="337.2,82.4,426,82.4,431.6,101.2875,626,101.2875,626,235.2,337.2,235.2,337.2,82.4" style="stroke: #000000; stroke-width: 1.600000023841858;"/><line style="stroke: #000000; stroke-width: 1.600000023841858;" x1="337.2" x2="431.6" y1="101.2875" y2="101.2875"/><text fill="#000000" font-family="sans-serif" font-size="11.2" font-weight="bold" lengthAdjust="spacingAndGlyphs" textLength="84" x="340.4" y="95.6266">rest_controller</text><!--cluster service--><polygon fill="#FFFFFF" points="308.8,260.8,356,260.8,361.6,279.6875,905.2,279.6875,905.2,452,308.8,452,308.8,260.8" style="stroke: #000000; stroke-width: 1.600000023841858;"/><line style="stroke: #000000; stroke-width: 1.600000023841858;" x1="308.8" x2="361.6" y1="279.6875" y2="279.6875"/><text fill="#000000" font-family="sans-serif" font-size="11.2" font-weight="bold" lengthAdjust="spacingAndGlyphs" textLength="42.4" x="312" y="274.0266">service</text><!--cluster exceptions--><polygon fill="#FFFFFF" points="36.8,327.2,104,327.2,109.6,346.0875,236.8,346.0875,236.8,473.6,36.8,473.6,36.8,327.2" style="stroke: #000000; stroke-width: 1.600000023841858;"/><line style="stroke: #000000; stroke-width: 1.600000023841858;" x1="36.8" x2="109.6" y1="346.0875" y2="346.0875"/><text fill="#000000" font-family="sans-serif" font-size="11.2" font-weight="bold" lengthAdjust="spacingAndGlyphs" textLength="62.4" x="40" y="340.4266">exceptions</text><!--cluster repository--><polygon fill="#FFFFFF" points="702.4,471.2,764.8,471.2,770.4,490.0875,1112.8,490.0875,1112.8,894.4,702.4,894.4,702.4,471.2" style="stroke: #000000; stroke-width: 1.600000023841858;"/><line style="stroke: #000000; stroke-width: 1.600000023841858;" x1="702.4" x2="770.4" y1="490.0875" y2="490.0875"/><text fill="#000000" font-family="sans-serif" font-size="11.2" font-weight="bold" lengthAdjust="spacingAndGlyphs" textLength="57.6" x="705.6" y="484.4266">repository</text><!--cluster api--><polygon fill="#FFFFFF" points="721.6,506.4,743.2,506.4,748.8,525.2875,905.6,525.2875,905.6,875.2,721.6,875.2,721.6,506.4" style="stroke: #000000; stroke-width: 1.600000023841858;"/><line style="stroke: #000000; stroke-width: 1.600000023841858;" x1="721.6" x2="748.8" y1="525.2875" y2="525.2875"/><text fill="#000000" font-family="sans-serif" font-size="11.2" font-weight="bold" lengthAdjust="spacingAndGlyphs" textLength="16.8" x="724.8" y="519.6266">api</text><!--cluster data--><polygon fill="#FFFFFF" points="932,546.4,960.8,546.4,966.4,565.2875,1093.6,565.2875,1093.6,825.6,932,825.6,932,546.4" style="stroke: #000000; stroke-width: 1.600000023841858;"/><line style="stroke: #000000; stroke-width: 1.600000023841858;" x1="932" x2="966.4" y1="565.2875" y2="565.2875"/><text fill="#000000" font-family="sans-serif" font-size="11.2" font-weight="bold" lengthAdjust="spacingAndGlyphs" textLength="24" x="935.2" y="559.6266">data</text><!--cluster dto--><polygon fill="#FFFFFF" points="750.4,60.8,773.6,60.8,779.2,79.6875,1068.4,79.6875,1068.4,235.2,750.4,235.2,750.4,60.8" style="stroke: #000000; stroke-width: 1.600000023841858;"/><line style="stroke: #000000; stroke-width: 1.600000023841858;" x1="750.4" x2="779.2" y1="79.6875" y2="79.6875"/><text fill="#000000" font-family="sans-serif" font-size="11.2" font-weight="bold" lengthAdjust="spacingAndGlyphs" textLength="18.4" x="753.6" y="74.0266">dto</text><!--cluster model--><polygon fill="#FFFFFF" points="82.8,540.8,122,540.8,127.6,559.6875,556.4,559.6875,556.4,846.4,82.8,846.4,82.8,540.8" style="stroke: #000000; stroke-width: 1.600000023841858;"/><line style="stroke: #000000; stroke-width: 1.600000023841858;" x1="82.8" x2="127.6" y1="559.6875" y2="559.6875"/><text fill="#000000" font-family="sans-serif" font-size="11.2" font-weight="bold" lengthAdjust="spacingAndGlyphs" textLength="34.4" x="86" y="554.0266">model</text><!--class EventController--><rect fill="#FEFECE" height="82.675" id="EventController" style="stroke: #A80036; stroke-width: 1.2000000178813934;" width="250.4" x="356.4" y="133.2"/><ellipse cx="444.6" cy="146" fill="#ADD1B2" rx="8.8" ry="8.8" style="stroke: #A80036; stroke-width: 0.800000011920929;"/><path d="M446.2,143.2 Q446.3625,142.8 446.55,142.6 Q446.7375,142.4 446.95,142.4 Q447.325,142.4 447.5625,142.625 Q447.8,142.85 447.8,143.375 L447.8,144.625 Q447.8,145.15 447.575,145.375 Q447.35,145.6 447,145.6 Q446.6875,145.6 446.4875,145.4625 Q446.2875,145.325 446.2,144.9625 Q446.1625,144.7125 446.025,144.575 Q445.775,144.3125 445.325,144.1563 Q444.875,144 444.425,144 Q443.8625,144 443.3938,144.225 Q442.925,144.45 442.5625,144.95 Q442.2,145.45 442.2,146.1375 L442.2,146.875 Q442.2,147.7 442.875,148.25 Q443.55,148.8 444.75,148.8 Q445.4625,148.8 445.9625,148.6375 Q446.25,148.55 446.575,148.2625 Q446.7875,148.1 446.9,148.05 Q447.0125,148 447.15,148 Q447.4125,148 447.6063,148.2063 Q447.8,148.4125 447.8,148.7 Q447.8,148.975 447.525,149.3 Q447.125,149.775 446.4875,150.0375 Q445.65,150.4 444.625,150.4 Q443.425,150.4 442.4625,149.925 Q441.6875,149.55 441.1438,148.7375 Q440.6,147.925 440.6,146.9625 L440.6,146.0875 Q440.6,145.0875 441.0813,144.2125 Q441.5625,143.3375 442.4063,142.8688 Q443.25,142.4 444.2,142.4 Q444.775,142.4 445.275,142.6 Q445.775,142.8 446.2,143.2 Z "/><text fill="#000000" font-family="sans-serif" font-size="9.6" lengthAdjust="spacingAndGlyphs" textLength="67.2" x="461" y="149.9281">EventController</text><line style="stroke: #A80036; stroke-width: 1.2000000178813934;" x1="357.2" x2="606" y1="158.8" y2="158.8"/><line style="stroke: #A80036; stroke-width: 1.2000000178813934;" x1="357.2" x2="606" y1="165.2" y2="165.2"/><text fill="#000000" font-family="sans-serif" font-size="8.8" lengthAdjust="spacingAndGlyphs" textLength="132.8" x="361.2" y="177.5352">+void addEvent(event : EventDTO)</text><text fill="#000000" font-family="sans-serif" font-size="8.8" lengthAdjust="spacingAndGlyphs" textLength="125.6" x="361.2" y="188.6039">+void joinEvent(coderId, eventId)</text><text fill="#000000" font-family="sans-serif" font-size="8.8" lengthAdjust="spacingAndGlyphs" textLength="240.8" x="361.2" y="199.6727">+List&lt;CoderDTO&gt; getParticipantsForEvent(conpanyId, eventId)</text><text fill="#000000" font-family="sans-serif" font-size="8.8" lengthAdjust="spacingAndGlyphs" textLength="121.6" x="361.2" y="210.7414">+List&lt;EventDTO&gt; listAllEvents()</text><!--class CoderManagementService--><rect fill="#FEFECE" height="49.4688" id="CoderManagementService" style="stroke: #A80036; stroke-width: 1.2000000178813934;" width="143.2" x="742" y="367.2"/><ellipse cx="754.36" cy="380" fill="#ADD1B2" rx="8.8" ry="8.8" style="stroke: #A80036; stroke-width: 0.800000011920929;"/><path d="M755.96,377.2 Q756.1225,376.8 756.31,376.6 Q756.4975,376.4 756.71,376.4 Q757.085,376.4 757.3225,376.625 Q757.56,376.85 757.56,377.375 L757.56,378.625 Q757.56,379.15 757.335,379.375 Q757.11,379.6 756.76,379.6 Q756.4475,379.6 756.2475,379.4625 Q756.0475,379.325 755.96,378.9625 Q755.9225,378.7125 755.785,378.575 Q755.535,378.3125 755.085,378.1563 Q754.635,378 754.185,378 Q753.6225,378 753.1538,378.225 Q752.685,378.45 752.3225,378.95 Q751.96,379.45 751.96,380.1375 L751.96,380.875 Q751.96,381.7 752.635,382.25 Q753.31,382.8 754.51,382.8 Q755.2225,382.8 755.7225,382.6375 Q756.01,382.55 756.335,382.2625 Q756.5475,382.1 756.66,382.05 Q756.7725,382 756.91,382 Q757.1725,382 757.3663,382.2063 Q757.56,382.4125 757.56,382.7 Q757.56,382.975 757.285,383.3 Q756.885,383.775 756.2475,384.0375 Q755.41,384.4 754.385,384.4 Q753.185,384.4 752.2225,383.925 Q751.4475,383.55 750.9038,382.7375 Q750.36,381.925 750.36,380.9625 L750.36,380.0875 Q750.36,379.0875 750.8413,378.2125 Q751.3225,377.3375 752.1663,376.8688 Q753.01,376.4 753.96,376.4 Q754.535,376.4 755.035,376.6 Q755.535,376.8 755.96,377.2 Z "/><text fill="#000000" font-family="sans-serif" font-size="9.6" lengthAdjust="spacingAndGlyphs" textLength="116.8" x="765.64" y="383.9281">CoderManagementService</text><line style="stroke: #A80036; stroke-width: 1.2000000178813934;" x1="742.8" x2="884.4" y1="392.8" y2="392.8"/><line style="stroke: #A80036; stroke-width: 1.2000000178813934;" x1="742.8" x2="884.4" y1="399.2" y2="399.2"/><text fill="#000000" font-family="sans-serif" font-size="8.8" lengthAdjust="spacingAndGlyphs" textLength="133.6" x="746.8" y="411.5352">+loadUserByUsername(username)</text><!--class UserDetailsService--><rect fill="#FEFECE" height="38.4" id="UserDetailsService" style="stroke: #A80036; stroke-width: 1.2000000178813934;" width="109.6" x="426.8" y="289.6"/><ellipse cx="438.8" cy="302.4" fill="#B4A7E5" rx="8.8" ry="8.8" style="stroke: #A80036; stroke-width: 0.800000011920929;"/><path d="M439.6,300 L439.6,304.8 L441.2,304.8 L441.5875,304.8 L442,305.3 L442,305.6 L442,305.9 L441.5875,306.4 L441.2,306.4 L436.4,306.4 L436.0125,306.4 L435.6,305.9 L435.6,305.6 L435.6,305.3 L436.0125,304.8 L436.4,304.8 L438,304.8 L438,300 L436.4,300 L436.0125,300 L435.6,299.5 L435.6,299.2 L435.6,298.9 L436.0125,298.4 L436.4,298.4 L441.2,298.4 L441.5875,298.4 L442,298.9 L442,299.2 L442,299.5 L441.5875,300 L441.2,300 L439.6,300 Z "/><text fill="#000000" font-family="sans-serif" font-size="9.6" font-style="italic" lengthAdjust="spacingAndGlyphs" textLength="84" x="450" y="306.3281">UserDetailsService</text><line style="stroke: #A80036; stroke-width: 1.2000000178813934;" x1="427.6" x2="535.6" y1="315.2" y2="315.2"/><line style="stroke: #A80036; stroke-width: 1.2000000178813934;" x1="427.6" x2="535.6" y1="321.6" y2="321.6"/><!--class CompanyManagementService--><rect fill="#FEFECE" height="49.4688" id="CompanyManagementService" style="stroke: #A80036; stroke-width: 1.2000000178813934;" width="157.6" x="734.8" y="289.6"/><ellipse cx="746.8" cy="302.4" fill="#ADD1B2" rx="8.8" ry="8.8" style="stroke: #A80036; stroke-width: 0.800000011920929;"/><path d="M748.4,299.6 Q748.5625,299.2 748.75,299 Q748.9375,298.8 749.15,298.8 Q749.525,298.8 749.7625,299.025 Q750,299.25 750,299.775 L750,301.025 Q750,301.55 749.775,301.775 Q749.55,302 749.2,302 Q748.8875,302 748.6875,301.8625 Q748.4875,301.725 748.4,301.3625 Q748.3625,301.1125 748.225,300.975 Q747.975,300.7125 747.525,300.5563 Q747.075,300.4 746.625,300.4 Q746.0625,300.4 745.5938,300.625 Q745.125,300.85 744.7625,301.35 Q744.4,301.85 744.4,302.5375 L744.4,303.275 Q744.4,304.1 745.075,304.65 Q745.75,305.2 746.95,305.2 Q747.6625,305.2 748.1625,305.0375 Q748.45,304.95 748.775,304.6625 Q748.9875,304.5 749.1,304.45 Q749.2125,304.4 749.35,304.4 Q749.6125,304.4 749.8063,304.6063 Q750,304.8125 750,305.1 Q750,305.375 749.725,305.7 Q749.325,306.175 748.6875,306.4375 Q747.85,306.8 746.825,306.8 Q745.625,306.8 744.6625,306.325 Q743.8875,305.95 743.3438,305.1375 Q742.8,304.325 742.8,303.3625 L742.8,302.4875 Q742.8,301.4875 743.2813,300.6125 Q743.7625,299.7375 744.6063,299.2688 Q745.45,298.8 746.4,298.8 Q746.975,298.8 747.475,299 Q747.975,299.2 748.4,299.6 Z "/><text fill="#000000" font-family="sans-serif" font-size="9.6" lengthAdjust="spacingAndGlyphs" textLength="132" x="758" y="306.3281">CompanyManagementService</text><line style="stroke: #A80036; stroke-width: 1.2000000178813934;" x1="735.6" x2="891.6" y1="315.2" y2="315.2"/><line style="stroke: #A80036; stroke-width: 1.2000000178813934;" x1="735.6" x2="891.6" y1="321.6" y2="321.6"/><text fill="#000000" font-family="sans-serif" font-size="8.8" lengthAdjust="spacingAndGlyphs" textLength="133.6" x="739.6" y="333.9352">+loadUserByUsername(username)</text><!--class EventManagementService--><rect fill="#FEFECE" height="82.675" id="EventManagementService" style="stroke: #A80036; stroke-width: 1.2000000178813934;" width="320" x="321.6" y="356.4"/><ellipse cx="421.4" cy="369.2" fill="#ADD1B2" rx="8.8" ry="8.8" style="stroke: #A80036; stroke-width: 0.800000011920929;"/><path d="M423,366.4 Q423.1625,366 423.35,365.8 Q423.5375,365.6 423.75,365.6 Q424.125,365.6 424.3625,365.825 Q424.6,366.05 424.6,366.575 L424.6,367.825 Q424.6,368.35 424.375,368.575 Q424.15,368.8 423.8,368.8 Q423.4875,368.8 423.2875,368.6625 Q423.0875,368.525 423,368.1625 Q422.9625,367.9125 422.825,367.775 Q422.575,367.5125 422.125,367.3563 Q421.675,367.2 421.225,367.2 Q420.6625,367.2 420.1938,367.425 Q419.725,367.65 419.3625,368.15 Q419,368.65 419,369.3375 L419,370.075 Q419,370.9 419.675,371.45 Q420.35,372 421.55,372 Q422.2625,372 422.7625,371.8375 Q423.05,371.75 423.375,371.4625 Q423.5875,371.3 423.7,371.25 Q423.8125,371.2 423.95,371.2 Q424.2125,371.2 424.4063,371.4063 Q424.6,371.6125 424.6,371.9 Q424.6,372.175 424.325,372.5 Q423.925,372.975 423.2875,373.2375 Q422.45,373.6 421.425,373.6 Q420.225,373.6 419.2625,373.125 Q418.4875,372.75 417.9438,371.9375 Q417.4,371.125 417.4,370.1625 L417.4,369.2875 Q417.4,368.2875 417.8813,367.4125 Q418.3625,366.5375 419.2063,366.0688 Q420.05,365.6 421,365.6 Q421.575,365.6 422.075,365.8 Q422.575,366 423,366.4 Z "/><text fill="#000000" font-family="sans-serif" font-size="9.6" lengthAdjust="spacingAndGlyphs" textLength="113.6" x="437.8" y="373.1281">EventManagementService</text><line style="stroke: #A80036; stroke-width: 1.2000000178813934;" x1="322.4" x2="640.8" y1="382" y2="382"/><line style="stroke: #A80036; stroke-width: 1.2000000178813934;" x1="322.4" x2="640.8" y1="388.4" y2="388.4"/><text fill="#000000" font-family="sans-serif" font-size="8.8" lengthAdjust="spacingAndGlyphs" textLength="310.4" x="326.4" y="400.7352">+addEvent(companyId, eventName, dateOfEvent, address, maxNrOfParticipants)</text><text fill="#000000" font-family="sans-serif" font-size="8.8" lengthAdjust="spacingAndGlyphs" textLength="107.2" x="326.4" y="411.8039">+joinEvent(coderId, eventId)</text><text fill="#000000" font-family="sans-serif" font-size="8.8" lengthAdjust="spacingAndGlyphs" textLength="176.8" x="326.4" y="422.8727">+getParticipantsForEvent(companyId, eventId)</text><text fill="#000000" font-family="sans-serif" font-size="8.8" lengthAdjust="spacingAndGlyphs" textLength="57.6" x="326.4" y="433.9414">+listAllEvents()</text><!--class NotEnoughPlacesException--><rect fill="#FEFECE" height="38.4" id="NotEnoughPlacesException" style="stroke: #A80036; stroke-width: 1.2000000178813934;" width="148" x="62.8" y="356"/><ellipse cx="74.8" cy="368.8" fill="#ADD1B2" rx="8.8" ry="8.8" style="stroke: #A80036; stroke-width: 0.800000011920929;"/><path d="M76.4,366 Q76.5625,365.6 76.75,365.4 Q76.9375,365.2 77.15,365.2 Q77.525,365.2 77.7625,365.425 Q78,365.65 78,366.175 L78,367.425 Q78,367.95 77.775,368.175 Q77.55,368.4 77.2,368.4 Q76.8875,368.4 76.6875,368.2625 Q76.4875,368.125 76.4,367.7625 Q76.3625,367.5125 76.225,367.375 Q75.975,367.1125 75.525,366.9563 Q75.075,366.8 74.625,366.8 Q74.0625,366.8 73.5938,367.025 Q73.125,367.25 72.7625,367.75 Q72.4,368.25 72.4,368.9375 L72.4,369.675 Q72.4,370.5 73.075,371.05 Q73.75,371.6 74.95,371.6 Q75.6625,371.6 76.1625,371.4375 Q76.45,371.35 76.775,371.0625 Q76.9875,370.9 77.1,370.85 Q77.2125,370.8 77.35,370.8 Q77.6125,370.8 77.8063,371.0063 Q78,371.2125 78,371.5 Q78,371.775 77.725,372.1 Q77.325,372.575 76.6875,372.8375 Q75.85,373.2 74.825,373.2 Q73.625,373.2 72.6625,372.725 Q71.8875,372.35 71.3438,371.5375 Q70.8,370.725 70.8,369.7625 L70.8,368.8875 Q70.8,367.8875 71.2813,367.0125 Q71.7625,366.1375 72.6063,365.6688 Q73.45,365.2 74.4,365.2 Q74.975,365.2 75.475,365.4 Q75.975,365.6 76.4,366 Z "/><text fill="#000000" font-family="sans-serif" font-size="9.6" lengthAdjust="spacingAndGlyphs" textLength="122.4" x="86" y="372.7281">NotEnoughPlacesException</text><line style="stroke: #A80036; stroke-width: 1.2000000178813934;" x1="63.6" x2="210" y1="381.6" y2="381.6"/><line style="stroke: #A80036; stroke-width: 1.2000000178813934;" x1="63.6" x2="210" y1="388" y2="388"/><!--class NotEnoughPermissionsException--><rect fill="#FEFECE" height="38.4" id="NotEnoughPermissionsException" style="stroke: #A80036; stroke-width: 1.2000000178813934;" width="174.4" x="49.6" y="422.4"/><ellipse cx="61.6" cy="435.2" fill="#ADD1B2" rx="8.8" ry="8.8" style="stroke: #A80036; stroke-width: 0.800000011920929;"/><path d="M63.2,432.4 Q63.3625,432 63.55,431.8 Q63.7375,431.6 63.95,431.6 Q64.325,431.6 64.5625,431.825 Q64.8,432.05 64.8,432.575 L64.8,433.825 Q64.8,434.35 64.575,434.575 Q64.35,434.8 64,434.8 Q63.6875,434.8 63.4875,434.6625 Q63.2875,434.525 63.2,434.1625 Q63.1625,433.9125 63.025,433.775 Q62.775,433.5125 62.325,433.3563 Q61.875,433.2 61.425,433.2 Q60.8625,433.2 60.3938,433.425 Q59.925,433.65 59.5625,434.15 Q59.2,434.65 59.2,435.3375 L59.2,436.075 Q59.2,436.9 59.875,437.45 Q60.55,438 61.75,438 Q62.4625,438 62.9625,437.8375 Q63.25,437.75 63.575,437.4625 Q63.7875,437.3 63.9,437.25 Q64.0125,437.2 64.15,437.2 Q64.4125,437.2 64.6063,437.4063 Q64.8,437.6125 64.8,437.9 Q64.8,438.175 64.525,438.5 Q64.125,438.975 63.4875,439.2375 Q62.65,439.6 61.625,439.6 Q60.425,439.6 59.4625,439.125 Q58.6875,438.75 58.1438,437.9375 Q57.6,437.125 57.6,436.1625 L57.6,435.2875 Q57.6,434.2875 58.0813,433.4125 Q58.5625,432.5375 59.4063,432.0688 Q60.25,431.6 61.2,431.6 Q61.775,431.6 62.275,431.8 Q62.775,432 63.2,432.4 Z "/><text fill="#000000" font-family="sans-serif" font-size="9.6" lengthAdjust="spacingAndGlyphs" textLength="148.8" x="72.8" y="439.1281">NotEnoughPermissionsException</text><line style="stroke: #A80036; stroke-width: 1.2000000178813934;" x1="50.4" x2="223.2" y1="448" y2="448"/><line style="stroke: #A80036; stroke-width: 1.2000000178813934;" x1="50.4" x2="223.2" y1="454.4" y2="454.4"/><!--class CoderRepository--><rect fill="#FEFECE" height="49.4688" id="CoderRepository" style="stroke: #A80036; stroke-width: 1.2000000178813934;" width="151.2" x="738" y="712.8"/><ellipse cx="773.04" cy="725.6" fill="#B4A7E5" rx="8.8" ry="8.8" style="stroke: #A80036; stroke-width: 0.800000011920929;"/><path d="M773.84,723.2 L773.84,728 L775.44,728 L775.8275,728 L776.24,728.5 L776.24,728.8 L776.24,729.1 L775.8275,729.6 L775.44,729.6 L770.64,729.6 L770.2525,729.6 L769.84,729.1 L769.84,728.8 L769.84,728.5 L770.2525,728 L770.64,728 L772.24,728 L772.24,723.2 L770.64,723.2 L770.2525,723.2 L769.84,722.7 L769.84,722.4 L769.84,722.1 L770.2525,721.6 L770.64,721.6 L775.44,721.6 L775.8275,721.6 L776.24,722.1 L776.24,722.4 L776.24,722.7 L775.8275,723.2 L775.44,723.2 L773.84,723.2 Z "/><text fill="#000000" font-family="sans-serif" font-size="9.6" font-style="italic" lengthAdjust="spacingAndGlyphs" textLength="74.4" x="789.36" y="729.5281">CoderRepository</text><line style="stroke: #A80036; stroke-width: 1.2000000178813934;" x1="738.8" x2="888.4" y1="738.4" y2="738.4"/><line style="stroke: #A80036; stroke-width: 1.2000000178813934;" x1="738.8" x2="888.4" y1="744.8" y2="744.8"/><text fill="#000000" font-family="sans-serif" font-size="8.8" font-style="italic" lengthAdjust="spacingAndGlyphs" textLength="141.6" x="742.8" y="757.1352">+findAllParticipatingEvents(coderId)</text><!--class CompanyRepository--><rect fill="#FEFECE" height="60.5375" id="CompanyRepository" style="stroke: #A80036; stroke-width: 1.2000000178813934;" width="158.4" x="734.4" y="624"/><ellipse cx="765.48" cy="636.8" fill="#B4A7E5" rx="8.8" ry="8.8" style="stroke: #A80036; stroke-width: 0.800000011920929;"/><path d="M766.28,634.4 L766.28,639.2 L767.88,639.2 L768.2675,639.2 L768.68,639.7 L768.68,640 L768.68,640.3 L768.2675,640.8 L767.88,640.8 L763.08,640.8 L762.6925,640.8 L762.28,640.3 L762.28,640 L762.28,639.7 L762.6925,639.2 L763.08,639.2 L764.68,639.2 L764.68,634.4 L763.08,634.4 L762.6925,634.4 L762.28,633.9 L762.28,633.6 L762.28,633.3 L762.6925,632.8 L763.08,632.8 L767.88,632.8 L768.2675,632.8 L768.68,633.3 L768.68,633.6 L768.68,633.9 L768.2675,634.4 L767.88,634.4 L766.28,634.4 Z "/><text fill="#000000" font-family="sans-serif" font-size="9.6" font-style="italic" lengthAdjust="spacingAndGlyphs" textLength="90.4" x="780.92" y="640.7281">CompanyRepository</text><line style="stroke: #A80036; stroke-width: 1.2000000178813934;" x1="735.2" x2="892" y1="649.6" y2="649.6"/><line style="stroke: #A80036; stroke-width: 1.2000000178813934;" x1="735.2" x2="892" y1="656" y2="656"/><text fill="#000000" font-family="sans-serif" font-size="8.8" font-style="italic" lengthAdjust="spacingAndGlyphs" textLength="148.8" x="739.2" y="668.3352">+findAllOrganisingEvents(companyId)</text><text fill="#000000" font-family="sans-serif" font-size="8.8" font-style="italic" lengthAdjust="spacingAndGlyphs" textLength="146.4" x="739.2" y="679.4039">+findAllParticipantsForEvent(eventId)</text><!--class EventRepository--><rect fill="#FEFECE" height="60.5375" id="EventRepository" style="stroke: #A80036; stroke-width: 1.2000000178813934;" width="97.6" x="764.8" y="535.2"/><ellipse cx="776.8" cy="548" fill="#B4A7E5" rx="8.8" ry="8.8" style="stroke: #A80036; stroke-width: 0.800000011920929;"/><path d="M777.6,545.6 L777.6,550.4 L779.2,550.4 L779.5875,550.4 L780,550.9 L780,551.2 L780,551.5 L779.5875,552 L779.2,552 L774.4,552 L774.0125,552 L773.6,551.5 L773.6,551.2 L773.6,550.9 L774.0125,550.4 L774.4,550.4 L776,550.4 L776,545.6 L774.4,545.6 L774.0125,545.6 L773.6,545.1 L773.6,544.8 L773.6,544.5 L774.0125,544 L774.4,544 L779.2,544 L779.5875,544 L780,544.5 L780,544.8 L780,545.1 L779.5875,545.6 L779.2,545.6 L777.6,545.6 Z "/><text fill="#000000" font-family="sans-serif" font-size="9.6" font-style="italic" lengthAdjust="spacingAndGlyphs" textLength="72" x="788" y="551.9281">EventRepository</text><line style="stroke: #A80036; stroke-width: 1.2000000178813934;" x1="765.6" x2="861.6" y1="560.8" y2="560.8"/><line style="stroke: #A80036; stroke-width: 1.2000000178813934;" x1="765.6" x2="861.6" y1="567.2" y2="567.2"/><text fill="#000000" font-family="sans-serif" font-size="8.8" font-style="italic" lengthAdjust="spacingAndGlyphs" textLength="70.4" x="769.6" y="579.5352">+findById(eventId)</text><text fill="#000000" font-family="sans-serif" font-size="8.8" font-style="italic" lengthAdjust="spacingAndGlyphs" textLength="36" x="769.6" y="590.6039">+findAll()</text><!--class RepositoryFactory--><rect fill="#FEFECE" height="71.6063" id="RepositoryFactory" style="stroke: #A80036; stroke-width: 1.2000000178813934;" width="112" x="757.6" y="790.4"/><ellipse cx="772.84" cy="803.2" fill="#B4A7E5" rx="8.8" ry="8.8" style="stroke: #A80036; stroke-width: 0.800000011920929;"/><path d="M773.64,800.8 L773.64,805.6 L775.24,805.6 L775.6275,805.6 L776.04,806.1 L776.04,806.4 L776.04,806.7 L775.6275,807.2 L775.24,807.2 L770.44,807.2 L770.0525,807.2 L769.64,806.7 L769.64,806.4 L769.64,806.1 L770.0525,805.6 L770.44,805.6 L772.04,805.6 L772.04,800.8 L770.44,800.8 L770.0525,800.8 L769.64,800.3 L769.64,800 L769.64,799.7 L770.0525,799.2 L770.44,799.2 L775.24,799.2 L775.6275,799.2 L776.04,799.7 L776.04,800 L776.04,800.3 L775.6275,800.8 L775.24,800.8 L773.64,800.8 Z "/><text fill="#000000" font-family="sans-serif" font-size="9.6" font-style="italic" lengthAdjust="spacingAndGlyphs" textLength="79.2" x="784.76" y="807.1281">RepositoryFactory</text><line style="stroke: #A80036; stroke-width: 1.2000000178813934;" x1="758.4" x2="868.8" y1="816" y2="816"/><line style="stroke: #A80036; stroke-width: 1.2000000178813934;" x1="758.4" x2="868.8" y1="822.4" y2="822.4"/><text fill="#000000" font-family="sans-serif" font-size="8.8" font-style="italic" lengthAdjust="spacingAndGlyphs" textLength="89.6" x="762.4" y="834.7352">+getCoderRepository()</text><text fill="#000000" font-family="sans-serif" font-size="8.8" font-style="italic" lengthAdjust="spacingAndGlyphs" textLength="102.4" x="762.4" y="845.8039">+getCompanyRepository()</text><text fill="#000000" font-family="sans-serif" font-size="8.8" font-style="italic" lengthAdjust="spacingAndGlyphs" textLength="87.2" x="762.4" y="856.8727">+getEventRepository()</text><!--class DataCoderRepository--><rect fill="#FEFECE" height="38.4" id="DataCoderRepository" style="stroke: #A80036; stroke-width: 1.2000000178813934;" width="120.8" x="952.4" y="708"/><ellipse cx="964.4" cy="720.8" fill="#ADD1B2" rx="8.8" ry="8.8" style="stroke: #A80036; stroke-width: 0.800000011920929;"/><path d="M966,718 Q966.1625,717.6 966.35,717.4 Q966.5375,717.2 966.75,717.2 Q967.125,717.2 967.3625,717.425 Q967.6,717.65 967.6,718.175 L967.6,719.425 Q967.6,719.95 967.375,720.175 Q967.15,720.4 966.8,720.4 Q966.4875,720.4 966.2875,720.2625 Q966.0875,720.125 966,719.7625 Q965.9625,719.5125 965.825,719.375 Q965.575,719.1125 965.125,718.9563 Q964.675,718.8 964.225,718.8 Q963.6625,718.8 963.1938,719.025 Q962.725,719.25 962.3625,719.75 Q962,720.25 962,720.9375 L962,721.675 Q962,722.5 962.675,723.05 Q963.35,723.6 964.55,723.6 Q965.2625,723.6 965.7625,723.4375 Q966.05,723.35 966.375,723.0625 Q966.5875,722.9 966.7,722.85 Q966.8125,722.8 966.95,722.8 Q967.2125,722.8 967.4063,723.0063 Q967.6,723.2125 967.6,723.5 Q967.6,723.775 967.325,724.1 Q966.925,724.575 966.2875,724.8375 Q965.45,725.2 964.425,725.2 Q963.225,725.2 962.2625,724.725 Q961.4875,724.35 960.9438,723.5375 Q960.4,722.725 960.4,721.7625 L960.4,720.8875 Q960.4,719.8875 960.8813,719.0125 Q961.3625,718.1375 962.2063,717.6688 Q963.05,717.2 964,717.2 Q964.575,717.2 965.075,717.4 Q965.575,717.6 966,718 Z "/><text fill="#000000" font-family="sans-serif" font-size="9.6" lengthAdjust="spacingAndGlyphs" textLength="95.2" x="975.6" y="724.7281">DataCoderRepository</text><line style="stroke: #A80036; stroke-width: 1.2000000178813934;" x1="953.2" x2="1072.4" y1="733.6" y2="733.6"/><line style="stroke: #A80036; stroke-width: 1.2000000178813934;" x1="953.2" x2="1072.4" y1="740" y2="740"/><!--class DataCompanyRepository--><rect fill="#FEFECE" height="38.4" id="DataCompanyRepository" style="stroke: #A80036; stroke-width: 1.2000000178813934;" width="136" x="944.8" y="641.6"/><ellipse cx="956.8" cy="654.4" fill="#ADD1B2" rx="8.8" ry="8.8" style="stroke: #A80036; stroke-width: 0.800000011920929;"/><path d="M958.4,651.6 Q958.5625,651.2 958.75,651 Q958.9375,650.8 959.15,650.8 Q959.525,650.8 959.7625,651.025 Q960,651.25 960,651.775 L960,653.025 Q960,653.55 959.775,653.775 Q959.55,654 959.2,654 Q958.8875,654 958.6875,653.8625 Q958.4875,653.725 958.4,653.3625 Q958.3625,653.1125 958.225,652.975 Q957.975,652.7125 957.525,652.5563 Q957.075,652.4 956.625,652.4 Q956.0625,652.4 955.5938,652.625 Q955.125,652.85 954.7625,653.35 Q954.4,653.85 954.4,654.5375 L954.4,655.275 Q954.4,656.1 955.075,656.65 Q955.75,657.2 956.95,657.2 Q957.6625,657.2 958.1625,657.0375 Q958.45,656.95 958.775,656.6625 Q958.9875,656.5 959.1,656.45 Q959.2125,656.4 959.35,656.4 Q959.6125,656.4 959.8063,656.6063 Q960,656.8125 960,657.1 Q960,657.375 959.725,657.7 Q959.325,658.175 958.6875,658.4375 Q957.85,658.8 956.825,658.8 Q955.625,658.8 954.6625,658.325 Q953.8875,657.95 953.3438,657.1375 Q952.8,656.325 952.8,655.3625 L952.8,654.4875 Q952.8,653.4875 953.2813,652.6125 Q953.7625,651.7375 954.6063,651.2688 Q955.45,650.8 956.4,650.8 Q956.975,650.8 957.475,651 Q957.975,651.2 958.4,651.6 Z "/><text fill="#000000" font-family="sans-serif" font-size="9.6" lengthAdjust="spacingAndGlyphs" textLength="110.4" x="968" y="658.3281">DataCompanyRepository</text><line style="stroke: #A80036; stroke-width: 1.2000000178813934;" x1="945.6" x2="1080" y1="667.2" y2="667.2"/><line style="stroke: #A80036; stroke-width: 1.2000000178813934;" x1="945.6" x2="1080" y1="673.6" y2="673.6"/><!--class DataEventRepository--><rect fill="#FEFECE" height="38.4" id="DataEventRepository" style="stroke: #A80036; stroke-width: 1.2000000178813934;" width="117.6" x="954" y="575.2"/><ellipse cx="966" cy="588" fill="#ADD1B2" rx="8.8" ry="8.8" style="stroke: #A80036; stroke-width: 0.800000011920929;"/><path d="M967.6,585.2 Q967.7625,584.8 967.95,584.6 Q968.1375,584.4 968.35,584.4 Q968.725,584.4 968.9625,584.625 Q969.2,584.85 969.2,585.375 L969.2,586.625 Q969.2,587.15 968.975,587.375 Q968.75,587.6 968.4,587.6 Q968.0875,587.6 967.8875,587.4625 Q967.6875,587.325 967.6,586.9625 Q967.5625,586.7125 967.425,586.575 Q967.175,586.3125 966.725,586.1563 Q966.275,586 965.825,586 Q965.2625,586 964.7938,586.225 Q964.325,586.45 963.9625,586.95 Q963.6,587.45 963.6,588.1375 L963.6,588.875 Q963.6,589.7 964.275,590.25 Q964.95,590.8 966.15,590.8 Q966.8625,590.8 967.3625,590.6375 Q967.65,590.55 967.975,590.2625 Q968.1875,590.1 968.3,590.05 Q968.4125,590 968.55,590 Q968.8125,590 969.0063,590.2063 Q969.2,590.4125 969.2,590.7 Q969.2,590.975 968.925,591.3 Q968.525,591.775 967.8875,592.0375 Q967.05,592.4 966.025,592.4 Q964.825,592.4 963.8625,591.925 Q963.0875,591.55 962.5438,590.7375 Q962,589.925 962,588.9625 L962,588.0875 Q962,587.0875 962.4813,586.2125 Q962.9625,585.3375 963.8063,584.8688 Q964.65,584.4 965.6,584.4 Q966.175,584.4 966.675,584.6 Q967.175,584.8 967.6,585.2 Z "/><text fill="#000000" font-family="sans-serif" font-size="9.6" lengthAdjust="spacingAndGlyphs" textLength="92" x="977.2" y="591.9281">DataEventRepository</text><line style="stroke: #A80036; stroke-width: 1.2000000178813934;" x1="954.8" x2="1070.8" y1="600.8" y2="600.8"/><line style="stroke: #A80036; stroke-width: 1.2000000178813934;" x1="954.8" x2="1070.8" y1="607.2" y2="607.2"/><!--class DataRepositoryFactory--><rect fill="#FEFECE" height="38.4" id="DataRepositoryFactory" style="stroke: #A80036; stroke-width: 1.2000000178813934;" width="124.8" x="950.4" y="774.4"/><ellipse cx="962.4" cy="787.2" fill="#ADD1B2" rx="8.8" ry="8.8" style="stroke: #A80036; stroke-width: 0.800000011920929;"/><path d="M964,784.4 Q964.1625,784 964.35,783.8 Q964.5375,783.6 964.75,783.6 Q965.125,783.6 965.3625,783.825 Q965.6,784.05 965.6,784.575 L965.6,785.825 Q965.6,786.35 965.375,786.575 Q965.15,786.8 964.8,786.8 Q964.4875,786.8 964.2875,786.6625 Q964.0875,786.525 964,786.1625 Q963.9625,785.9125 963.825,785.775 Q963.575,785.5125 963.125,785.3563 Q962.675,785.2 962.225,785.2 Q961.6625,785.2 961.1938,785.425 Q960.725,785.65 960.3625,786.15 Q960,786.65 960,787.3375 L960,788.075 Q960,788.9 960.675,789.45 Q961.35,790 962.55,790 Q963.2625,790 963.7625,789.8375 Q964.05,789.75 964.375,789.4625 Q964.5875,789.3 964.7,789.25 Q964.8125,789.2 964.95,789.2 Q965.2125,789.2 965.4063,789.4063 Q965.6,789.6125 965.6,789.9 Q965.6,790.175 965.325,790.5 Q964.925,790.975 964.2875,791.2375 Q963.45,791.6 962.425,791.6 Q961.225,791.6 960.2625,791.125 Q959.4875,790.75 958.9438,789.9375 Q958.4,789.125 958.4,788.1625 L958.4,787.2875 Q958.4,786.2875 958.8813,785.4125 Q959.3625,784.5375 960.2063,784.0688 Q961.05,783.6 962,783.6 Q962.575,783.6 963.075,783.8 Q963.575,784 964,784.4 Z "/><text fill="#000000" font-family="sans-serif" font-size="9.6" lengthAdjust="spacingAndGlyphs" textLength="99.2" x="973.6" y="791.1281">DataRepositoryFactory</text><line style="stroke: #A80036; stroke-width: 1.2000000178813934;" x1="951.2" x2="1074.4" y1="800" y2="800"/><line style="stroke: #A80036; stroke-width: 1.2000000178813934;" x1="951.2" x2="1074.4" y1="806.4" y2="806.4"/><!--class EventDTO--><rect fill="#FEFECE" height="38.4" id="EventDTO" style="stroke: #A80036; stroke-width: 1.2000000178813934;" width="69.6" x="778.8" y="162.4"/><ellipse cx="790.8" cy="175.2" fill="#ADD1B2" rx="8.8" ry="8.8" style="stroke: #A80036; stroke-width: 0.800000011920929;"/><path d="M792.4,172.4 Q792.5625,172 792.75,171.8 Q792.9375,171.6 793.15,171.6 Q793.525,171.6 793.7625,171.825 Q794,172.05 794,172.575 L794,173.825 Q794,174.35 793.775,174.575 Q793.55,174.8 793.2,174.8 Q792.8875,174.8 792.6875,174.6625 Q792.4875,174.525 792.4,174.1625 Q792.3625,173.9125 792.225,173.775 Q791.975,173.5125 791.525,173.3563 Q791.075,173.2 790.625,173.2 Q790.0625,173.2 789.5938,173.425 Q789.125,173.65 788.7625,174.15 Q788.4,174.65 788.4,175.3375 L788.4,176.075 Q788.4,176.9 789.075,177.45 Q789.75,178 790.95,178 Q791.6625,178 792.1625,177.8375 Q792.45,177.75 792.775,177.4625 Q792.9875,177.3 793.1,177.25 Q793.2125,177.2 793.35,177.2 Q793.6125,177.2 793.8063,177.4063 Q794,177.6125 794,177.9 Q794,178.175 793.725,178.5 Q793.325,178.975 792.6875,179.2375 Q791.85,179.6 790.825,179.6 Q789.625,179.6 788.6625,179.125 Q787.8875,178.75 787.3438,177.9375 Q786.8,177.125 786.8,176.1625 L786.8,175.2875 Q786.8,174.2875 787.2813,173.4125 Q787.7625,172.5375 788.6063,172.0688 Q789.45,171.6 790.4,171.6 Q790.975,171.6 791.475,171.8 Q791.975,172 792.4,172.4 Z "/><text fill="#000000" font-family="sans-serif" font-size="9.6" lengthAdjust="spacingAndGlyphs" textLength="44" x="802" y="179.1281">EventDTO</text><line style="stroke: #A80036; stroke-width: 1.2000000178813934;" x1="779.6" x2="847.6" y1="188" y2="188"/><line style="stroke: #A80036; stroke-width: 1.2000000178813934;" x1="779.6" x2="847.6" y1="194.4" y2="194.4"/><!--class CompanyDTO--><rect fill="#FEFECE" height="38.4" id="CompanyDTO" style="stroke: #A80036; stroke-width: 1.2000000178813934;" width="88" x="769.6" y="96"/><ellipse cx="781.6" cy="108.8" fill="#ADD1B2" rx="8.8" ry="8.8" style="stroke: #A80036; stroke-width: 0.800000011920929;"/><path d="M783.2,106 Q783.3625,105.6 783.55,105.4 Q783.7375,105.2 783.95,105.2 Q784.325,105.2 784.5625,105.425 Q784.8,105.65 784.8,106.175 L784.8,107.425 Q784.8,107.95 784.575,108.175 Q784.35,108.4 784,108.4 Q783.6875,108.4 783.4875,108.2625 Q783.2875,108.125 783.2,107.7625 Q783.1625,107.5125 783.025,107.375 Q782.775,107.1125 782.325,106.9563 Q781.875,106.8 781.425,106.8 Q780.8625,106.8 780.3938,107.025 Q779.925,107.25 779.5625,107.75 Q779.2,108.25 779.2,108.9375 L779.2,109.675 Q779.2,110.5 779.875,111.05 Q780.55,111.6 781.75,111.6 Q782.4625,111.6 782.9625,111.4375 Q783.25,111.35 783.575,111.0625 Q783.7875,110.9 783.9,110.85 Q784.0125,110.8 784.15,110.8 Q784.4125,110.8 784.6063,111.0063 Q784.8,111.2125 784.8,111.5 Q784.8,111.775 784.525,112.1 Q784.125,112.575 783.4875,112.8375 Q782.65,113.2 781.625,113.2 Q780.425,113.2 779.4625,112.725 Q778.6875,112.35 778.1438,111.5375 Q777.6,110.725 777.6,109.7625 L777.6,108.8875 Q777.6,107.8875 778.0813,107.0125 Q778.5625,106.1375 779.4063,105.6688 Q780.25,105.2 781.2,105.2 Q781.775,105.2 782.275,105.4 Q782.775,105.6 783.2,106 Z "/><text fill="#000000" font-family="sans-serif" font-size="9.6" lengthAdjust="spacingAndGlyphs" textLength="62.4" x="792.8" y="112.7281">CompanyDTO</text><line style="stroke: #A80036; stroke-width: 1.2000000178813934;" x1="770.4" x2="856.8" y1="121.6" y2="121.6"/><line style="stroke: #A80036; stroke-width: 1.2000000178813934;" x1="770.4" x2="856.8" y1="128" y2="128"/><!--class CoderDTO--><rect fill="#FEFECE" height="38.4" id="CoderDTO" style="stroke: #A80036; stroke-width: 1.2000000178813934;" width="72.8" x="976.4" y="162.4"/><ellipse cx="988.4" cy="175.2" fill="#ADD1B2" rx="8.8" ry="8.8" style="stroke: #A80036; stroke-width: 0.800000011920929;"/><path d="M990,172.4 Q990.1625,172 990.35,171.8 Q990.5375,171.6 990.75,171.6 Q991.125,171.6 991.3625,171.825 Q991.6,172.05 991.6,172.575 L991.6,173.825 Q991.6,174.35 991.375,174.575 Q991.15,174.8 990.8,174.8 Q990.4875,174.8 990.2875,174.6625 Q990.0875,174.525 990,174.1625 Q989.9625,173.9125 989.825,173.775 Q989.575,173.5125 989.125,173.3563 Q988.675,173.2 988.225,173.2 Q987.6625,173.2 987.1938,173.425 Q986.725,173.65 986.3625,174.15 Q986,174.65 986,175.3375 L986,176.075 Q986,176.9 986.675,177.45 Q987.35,178 988.55,178 Q989.2625,178 989.7625,177.8375 Q990.05,177.75 990.375,177.4625 Q990.5875,177.3 990.7,177.25 Q990.8125,177.2 990.95,177.2 Q991.2125,177.2 991.4063,177.4063 Q991.6,177.6125 991.6,177.9 Q991.6,178.175 991.325,178.5 Q990.925,178.975 990.2875,179.2375 Q989.45,179.6 988.425,179.6 Q987.225,179.6 986.2625,179.125 Q985.4875,178.75 984.9438,177.9375 Q984.4,177.125 984.4,176.1625 L984.4,175.2875 Q984.4,174.2875 984.8813,173.4125 Q985.3625,172.5375 986.2063,172.0688 Q987.05,171.6 988,171.6 Q988.575,171.6 989.075,171.8 Q989.575,172 990,172.4 Z "/><text fill="#000000" font-family="sans-serif" font-size="9.6" lengthAdjust="spacingAndGlyphs" textLength="47.2" x="999.6" y="179.1281">CoderDTO</text><line style="stroke: #A80036; stroke-width: 1.2000000178813934;" x1="977.2" x2="1048.4" y1="188" y2="188"/><line style="stroke: #A80036; stroke-width: 1.2000000178813934;" x1="977.2" x2="1048.4" y1="194.4" y2="194.4"/><!--class Coder--><rect fill="#FEFECE" height="115.8813" id="Coder" style="stroke: #A80036; stroke-width: 1.2000000178813934;" width="82.4" x="440.4" y="717.2"/><ellipse cx="465.72" cy="730" fill="#ADD1B2" rx="8.8" ry="8.8" style="stroke: #A80036; stroke-width: 0.800000011920929;"/><path d="M467.32,727.2 Q467.4825,726.8 467.67,726.6 Q467.8575,726.4 468.07,726.4 Q468.445,726.4 468.6825,726.625 Q468.92,726.85 468.92,727.375 L468.92,728.625 Q468.92,729.15 468.695,729.375 Q468.47,729.6 468.12,729.6 Q467.8075,729.6 467.6075,729.4625 Q467.4075,729.325 467.32,728.9625 Q467.2825,728.7125 467.145,728.575 Q466.895,728.3125 466.445,728.1563 Q465.995,728 465.545,728 Q464.9825,728 464.5138,728.225 Q464.045,728.45 463.6825,728.95 Q463.32,729.45 463.32,730.1375 L463.32,730.875 Q463.32,731.7 463.995,732.25 Q464.67,732.8 465.87,732.8 Q466.5825,732.8 467.0825,732.6375 Q467.37,732.55 467.695,732.2625 Q467.9075,732.1 468.02,732.05 Q468.1325,732 468.27,732 Q468.5325,732 468.7263,732.2063 Q468.92,732.4125 468.92,732.7 Q468.92,732.975 468.645,733.3 Q468.245,733.775 467.6075,734.0375 Q466.77,734.4 465.745,734.4 Q464.545,734.4 463.5825,733.925 Q462.8075,733.55 462.2638,732.7375 Q461.72,731.925 461.72,730.9625 L461.72,730.0875 Q461.72,729.0875 462.2013,728.2125 Q462.6825,727.3375 463.5263,726.8688 Q464.37,726.4 465.32,726.4 Q465.895,726.4 466.395,726.6 Q466.895,726.8 467.32,727.2 Z "/><text fill="#000000" font-family="sans-serif" font-size="9.6" lengthAdjust="spacingAndGlyphs" textLength="27.2" x="479.88" y="733.9281">Coder</text><line style="stroke: #A80036; stroke-width: 1.2000000178813934;" x1="441.2" x2="522" y1="742.8" y2="742.8"/><text fill="#000000" font-family="sans-serif" font-size="8.8" lengthAdjust="spacingAndGlyphs" textLength="23.2" x="445.2" y="755.1352">-id: int</text><text fill="#000000" font-family="sans-serif" font-size="8.8" lengthAdjust="spacingAndGlyphs" textLength="69.6" x="445.2" y="766.2039">-firstName : String</text><text fill="#000000" font-family="sans-serif" font-size="8.8" lengthAdjust="spacingAndGlyphs" textLength="68" x="445.2" y="777.2727">-lastName : String</text><text fill="#000000" font-family="sans-serif" font-size="8.8" lengthAdjust="spacingAndGlyphs" textLength="52" x="445.2" y="788.3414">-email : String</text><text fill="#000000" font-family="sans-serif" font-size="8.8" lengthAdjust="spacingAndGlyphs" textLength="60.8" x="445.2" y="799.4102">-linkedin : String</text><text fill="#000000" font-family="sans-serif" font-size="8.8" lengthAdjust="spacingAndGlyphs" textLength="71.2" x="445.2" y="810.4789">-username : String</text><text fill="#000000" font-family="sans-serif" font-size="8.8" lengthAdjust="spacingAndGlyphs" textLength="72.8" x="445.2" y="821.5477">-password : String</text><line style="stroke: #A80036; stroke-width: 1.2000000178813934;" x1="441.2" x2="522" y1="826.6813" y2="826.6813"/><!--class Company--><rect fill="#FEFECE" height="115.8813" id="Company" style="stroke: #A80036; stroke-width: 1.2000000178813934;" width="82.4" x="95.6" y="570"/><ellipse cx="114.08" cy="582.8" fill="#ADD1B2" rx="8.8" ry="8.8" style="stroke: #A80036; stroke-width: 0.800000011920929;"/><path d="M115.68,580 Q115.8425,579.6 116.03,579.4 Q116.2175,579.2 116.43,579.2 Q116.805,579.2 117.0425,579.425 Q117.28,579.65 117.28,580.175 L117.28,581.425 Q117.28,581.95 117.055,582.175 Q116.83,582.4 116.48,582.4 Q116.1675,582.4 115.9675,582.2625 Q115.7675,582.125 115.68,581.7625 Q115.6425,581.5125 115.505,581.375 Q115.255,581.1125 114.805,580.9563 Q114.355,580.8 113.905,580.8 Q113.3425,580.8 112.8738,581.025 Q112.405,581.25 112.0425,581.75 Q111.68,582.25 111.68,582.9375 L111.68,583.675 Q111.68,584.5 112.355,585.05 Q113.03,585.6 114.23,585.6 Q114.9425,585.6 115.4425,585.4375 Q115.73,585.35 116.055,585.0625 Q116.2675,584.9 116.38,584.85 Q116.4925,584.8 116.63,584.8 Q116.8925,584.8 117.0863,585.0063 Q117.28,585.2125 117.28,585.5 Q117.28,585.775 117.005,586.1 Q116.605,586.575 115.9675,586.8375 Q115.13,587.2 114.105,587.2 Q112.905,587.2 111.9425,586.725 Q111.1675,586.35 110.6238,585.5375 Q110.08,584.725 110.08,583.7625 L110.08,582.8875 Q110.08,581.8875 110.5613,581.0125 Q111.0425,580.1375 111.8863,579.6688 Q112.73,579.2 113.68,579.2 Q114.255,579.2 114.755,579.4 Q115.255,579.6 115.68,580 Z "/><text fill="#000000" font-family="sans-serif" font-size="9.6" lengthAdjust="spacingAndGlyphs" textLength="42.4" x="126.72" y="586.7281">Company</text><line style="stroke: #A80036; stroke-width: 1.2000000178813934;" x1="96.4" x2="177.2" y1="595.6" y2="595.6"/><text fill="#000000" font-family="sans-serif" font-size="8.8" lengthAdjust="spacingAndGlyphs" textLength="25.6" x="100.4" y="607.9352">-id : int</text><text fill="#000000" font-family="sans-serif" font-size="8.8" lengthAdjust="spacingAndGlyphs" textLength="53.6" x="100.4" y="619.0039">-name : String</text><text fill="#000000" font-family="sans-serif" font-size="8.8" lengthAdjust="spacingAndGlyphs" textLength="64.8" x="100.4" y="630.0727">-address : String</text><text fill="#000000" font-family="sans-serif" font-size="8.8" lengthAdjust="spacingAndGlyphs" textLength="52" x="100.4" y="641.1414">-email : String</text><text fill="#000000" font-family="sans-serif" font-size="8.8" lengthAdjust="spacingAndGlyphs" textLength="64" x="100.4" y="652.2102">-website : String</text><text fill="#000000" font-family="sans-serif" font-size="8.8" lengthAdjust="spacingAndGlyphs" textLength="71.2" x="100.4" y="663.2789">-username : String</text><text fill="#000000" font-family="sans-serif" font-size="8.8" lengthAdjust="spacingAndGlyphs" textLength="72.8" x="100.4" y="674.3477">-password : String</text><line style="stroke: #A80036; stroke-width: 1.2000000178813934;" x1="96.4" x2="177.2" y1="679.4813" y2="679.4813"/><!--class Event--><rect fill="#FEFECE" height="104.8125" id="Event" style="stroke: #A80036; stroke-width: 1.2000000178813934;" width="124" x="419.6" y="570"/><ellipse cx="466.2" cy="582.8" fill="#ADD1B2" rx="8.8" ry="8.8" style="stroke: #A80036; stroke-width: 0.800000011920929;"/><path d="M467.8,580 Q467.9625,579.6 468.15,579.4 Q468.3375,579.2 468.55,579.2 Q468.925,579.2 469.1625,579.425 Q469.4,579.65 469.4,580.175 L469.4,581.425 Q469.4,581.95 469.175,582.175 Q468.95,582.4 468.6,582.4 Q468.2875,582.4 468.0875,582.2625 Q467.8875,582.125 467.8,581.7625 Q467.7625,581.5125 467.625,581.375 Q467.375,581.1125 466.925,580.9563 Q466.475,580.8 466.025,580.8 Q465.4625,580.8 464.9938,581.025 Q464.525,581.25 464.1625,581.75 Q463.8,582.25 463.8,582.9375 L463.8,583.675 Q463.8,584.5 464.475,585.05 Q465.15,585.6 466.35,585.6 Q467.0625,585.6 467.5625,585.4375 Q467.85,585.35 468.175,585.0625 Q468.3875,584.9 468.5,584.85 Q468.6125,584.8 468.75,584.8 Q469.0125,584.8 469.2063,585.0063 Q469.4,585.2125 469.4,585.5 Q469.4,585.775 469.125,586.1 Q468.725,586.575 468.0875,586.8375 Q467.25,587.2 466.225,587.2 Q465.025,587.2 464.0625,586.725 Q463.2875,586.35 462.7438,585.5375 Q462.2,584.725 462.2,583.7625 L462.2,582.8875 Q462.2,581.8875 462.6813,581.0125 Q463.1625,580.1375 464.0063,579.6688 Q464.85,579.2 465.8,579.2 Q466.375,579.2 466.875,579.4 Q467.375,579.6 467.8,580 Z "/><text fill="#000000" font-family="sans-serif" font-size="9.6" lengthAdjust="spacingAndGlyphs" textLength="24" x="482.6" y="586.7281">Event</text><line style="stroke: #A80036; stroke-width: 1.2000000178813934;" x1="420.4" x2="542.8" y1="595.6" y2="595.6"/><text fill="#000000" font-family="sans-serif" font-size="8.8" lengthAdjust="spacingAndGlyphs" textLength="53.6" x="424.4" y="607.9352">-name : String</text><text fill="#000000" font-family="sans-serif" font-size="8.8" lengthAdjust="spacingAndGlyphs" textLength="114.4" x="424.4" y="619.0039">-dateOfEvent : LocalDateTime</text><text fill="#000000" font-family="sans-serif" font-size="8.8" lengthAdjust="spacingAndGlyphs" textLength="64.8" x="424.4" y="630.0727">-address : String</text><text fill="#000000" font-family="sans-serif" font-size="8.8" lengthAdjust="spacingAndGlyphs" textLength="98.4" x="424.4" y="641.1414">-maxNrOfParticipants : int</text><text fill="#000000" font-family="sans-serif" font-size="8.8" lengthAdjust="spacingAndGlyphs" textLength="83.2" x="424.4" y="652.2102">-organiser : Company</text><text fill="#000000" font-family="sans-serif" font-size="8.8" lengthAdjust="spacingAndGlyphs" textLength="101.6" x="424.4" y="663.2789">-participants : List&lt;Coder&gt;</text><line style="stroke: #A80036; stroke-width: 1.2000000178813934;" x1="420.4" x2="542.8" y1="668.4125" y2="668.4125"/><!--link UserDetailsService to CoderManagementService--><path d="M552.2712,322.3816 C580.1648,328.1064 612.5064,335.1256 641.6,342.4 C674.7728,350.6936 711.2048,361.0688 741.9024,370.1832 " fill="none" id="UserDetailsService-CoderManagementService" style="stroke: #A80036; stroke-width: 0.800000011920929; stroke-dasharray: 7.0,7.0;"/><polygon fill="none" points="550.9896,327.836,536.4208,319.168,553.2144,316.8592,550.9896,327.836" style="stroke: #A80036; stroke-width: 0.800000011920929;"/><!--link UserDetailsService to CompanyManagementService--><path d="M552.8008,309.9936 C606.1128,310.8968 679.3344,312.1376 734.492,313.0728 " fill="none" id="UserDetailsService-CompanyManagementService" style="stroke: #A80036; stroke-width: 0.800000011920929; stroke-dasharray: 7.0,7.0;"/><polygon fill="none" points="552.492,315.5888,536.5888,309.7184,552.6816,304.3904,552.492,315.5888" style="stroke: #A80036; stroke-width: 0.800000011920929;"/><!--link CoderRepository to DataCoderRepository--><path d="M905.408,732.8096 C921.264,731.976 937.384,731.1272 952.12,730.3512 " fill="none" id="CoderRepository-DataCoderRepository" style="stroke: #A80036; stroke-width: 0.800000011920929; stroke-dasharray: 7.0,7.0;"/><polygon fill="none" points="905.656,738.4048,889.384,733.6536,905.072,727.22,905.656,738.4048" style="stroke: #A80036; stroke-width: 0.800000011920929;"/><!--link CompanyRepository to DataCompanyRepository--><path d="M909.08,657.4664 C921.128,657.8568 933.264,658.2496 944.752,658.6216 " fill="none" id="CompanyRepository-DataCompanyRepository" style="stroke: #A80036; stroke-width: 0.800000011920929; stroke-dasharray: 7.0,7.0;"/><polygon fill="none" points="908.872,663.0632,893.064,656.948,909.24,651.8688,908.872,663.0632" style="stroke: #A80036; stroke-width: 0.800000011920929;"/><!--link EventRepository to DataEventRepository--><path d="M878.648,574.964 C902.848,578.4904 930.208,582.4784 953.816,585.92 " fill="none" id="EventRepository-DataEventRepository" style="stroke: #A80036; stroke-width: 0.800000011920929; stroke-dasharray: 7.0,7.0;"/><polygon fill="none" points="877.512,580.4576,862.488,572.6088,879.128,569.3744,877.512,580.4576" style="stroke: #A80036; stroke-width: 0.800000011920929;"/><!--link RepositoryFactory to DataRepositoryFactory--><path d="M885.76,814.5552 C906.816,811.0592 929.688,807.2632 950.104,803.8744 " fill="none" id="RepositoryFactory-DataRepositoryFactory" style="stroke: #A80036; stroke-width: 0.800000011920929; stroke-dasharray: 7.0,7.0;"/><polygon fill="none" points="886.408,820.124,869.704,817.22,884.576,809.0752,886.408,820.124" style="stroke: #A80036; stroke-width: 0.800000011920929;"/><!--link rest_controller to dto--><path d="M626.402,111.8696 C626.6531,111.9809 626.9039,112.0931 627.1542,112.2061 C628.1556,112.6581 629.1501,113.1231 630.1373,113.6015 C634.0862,115.5147 637.9179,117.641 641.6,120 C682.1152,145.9552 655.9352,186.956 696,213.6 C706.7272,220.7338 719.2483,225.277 732.0307,228.0726 C735.2262,228.7715 738.4382,229.3612 741.6425,229.8548 C743.2446,230.1016 744.8449,230.3244 746.4402,230.5249 C747.2379,230.6251 748.0343,230.7197 748.8292,230.809 C749.2266,230.8536 749.6236,230.8968 750.0202,230.9388 " fill="none" id="rest_controller-dto" style="stroke: #A80036; stroke-width: 0.800000011920929; stroke-dasharray: 7.0,7.0;"/><polygon fill="#A80036" points="750.0202,230.9388,743.1968,226.9991,746.0424,230.518,742.5235,233.3636,750.0202,230.9388" style="stroke: #A80036; stroke-width: 0.800000011920929;"/><text fill="#000000" font-family="sans-serif" font-size="10.4" lengthAdjust="spacingAndGlyphs" textLength="22.4" x="666.4" y="149.9961">uses</text><!--link NotEnoughPlacesException to EventManagementService--><path d="M215.0168,380.2528 C246.5768,382.3128 284.2936,384.7744 321.26,387.1872 " fill="none" id="NotEnoughPlacesException-EventManagementService" style="stroke: #A80036; stroke-width: 0.800000011920929; stroke-dasharray: 7.0,7.0;"/><polygon fill="#A80036" points="210.804,379.9776,217.7802,383.6399,214.7955,380.2382,218.1972,377.2535,210.804,379.9776" style="stroke: #A80036; stroke-width: 0.800000011920929;"/><text fill="#000000" font-family="sans-serif" font-size="10.4" lengthAdjust="spacingAndGlyphs" textLength="43.2" x="251.2" y="379.5961">&lt;throws&gt;</text><!--link NotEnoughPermissionsException to EventManagementService--><path d="M228.3936,429.96 C256.9864,426.2944 289.4584,422.1312 321.3664,418.04 " fill="none" id="NotEnoughPermissionsException-EventManagementService" style="stroke: #A80036; stroke-width: 0.800000011920929; stroke-dasharray: 7.0,7.0;"/><polygon fill="#A80036" points="224.204,430.4968,231.7524,432.7555,228.1715,429.9883,230.9388,426.4074,224.204,430.4968" style="stroke: #A80036; stroke-width: 0.800000011920929;"/><text fill="#000000" font-family="sans-serif" font-size="10.4" lengthAdjust="spacingAndGlyphs" textLength="43.2" x="251.2" y="418.7961">&lt;throws&gt;</text><!--link EventManagementService to RepositoryFactory--><path d="M545.0544,445.816 C578.3816,474.6112 617.3696,513.8768 641.6,556.8 C691.1136,644.5128 630.6656,700.1416 696,776.8 C711.7192,795.244 735.4944,806.9952 757.5008,814.4 " fill="none" id="EventManagementService-RepositoryFactory" style="stroke: #A80036; stroke-width: 0.800000011920929;"/><polygon fill="#FFFFFF" points="536.9376,438.9104,538.5198,444.4581,544.2493,445.1313,542.6671,439.5836,536.9376,438.9104" style="stroke: #A80036; stroke-width: 0.800000011920929;"/><!--link CoderManagementService to RepositoryFactory--><path d="M766.48,423.2256 C732.2056,448.9888 688.4968,488.9408 668.8,536.4 C649.5144,582.868 642.6008,719.8488 668.8,762.8 C687.6024,793.624 725.2944,809.5624 757.5096,817.7752 " fill="none" id="CoderManagementService-RepositoryFactory" style="stroke: #A80036; stroke-width: 0.800000011920929;"/><polygon fill="#FFFFFF" points="774.9696,416.9856,769.2068,417.2504,767.2348,422.6717,772.9976,422.407,774.9696,416.9856" style="stroke: #A80036; stroke-width: 0.800000011920929;"/><!--link CompanyManagementService to RepositoryFactory--><path d="M724.5392,326.9568 C702.2168,334.7872 681.1312,347.3848 668.8,367.6 C645.9336,405.0872 645.9336,725.3128 668.8,762.8 C687.6024,793.624 725.2944,809.5624 757.5096,817.7752 " fill="none" id="CompanyManagementService-RepositoryFactory" style="stroke: #A80036; stroke-width: 0.800000011920929;"/><polygon fill="#FFFFFF" points="734.5056,323.7848,728.9611,322.1914,725.3578,326.6966,730.9023,328.2899,734.5056,323.7848" style="stroke: #A80036; stroke-width: 0.800000011920929;"/><!--link DataRepositoryFactory to DataCompanyRepository--><path d="M940.888,775.2808 C930.152,768.5536 921.688,759.3616 918.8,746.8 C913.536,723.9136 908.312,710.2904 925.6,694.4 C931.752,688.7464 938.96,684.0072 946.544,680.0448 " fill="none" id="DataRepositoryFactory-DataCompanyRepository" style="stroke: #A80036; stroke-width: 0.800000011920929;"/><polygon fill="#FFFFFF" points="950.376,780.3704,947.6583,775.2818,941.9158,775.8333,944.6336,780.9219,950.376,780.3704" style="stroke: #A80036; stroke-width: 0.800000011920929;"/><!--link DataRepositoryFactory to DataCoderRepository--><path d="M1012.8,763.6168 C1012.8,757.9576 1012.8,752.2984 1012.8,746.6392 " fill="none" id="DataRepositoryFactory-DataCoderRepository" style="stroke: #A80036; stroke-width: 0.800000011920929;"/><polygon fill="#FFFFFF" points="1012.8,774.1472,1016,769.3472,1012.8,764.5472,1009.6,769.3472,1012.8,774.1472" style="stroke: #A80036; stroke-width: 0.800000011920929;"/><!--link DataRepositoryFactory to DataEventRepository--><path d="M940.888,775.2808 C930.152,768.5536 921.688,759.3616 918.8,746.8 C912.872,721.0296 906.128,645.8928 925.6,628 C933.72,620.5352 943.68,614.6648 953.928,610.0696 " fill="none" id="DataRepositoryFactory-DataEventRepository" style="stroke: #A80036; stroke-width: 0.800000011920929;"/><polygon fill="#FFFFFF" points="950.376,780.3704,947.6583,775.2818,941.9158,775.8333,944.6336,780.9219,950.376,780.3704" style="stroke: #A80036; stroke-width: 0.800000011920929;"/><!--link EventController to CoderManagementService--><path d="M568.5624,221.3888 C593.584,237.1904 619.9712,256.1168 641.6,276.8 C642.5448,277.7032 694.9488,352.8232 696,353.6 C709.5656,363.6176 725.8808,371.1088 741.9584,376.6792 " fill="none" id="EventController-CoderManagementService" style="stroke: #A80036; stroke-width: 0.800000011920929;"/><polygon fill="#FFFFFF" points="559.416,215.7112,561.8063,220.9616,567.5722,220.7745,565.1819,215.5241,559.416,215.7112" style="stroke: #A80036; stroke-width: 0.800000011920929;"/><!--link EventController to EventManagementService--><path d="M346.6288,218.2184 C289.952,244.4128 243.2392,281.7176 272.8,328.4 C284.6496,347.1136 301.848,360.8992 321.3632,371.0296 " fill="none" id="EventController-EventManagementService" style="stroke: #A80036; stroke-width: 0.800000011920929;"/><polygon fill="#FFFFFF" points="356.1752,213.9472,350.4869,212.9864,347.4122,217.8677,353.1005,218.8284,356.1752,213.9472" style="stroke: #A80036; stroke-width: 0.800000011920929;"/><!--link EventController to CompanyManagementService--><path d="M617.1128,216.7792 C641.5352,225.5624 666.5552,235.3048 689.6,245.6 C718.2304,258.3904 749.0304,275.5904 772.6728,289.5928 " fill="none" id="EventController-CompanyManagementService" style="stroke: #A80036; stroke-width: 0.800000011920929;"/><polygon fill="#FFFFFF" points="607.0592,213.204,610.5096,217.8273,616.1043,216.4205,612.6539,211.7972,607.0592,213.204" style="stroke: #A80036; stroke-width: 0.800000011920929;"/><!--link Company to Event--><path d="M188.9376,627.1624 C250.4872,626.1584 353.5496,624.476 419.2944,623.4032 " fill="none" id="Company-Event" style="stroke: #A80036; stroke-width: 0.800000011920929;"/><polygon fill="#A80036" points="178.3176,627.336,183.169,630.4575,187.9163,627.1799,183.0649,624.0584,178.3176,627.336" style="stroke: #A80036; stroke-width: 0.800000011920929;"/><text fill="#000000" font-family="sans-serif" font-size="10.4" lengthAdjust="spacingAndGlyphs" textLength="44.8" x="250.4" y="621.9961">organizes</text><text fill="#000000" font-family="sans-serif" font-size="10.4" lengthAdjust="spacingAndGlyphs" textLength="5.6" x="184.2728" y="638.9298">1</text><text fill="#000000" font-family="sans-serif" font-size="10.4" lengthAdjust="spacingAndGlyphs" textLength="4" x="409.1653" y="634.9177">*</text><!--link Coder to Event--><path d="M481.6,716.9968 C481.6,703.1656 481.6,688.4888 481.6,674.928 " fill="none" id="Coder-Event" style="stroke: #A80036; stroke-width: 0.800000011920929;"/><text fill="#000000" font-family="sans-serif" font-size="10.4" lengthAdjust="spacingAndGlyphs" textLength="53.6" x="445.2" y="700.3961">participates</text><text fill="#000000" font-family="sans-serif" font-size="10.4" lengthAdjust="spacingAndGlyphs" textLength="5.6" x="475.7113" y="708.3513">1</text><text fill="#000000" font-family="sans-serif" font-size="10.4" lengthAdjust="spacingAndGlyphs" textLength="4" x="477.3813" y="692.1841">*</text><!--link EventDTO to CompanyDTO--><!--link EventDTO to CoderDTO--><!--
@startuml
'hide members
'hide methods
'hide circle
'skinparam monochrome true
skinparam shadowing false
skinparam classAttributeIconSize 0
left to right direction
skinparam dpi 600
package server {



    package rest_controller {
        class EventController
    }


    package service {
        class CoderManagementService implements UserDetailsService
        class CompanyManagementService implements UserDetailsService
        class EventManagementService
    }


    package exceptions {
        class NotEnoughPlacesException
        class NotEnoughPermissionsException
    }

    package repository {
        package api {
            interface CoderRepository
            interface CompanyRepository
            interface EventRepository
            interface RepositoryFactory
        }

    package data {
        class DataCoderRepository implements CoderRepository
        class DataCompanyRepository implements CompanyRepository
        class DataEventRepository implements EventRepository
        class DataRepositoryFactory implements RepositoryFactory
    }
}

    package dto {
        class EventDTO
        class CompanyDTO
        class CoderDTO
    }

    package model {
        class Coder
        class Company
        class Event
    }

}

rest_controller -.> dto : uses
'service <-. rest_controller : uses

'repository <-. service : uses
NotEnoughPlacesException <-. EventManagementService : <throws>
NotEnoughPermissionsException <-. EventManagementService : <throws>

EventManagementService o- RepositoryFactory
CoderManagementService o- RepositoryFactory
CompanyManagementService o- RepositoryFactory

DataRepositoryFactory o- DataCompanyRepository
DataRepositoryFactory o- DataCoderRepository
DataRepositoryFactory o- DataEventRepository

EventController o- -CoderManagementService
EventController o- EventManagementService
EventController o- CompanyManagementService
Company "1" *- - "*" Event : organizes
Coder "1" - "*" Event : participates


class EventController {
    +void addEvent(event : EventDTO)
    +void joinEvent(coderId, eventId)
    +List<CoderDTO> getParticipantsForEvent(conpanyId, eventId)
    +List<EventDTO> listAllEvents()
}

class CoderManagementService {
    +loadUserByUsername(username)
}

class CompanyManagementService {
    +loadUserByUsername(username)
}

class EventManagementService {
    +addEvent(companyId, eventName, dateOfEvent, address, maxNrOfParticipants)
    +joinEvent(coderId, eventId)
    +getParticipantsForEvent(companyId, eventId)
    +listAllEvents()
}

interface RepositoryFactory {
    {abstract} +getCoderRepository()
    {abstract} +getCompanyRepository()
    {abstract} +getEventRepository()
}

interface CoderRepository {
    {abstract} +findAllParticipatingEvents(coderId)
}

interface CompanyRepository {
    {abstract} +findAllOrganisingEvents(companyId)
    {abstract} +findAllParticipantsForEvent(eventId)
}

interface EventRepository {
    {abstract} +findById(eventId)
    {abstract} +findAll()
}

class Coder{
    -id: int
    -firstName : String
    -lastName : String
    -email : String
    -linkedin : String
    -username : String
    -password : String
}

class Company{
    -id : int
    -name : String
    -address : String
    -email : String
    -website : String
    -username : String
    -password : String
}

class Event{
    -name : String
    -dateOfEvent : LocalDateTime
    -address : String
    -maxNrOfParticipants : int
    -organiser : Company
    -participants : List<Coder>
}

@enduml

PlantUML version 1.2017.15(Mon Jul 03 19:45:34 EEST 2017)
(GPL source distribution)
Java Runtime: OpenJDK Runtime Environment
JVM: OpenJDK 64-Bit Server VM
Java Version: 1.8.0_152-release-1343-b28
Operating System: Windows 8.1
OS Version: 6.3
Default Encoding: Cp1252
Language: en
Country: US
--></g></svg>