<?xml version="1.0" encoding="UTF-8" standalone="no"?><svg xmlns="http://www.w3.org/2000/svg" xmlns:xlink="http://www.w3.org/1999/xlink" contentScriptType="application/ecmascript" contentStyleType="text/css" height="722.7px" preserveAspectRatio="none" style="width:1106px;height:722px;" version="1.1" viewBox="0 0 1106 722" width="1106.6px" zoomAndPan="magnify"><defs/><g><!--cluster client--><polygon fill="#FFFFFF" points="44.4941,26.4,93.9941,26.4,101.6941,52.3703,1082.8939,52.3703,1082.8939,709.5,44.4941,709.5,44.4941,26.4" style="stroke: #000000; stroke-width: 2.200000047683716;"/><line style="stroke: #000000; stroke-width: 2.200000047683716;" x1="44.4941" x2="101.6941" y1="52.3703" y2="52.3703"/><text fill="#000000" font-family="sans-serif" font-size="15.4" font-weight="bold" lengthAdjust="spacingAndGlyphs" textLength="42.9" x="48.8941" y="44.5865">client</text><!--cluster view--><polygon fill="#FFFFFF" points="70.8941,74.8,113.7941,74.8,121.4941,100.7703,253.4939,100.7703,253.4939,683.1,70.8941,683.1,70.8941,74.8" style="stroke: #000000; stroke-width: 2.200000047683716;"/><line style="stroke: #000000; stroke-width: 2.200000047683716;" x1="70.8941" x2="121.4941" y1="100.7703" y2="100.7703"/><text fill="#000000" font-family="sans-serif" font-size="15.4" font-weight="bold" lengthAdjust="spacingAndGlyphs" textLength="36.3" x="75.2941" y="92.9865">view</text><!--cluster presenter--><polygon fill="#FFFFFF" points="500.9939,178.2,584.5939,178.2,592.2939,204.1703,705.5939,204.1703,705.5939,491.7,500.9939,491.7,500.9939,178.2" style="stroke: #000000; stroke-width: 2.200000047683716;"/><line style="stroke: #000000; stroke-width: 2.200000047683716;" x1="500.9939" x2="592.2939" y1="204.1703" y2="204.1703"/><text fill="#000000" font-family="sans-serif" font-size="15.4" font-weight="bold" lengthAdjust="spacingAndGlyphs" textLength="77" x="505.3939" y="196.3865">presenter</text><!--cluster model--><polygon fill="#FFFFFF" points="741.8939,471.9,795.7939,471.9,803.4939,497.8703,1043.8439,497.8703,1043.8439,564.3,741.8939,564.3,741.8939,471.9" style="stroke: #000000; stroke-width: 2.200000047683716;"/><line style="stroke: #000000; stroke-width: 2.200000047683716;" x1="741.8939" x2="803.4939" y1="497.8703" y2="497.8703"/><text fill="#000000" font-family="sans-serif" font-size="15.4" font-weight="bold" lengthAdjust="spacingAndGlyphs" textLength="47.3" x="746.2939" y="490.0865">model</text><!--cluster rest_client--><polygon fill="#FFFFFF" points="922.2939,590.7,1011.3939,590.7,1019.0939,616.6703,1056.4939,616.6703,1056.4939,683.1,922.2939,683.1,922.2939,590.7" style="stroke: #000000; stroke-width: 2.200000047683716;"/><line style="stroke: #000000; stroke-width: 2.200000047683716;" x1="922.2939" x2="1019.0939" y1="616.6703" y2="616.6703"/><text fill="#000000" font-family="sans-serif" font-size="15.4" font-weight="bold" lengthAdjust="spacingAndGlyphs" textLength="82.5" x="926.6939" y="608.8865">rest_client</text><!--class AddEvent--><rect fill="#FEFECE" height="35.2" id="AddEvent" style="stroke: #A80036; stroke-width: 1.6500000357627869;" width="91.3" x="116.5441" y="261.8"/><ellipse cx="133.0441" cy="279.4" fill="#ADD1B2" rx="12.1" ry="12.1" style="stroke: #A80036; stroke-width: 1.100000023841858;"/><path d="M135.2441,275.55 Q135.4676,275 135.7254,274.725 Q135.9832,274.45 136.2754,274.45 Q136.791,274.45 137.1176,274.7594 Q137.4441,275.0688 137.4441,275.7906 L137.4441,277.5094 Q137.4441,278.2313 137.1347,278.5406 Q136.8254,278.85 136.3441,278.85 Q135.9144,278.85 135.6394,278.6609 Q135.3644,278.4719 135.2441,277.9734 Q135.1926,277.6297 135.0035,277.4406 Q134.6597,277.0797 134.041,276.8648 Q133.4222,276.65 132.8035,276.65 Q132.0301,276.65 131.3855,276.9594 Q130.741,277.2688 130.2426,277.9563 Q129.7441,278.6438 129.7441,279.5891 L129.7441,280.6031 Q129.7441,281.7375 130.6722,282.4938 Q131.6004,283.25 133.2504,283.25 Q134.2301,283.25 134.9176,283.0266 Q135.3129,282.9063 135.7597,282.5109 Q136.0519,282.2875 136.2066,282.2188 Q136.3613,282.15 136.5504,282.15 Q136.9113,282.15 137.1777,282.4336 Q137.4441,282.7172 137.4441,283.1125 Q137.4441,283.4906 137.066,283.9375 Q136.516,284.5906 135.6394,284.9516 Q134.4879,285.45 133.0785,285.45 Q131.4285,285.45 130.1051,284.7969 Q129.0394,284.2813 128.2918,283.1641 Q127.5441,282.0469 127.5441,280.7234 L127.5441,279.5203 Q127.5441,278.1453 128.2058,276.9422 Q128.8676,275.7391 130.0277,275.0945 Q131.1879,274.45 132.4941,274.45 Q133.2847,274.45 133.9722,274.725 Q134.6597,275 135.2441,275.55 Z "/><text fill="#000000" font-family="sans-serif" font-size="13.2" lengthAdjust="spacingAndGlyphs" textLength="56.1" x="148.4441" y="284.8012">AddEvent</text><!--class EventDetails--><rect fill="#FEFECE" height="35.2" id="EventDetails" style="stroke: #A80036; stroke-width: 1.6500000357627869;" width="111.1" x="106.6441" y="409.2"/><ellipse cx="123.1441" cy="426.8" fill="#ADD1B2" rx="12.1" ry="12.1" style="stroke: #A80036; stroke-width: 1.100000023841858;"/><path d="M125.3441,422.95 Q125.5676,422.4 125.8254,422.125 Q126.0832,421.85 126.3754,421.85 Q126.891,421.85 127.2176,422.1594 Q127.5441,422.4688 127.5441,423.1906 L127.5441,424.9094 Q127.5441,425.6313 127.2347,425.9406 Q126.9254,426.25 126.4441,426.25 Q126.0144,426.25 125.7394,426.0609 Q125.4644,425.8719 125.3441,425.3734 Q125.2926,425.0297 125.1035,424.8406 Q124.7597,424.4797 124.141,424.2649 Q123.5222,424.05 122.9035,424.05 Q122.1301,424.05 121.4855,424.3594 Q120.841,424.6688 120.3426,425.3563 Q119.8441,426.0438 119.8441,426.9891 L119.8441,428.0031 Q119.8441,429.1375 120.7722,429.8938 Q121.7004,430.65 123.3504,430.65 Q124.3301,430.65 125.0176,430.4266 Q125.4129,430.3063 125.8597,429.9109 Q126.1519,429.6875 126.3066,429.6188 Q126.4613,429.55 126.6504,429.55 Q127.0113,429.55 127.2777,429.8336 Q127.5441,430.1172 127.5441,430.5125 Q127.5441,430.8906 127.166,431.3375 Q126.616,431.9906 125.7394,432.3516 Q124.5879,432.85 123.1785,432.85 Q121.5285,432.85 120.2051,432.1969 Q119.1394,431.6813 118.3918,430.5641 Q117.6441,429.4469 117.6441,428.1234 L117.6441,426.9203 Q117.6441,425.5453 118.3058,424.3422 Q118.9676,423.1391 120.1277,422.4945 Q121.2879,421.85 122.5941,421.85 Q123.3847,421.85 124.0722,422.125 Q124.7597,422.4 125.3441,422.95 Z "/><text fill="#000000" font-family="sans-serif" font-size="13.2" lengthAdjust="spacingAndGlyphs" textLength="75.9" x="138.5441" y="432.2012">EventDetails</text><!--class EventList--><rect fill="#FEFECE" height="35.2" id="EventList" style="stroke: #A80036; stroke-width: 1.6500000357627869;" width="90.2" x="117.0939" y="482.9"/><ellipse cx="133.5939" cy="500.5" fill="#ADD1B2" rx="12.1" ry="12.1" style="stroke: #A80036; stroke-width: 1.100000023841858;"/><path d="M135.7939,496.65 Q136.0173,496.1 136.2752,495.825 Q136.533,495.55 136.8252,495.55 Q137.3408,495.55 137.6673,495.8594 Q137.9939,496.1688 137.9939,496.8906 L137.9939,498.6094 Q137.9939,499.3313 137.6845,499.6406 Q137.3752,499.95 136.8939,499.95 Q136.4642,499.95 136.1892,499.7609 Q135.9142,499.5719 135.7939,499.0734 Q135.7423,498.7297 135.5533,498.5406 Q135.2095,498.1797 134.5908,497.9649 Q133.972,497.75 133.3533,497.75 Q132.5798,497.75 131.9353,498.0594 Q131.2908,498.3688 130.7923,499.0563 Q130.2939,499.7438 130.2939,500.6891 L130.2939,501.7031 Q130.2939,502.8375 131.222,503.5938 Q132.1502,504.35 133.8002,504.35 Q134.7798,504.35 135.4673,504.1266 Q135.8627,504.0063 136.3095,503.6109 Q136.6017,503.3875 136.7564,503.3188 Q136.9111,503.25 137.1002,503.25 Q137.4611,503.25 137.7275,503.5336 Q137.9939,503.8172 137.9939,504.2125 Q137.9939,504.5906 137.6158,505.0375 Q137.0658,505.6906 136.1892,506.0516 Q135.0377,506.55 133.6283,506.55 Q131.9783,506.55 130.6548,505.8969 Q129.5892,505.3813 128.8416,504.2641 Q128.0939,503.1469 128.0939,501.8234 L128.0939,500.6203 Q128.0939,499.2453 128.7556,498.0422 Q129.4173,496.8391 130.5775,496.1945 Q131.7377,495.55 133.0439,495.55 Q133.8345,495.55 134.522,495.825 Q135.2095,496.1 135.7939,496.65 Z "/><text fill="#000000" font-family="sans-serif" font-size="13.2" lengthAdjust="spacingAndGlyphs" textLength="55" x="148.9939" y="505.9012">EventList</text><!--class CoderList--><rect fill="#FEFECE" height="35.2" id="CoderList" style="stroke: #A80036; stroke-width: 1.6500000357627869;" width="94.6" x="114.8941" y="114.4"/><ellipse cx="131.3941" cy="132" fill="#ADD1B2" rx="12.1" ry="12.1" style="stroke: #A80036; stroke-width: 1.100000023841858;"/><path d="M133.5941,128.15 Q133.8176,127.6 134.0754,127.325 Q134.3332,127.05 134.6254,127.05 Q135.141,127.05 135.4676,127.3594 Q135.7941,127.6688 135.7941,128.3906 L135.7941,130.1094 Q135.7941,130.8313 135.4847,131.1406 Q135.1754,131.45 134.6941,131.45 Q134.2644,131.45 133.9894,131.2609 Q133.7144,131.0719 133.5941,130.5734 Q133.5426,130.2297 133.3535,130.0406 Q133.0097,129.6797 132.391,129.4648 Q131.7722,129.25 131.1535,129.25 Q130.3801,129.25 129.7355,129.5594 Q129.091,129.8688 128.5926,130.5563 Q128.0941,131.2438 128.0941,132.1891 L128.0941,133.2031 Q128.0941,134.3375 129.0222,135.0938 Q129.9504,135.85 131.6004,135.85 Q132.5801,135.85 133.2676,135.6266 Q133.6629,135.5063 134.1097,135.1109 Q134.4019,134.8875 134.5566,134.8188 Q134.7113,134.75 134.9004,134.75 Q135.2613,134.75 135.5277,135.0336 Q135.7941,135.3172 135.7941,135.7125 Q135.7941,136.0906 135.416,136.5375 Q134.866,137.1906 133.9894,137.5516 Q132.8379,138.05 131.4285,138.05 Q129.7785,138.05 128.4551,137.3969 Q127.3894,136.8813 126.6418,135.7641 Q125.8941,134.6469 125.8941,133.3234 L125.8941,132.1203 Q125.8941,130.7453 126.5558,129.5422 Q127.2176,128.3391 128.3777,127.6945 Q129.5379,127.05 130.8441,127.05 Q131.6347,127.05 132.3222,127.325 Q133.0097,127.6 133.5941,128.15 Z "/><text fill="#000000" font-family="sans-serif" font-size="13.2" lengthAdjust="spacingAndGlyphs" textLength="59.4" x="146.7941" y="137.4012">CoderList</text><!--class SmartAddEvent--><rect fill="#FEFECE" height="35.2" id="SmartAddEvent" style="stroke: #A80036; stroke-width: 1.6500000357627869;" width="127.6" x="98.3941" y="335.5"/><ellipse cx="114.8941" cy="353.1" fill="#ADD1B2" rx="12.1" ry="12.1" style="stroke: #A80036; stroke-width: 1.100000023841858;"/><path d="M117.0941,349.25 Q117.3176,348.7 117.5754,348.425 Q117.8332,348.15 118.1254,348.15 Q118.641,348.15 118.9676,348.4594 Q119.2941,348.7688 119.2941,349.4906 L119.2941,351.2094 Q119.2941,351.9313 118.9847,352.2406 Q118.6754,352.55 118.1941,352.55 Q117.7644,352.55 117.4894,352.3609 Q117.2144,352.1719 117.0941,351.6734 Q117.0426,351.3297 116.8535,351.1406 Q116.5097,350.7797 115.891,350.5649 Q115.2722,350.35 114.6535,350.35 Q113.8801,350.35 113.2355,350.6594 Q112.591,350.9688 112.0926,351.6563 Q111.5941,352.3438 111.5941,353.2891 L111.5941,354.3031 Q111.5941,355.4375 112.5222,356.1938 Q113.4504,356.95 115.1004,356.95 Q116.0801,356.95 116.7676,356.7266 Q117.1629,356.6063 117.6097,356.2109 Q117.9019,355.9875 118.0566,355.9188 Q118.2113,355.85 118.4004,355.85 Q118.7613,355.85 119.0277,356.1336 Q119.2941,356.4172 119.2941,356.8125 Q119.2941,357.1906 118.916,357.6375 Q118.366,358.2906 117.4894,358.6516 Q116.3379,359.15 114.9285,359.15 Q113.2785,359.15 111.9551,358.4969 Q110.8894,357.9813 110.1418,356.8641 Q109.3941,355.7469 109.3941,354.4234 L109.3941,353.2203 Q109.3941,351.8453 110.0558,350.6422 Q110.7176,349.4391 111.8777,348.7945 Q113.0379,348.15 114.3441,348.15 Q115.1347,348.15 115.8222,348.425 Q116.5097,348.7 117.0941,349.25 Z "/><text fill="#000000" font-family="sans-serif" font-size="13.2" lengthAdjust="spacingAndGlyphs" textLength="92.4" x="130.2941" y="358.5012">SmartAddEvent</text><!--class SmartEventDetails--><rect fill="#FEFECE" height="35.2" id="SmartEventDetails" style="stroke: #A80036; stroke-width: 1.6500000357627869;" width="147.4" x="88.4941" y="630.3"/><ellipse cx="104.9941" cy="647.9" fill="#ADD1B2" rx="12.1" ry="12.1" style="stroke: #A80036; stroke-width: 1.100000023841858;"/><path d="M107.1941,644.05 Q107.4176,643.5 107.6754,643.225 Q107.9332,642.95 108.2254,642.95 Q108.741,642.95 109.0676,643.2594 Q109.3941,643.5688 109.3941,644.2906 L109.3941,646.0094 Q109.3941,646.7313 109.0847,647.0406 Q108.7754,647.35 108.2941,647.35 Q107.8644,647.35 107.5894,647.161 Q107.3144,646.9719 107.1941,646.4735 Q107.1426,646.1297 106.9535,645.9406 Q106.6097,645.5797 105.991,645.3649 Q105.3722,645.15 104.7535,645.15 Q103.9801,645.15 103.3355,645.4594 Q102.691,645.7688 102.1926,646.4563 Q101.6941,647.1438 101.6941,648.0891 L101.6941,649.1031 Q101.6941,650.2375 102.6222,650.9938 Q103.5504,651.75 105.2004,651.75 Q106.1801,651.75 106.8676,651.5266 Q107.2629,651.4063 107.7097,651.011 Q108.0019,650.7875 108.1566,650.7188 Q108.3113,650.65 108.5004,650.65 Q108.8613,650.65 109.1277,650.9336 Q109.3941,651.2172 109.3941,651.6125 Q109.3941,651.9906 109.016,652.4375 Q108.466,653.0906 107.5894,653.4516 Q106.4379,653.95 105.0285,653.95 Q103.3785,653.95 102.0551,653.2969 Q100.9894,652.7813 100.2418,651.6641 Q99.4941,650.5469 99.4941,649.2235 L99.4941,648.0203 Q99.4941,646.6453 100.1558,645.4422 Q100.8176,644.2391 101.9777,643.5945 Q103.1379,642.95 104.4441,642.95 Q105.2347,642.95 105.9222,643.225 Q106.6097,643.5 107.1941,644.05 Z "/><text fill="#000000" font-family="sans-serif" font-size="13.2" lengthAdjust="spacingAndGlyphs" textLength="112.2" x="120.3941" y="653.3012">SmartEventDetails</text><!--class SmartEventList--><rect fill="#FEFECE" height="35.2" id="SmartEventList" style="stroke: #A80036; stroke-width: 1.6500000357627869;" width="126.5" x="98.9441" y="556.6"/><ellipse cx="115.4441" cy="574.2" fill="#ADD1B2" rx="12.1" ry="12.1" style="stroke: #A80036; stroke-width: 1.100000023841858;"/><path d="M117.6441,570.35 Q117.8676,569.8 118.1254,569.525 Q118.3832,569.25 118.6754,569.25 Q119.191,569.25 119.5176,569.5594 Q119.8441,569.8688 119.8441,570.5906 L119.8441,572.3094 Q119.8441,573.0313 119.5347,573.3406 Q119.2254,573.65 118.7441,573.65 Q118.3144,573.65 118.0394,573.4609 Q117.7644,573.2719 117.6441,572.7734 Q117.5926,572.4297 117.4035,572.2406 Q117.0597,571.8797 116.441,571.6649 Q115.8222,571.45 115.2035,571.45 Q114.4301,571.45 113.7855,571.7594 Q113.141,572.0688 112.6426,572.7563 Q112.1441,573.4438 112.1441,574.3891 L112.1441,575.4031 Q112.1441,576.5375 113.0722,577.2938 Q114.0004,578.05 115.6504,578.05 Q116.6301,578.05 117.3176,577.8266 Q117.7129,577.7063 118.1597,577.311 Q118.4519,577.0875 118.6066,577.0188 Q118.7613,576.95 118.9504,576.95 Q119.3113,576.95 119.5777,577.2336 Q119.8441,577.5172 119.8441,577.9125 Q119.8441,578.2906 119.466,578.7375 Q118.916,579.3906 118.0394,579.7516 Q116.8879,580.25 115.4785,580.25 Q113.8285,580.25 112.5051,579.5969 Q111.4394,579.0813 110.6918,577.9641 Q109.9441,576.8469 109.9441,575.5234 L109.9441,574.3203 Q109.9441,572.9453 110.6058,571.7422 Q111.2676,570.5391 112.4277,569.8945 Q113.5879,569.25 114.8941,569.25 Q115.6847,569.25 116.3722,569.525 Q117.0597,569.8 117.6441,570.35 Z "/><text fill="#000000" font-family="sans-serif" font-size="13.2" lengthAdjust="spacingAndGlyphs" textLength="91.3" x="130.8441" y="579.6012">SmartEventList</text><!--class SmartCoderList--><rect fill="#FEFECE" height="35.2" id="SmartCoderList" style="stroke: #A80036; stroke-width: 1.6500000357627869;" width="130.9" x="96.7441" y="188.1"/><ellipse cx="113.2441" cy="205.7" fill="#ADD1B2" rx="12.1" ry="12.1" style="stroke: #A80036; stroke-width: 1.100000023841858;"/><path d="M115.4441,201.85 Q115.6676,201.3 115.9254,201.025 Q116.1832,200.75 116.4754,200.75 Q116.991,200.75 117.3176,201.0594 Q117.6441,201.3688 117.6441,202.0906 L117.6441,203.8094 Q117.6441,204.5313 117.3347,204.8406 Q117.0254,205.15 116.5441,205.15 Q116.1144,205.15 115.8394,204.9609 Q115.5644,204.7719 115.4441,204.2734 Q115.3926,203.9297 115.2035,203.7406 Q114.8597,203.3797 114.241,203.1648 Q113.6222,202.95 113.0035,202.95 Q112.2301,202.95 111.5855,203.2594 Q110.941,203.5688 110.4426,204.2563 Q109.9441,204.9438 109.9441,205.8891 L109.9441,206.9031 Q109.9441,208.0375 110.8722,208.7938 Q111.8004,209.55 113.4504,209.55 Q114.4301,209.55 115.1176,209.3266 Q115.5129,209.2063 115.9597,208.8109 Q116.2519,208.5875 116.4066,208.5188 Q116.5613,208.45 116.7504,208.45 Q117.1113,208.45 117.3777,208.7336 Q117.6441,209.0172 117.6441,209.4125 Q117.6441,209.7906 117.266,210.2375 Q116.716,210.8906 115.8394,211.2516 Q114.6879,211.75 113.2785,211.75 Q111.6285,211.75 110.3051,211.0969 Q109.2394,210.5813 108.4918,209.4641 Q107.7441,208.3469 107.7441,207.0234 L107.7441,205.8203 Q107.7441,204.4453 108.4058,203.2422 Q109.0676,202.0391 110.2277,201.3945 Q111.3879,200.75 112.6941,200.75 Q113.4847,200.75 114.1722,201.025 Q114.8597,201.3 115.4441,201.85 Z "/><text fill="#000000" font-family="sans-serif" font-size="13.2" lengthAdjust="spacingAndGlyphs" textLength="95.7" x="128.6441" y="211.1012">SmartCoderList</text><!--class createEventPresenter--><rect fill="#FEFECE" height="35.2" id="createEventPresenter" style="stroke: #A80036; stroke-width: 1.6500000357627869;" width="165" x="520.7939" y="291.5"/><ellipse cx="537.2939" cy="309.1" fill="#ADD1B2" rx="12.1" ry="12.1" style="stroke: #A80036; stroke-width: 1.100000023841858;"/><path d="M539.4939,305.25 Q539.7173,304.7 539.9752,304.425 Q540.233,304.15 540.5252,304.15 Q541.0408,304.15 541.3673,304.4594 Q541.6939,304.7688 541.6939,305.4906 L541.6939,307.2094 Q541.6939,307.9313 541.3845,308.2406 Q541.0752,308.55 540.5939,308.55 Q540.1642,308.55 539.8892,308.3609 Q539.6142,308.1719 539.4939,307.6734 Q539.4423,307.3297 539.2533,307.1406 Q538.9095,306.7797 538.2908,306.5649 Q537.672,306.35 537.0533,306.35 Q536.2798,306.35 535.6353,306.6594 Q534.9908,306.9688 534.4923,307.6563 Q533.9939,308.3438 533.9939,309.2891 L533.9939,310.3031 Q533.9939,311.4375 534.922,312.1938 Q535.8502,312.95 537.5002,312.95 Q538.4798,312.95 539.1673,312.7266 Q539.5627,312.6063 540.0095,312.2109 Q540.3017,311.9875 540.4564,311.9188 Q540.6111,311.85 540.8002,311.85 Q541.1611,311.85 541.4275,312.1336 Q541.6939,312.4172 541.6939,312.8125 Q541.6939,313.1906 541.3158,313.6375 Q540.7658,314.2906 539.8892,314.6516 Q538.7377,315.15 537.3283,315.15 Q535.6783,315.15 534.3548,314.4969 Q533.2892,313.9813 532.5416,312.8641 Q531.7939,311.7469 531.7939,310.4234 L531.7939,309.2203 Q531.7939,307.8453 532.4556,306.6422 Q533.1173,305.4391 534.2775,304.7945 Q535.4377,304.15 536.7439,304.15 Q537.5345,304.15 538.222,304.425 Q538.9095,304.7 539.4939,305.25 Z "/><text fill="#000000" font-family="sans-serif" font-size="13.2" lengthAdjust="spacingAndGlyphs" textLength="129.8" x="552.6939" y="314.5012">createEventPresenter</text><!--class eventListPresenter--><rect fill="#FEFECE" height="35.2" id="eventListPresenter" style="stroke: #A80036; stroke-width: 1.6500000357627869;" width="148.5" x="529.0439" y="365.2"/><ellipse cx="545.5439" cy="382.8" fill="#ADD1B2" rx="12.1" ry="12.1" style="stroke: #A80036; stroke-width: 1.100000023841858;"/><path d="M547.7439,378.95 Q547.9673,378.4 548.2252,378.125 Q548.483,377.85 548.7752,377.85 Q549.2908,377.85 549.6173,378.1594 Q549.9439,378.4688 549.9439,379.1906 L549.9439,380.9094 Q549.9439,381.6313 549.6345,381.9406 Q549.3252,382.25 548.8439,382.25 Q548.4142,382.25 548.1392,382.0609 Q547.8642,381.8719 547.7439,381.3734 Q547.6923,381.0297 547.5033,380.8406 Q547.1595,380.4797 546.5408,380.2649 Q545.922,380.05 545.3033,380.05 Q544.5298,380.05 543.8853,380.3594 Q543.2408,380.6688 542.7423,381.3563 Q542.2439,382.0438 542.2439,382.9891 L542.2439,384.0031 Q542.2439,385.1375 543.172,385.8938 Q544.1002,386.65 545.7502,386.65 Q546.7298,386.65 547.4173,386.4266 Q547.8127,386.3063 548.2595,385.9109 Q548.5517,385.6875 548.7064,385.6188 Q548.8611,385.55 549.0502,385.55 Q549.4111,385.55 549.6775,385.8336 Q549.9439,386.1172 549.9439,386.5125 Q549.9439,386.8906 549.5658,387.3375 Q549.0158,387.9906 548.1392,388.3516 Q546.9877,388.85 545.5783,388.85 Q543.9283,388.85 542.6048,388.1969 Q541.5392,387.6813 540.7916,386.5641 Q540.0439,385.4469 540.0439,384.1234 L540.0439,382.9203 Q540.0439,381.5453 540.7056,380.3422 Q541.3673,379.1391 542.5275,378.4945 Q543.6877,377.85 544.9939,377.85 Q545.7845,377.85 546.472,378.125 Q547.1595,378.4 547.7439,378.95 Z "/><text fill="#000000" font-family="sans-serif" font-size="13.2" lengthAdjust="spacingAndGlyphs" textLength="113.3" x="560.9439" y="388.2012">eventListPresenter</text><!--class eventDetailsPresenter--><rect fill="#FEFECE" height="35.2" id="eventDetailsPresenter" style="stroke: #A80036; stroke-width: 1.6500000357627869;" width="169.4" x="518.5939" y="438.9"/><ellipse cx="535.0939" cy="456.5" fill="#ADD1B2" rx="12.1" ry="12.1" style="stroke: #A80036; stroke-width: 1.100000023841858;"/><path d="M537.2939,452.65 Q537.5173,452.1 537.7752,451.825 Q538.033,451.55 538.3252,451.55 Q538.8408,451.55 539.1673,451.8594 Q539.4939,452.1688 539.4939,452.8906 L539.4939,454.6094 Q539.4939,455.3313 539.1845,455.6406 Q538.8752,455.95 538.3939,455.95 Q537.9642,455.95 537.6892,455.7609 Q537.4142,455.5719 537.2939,455.0734 Q537.2423,454.7297 537.0533,454.5406 Q536.7095,454.1797 536.0908,453.9649 Q535.472,453.75 534.8533,453.75 Q534.0798,453.75 533.4353,454.0594 Q532.7908,454.3688 532.2923,455.0563 Q531.7939,455.7438 531.7939,456.6891 L531.7939,457.7031 Q531.7939,458.8375 532.722,459.5938 Q533.6502,460.35 535.3002,460.35 Q536.2798,460.35 536.9673,460.1266 Q537.3627,460.0063 537.8095,459.6109 Q538.1017,459.3875 538.2564,459.3188 Q538.4111,459.25 538.6002,459.25 Q538.9611,459.25 539.2275,459.5336 Q539.4939,459.8172 539.4939,460.2125 Q539.4939,460.5906 539.1158,461.0375 Q538.5658,461.6906 537.6892,462.0516 Q536.5377,462.55 535.1283,462.55 Q533.4783,462.55 532.1548,461.8969 Q531.0892,461.3813 530.3416,460.2641 Q529.5939,459.1469 529.5939,457.8234 L529.5939,456.6203 Q529.5939,455.2453 530.2556,454.0422 Q530.9173,452.8391 532.0775,452.1945 Q533.2377,451.55 534.5439,451.55 Q535.3345,451.55 536.022,451.825 Q536.7095,452.1 537.2939,452.65 Z "/><text fill="#000000" font-family="sans-serif" font-size="13.2" lengthAdjust="spacingAndGlyphs" textLength="134.2" x="550.4939" y="461.9012">eventDetailsPresenter</text><!--class coderListPresenter--><rect fill="#FEFECE" height="35.2" id="coderListPresenter" style="stroke: #A80036; stroke-width: 1.6500000357627869;" width="150.7" x="527.9439" y="217.8"/><ellipse cx="544.4439" cy="235.4" fill="#ADD1B2" rx="12.1" ry="12.1" style="stroke: #A80036; stroke-width: 1.100000023841858;"/><path d="M546.6439,231.55 Q546.8673,231 547.1252,230.725 Q547.383,230.45 547.6752,230.45 Q548.1908,230.45 548.5173,230.7594 Q548.8439,231.0688 548.8439,231.7906 L548.8439,233.5094 Q548.8439,234.2313 548.5345,234.5406 Q548.2252,234.85 547.7439,234.85 Q547.3142,234.85 547.0392,234.6609 Q546.7642,234.4719 546.6439,233.9734 Q546.5923,233.6297 546.4033,233.4406 Q546.0595,233.0797 545.4408,232.8648 Q544.822,232.65 544.2033,232.65 Q543.4298,232.65 542.7853,232.9594 Q542.1408,233.2688 541.6423,233.9563 Q541.1439,234.6438 541.1439,235.5891 L541.1439,236.6031 Q541.1439,237.7375 542.072,238.4938 Q543.0002,239.25 544.6502,239.25 Q545.6298,239.25 546.3173,239.0266 Q546.7127,238.9063 547.1595,238.5109 Q547.4517,238.2875 547.6064,238.2188 Q547.7611,238.15 547.9502,238.15 Q548.3111,238.15 548.5775,238.4336 Q548.8439,238.7172 548.8439,239.1125 Q548.8439,239.4906 548.4658,239.9375 Q547.9158,240.5906 547.0392,240.9516 Q545.8877,241.45 544.4783,241.45 Q542.8283,241.45 541.5048,240.7969 Q540.4392,240.2813 539.6916,239.1641 Q538.9439,238.0469 538.9439,236.7234 L538.9439,235.5203 Q538.9439,234.1453 539.6056,232.9422 Q540.2673,231.7391 541.4275,231.0945 Q542.5877,230.45 543.8939,230.45 Q544.6845,230.45 545.372,230.725 Q546.0595,231 546.6439,231.55 Z "/><text fill="#000000" font-family="sans-serif" font-size="13.2" lengthAdjust="spacingAndGlyphs" textLength="115.5" x="559.8439" y="240.8012">coderListPresenter</text><!--class model--><rect fill="#FEFECE" height="35.2" id="model" style="stroke: #A80036; stroke-width: 1.6500000357627869;" width="73.7" x="952.5439" y="511.5"/><ellipse cx="969.0439" cy="529.1" fill="#ADD1B2" rx="12.1" ry="12.1" style="stroke: #A80036; stroke-width: 1.100000023841858;"/><path d="M971.2439,525.25 Q971.4674,524.7 971.7252,524.425 Q971.983,524.15 972.2752,524.15 Q972.7908,524.15 973.1174,524.4594 Q973.4439,524.7688 973.4439,525.4906 L973.4439,527.2094 Q973.4439,527.9313 973.1345,528.2406 Q972.8252,528.55 972.3439,528.55 Q971.9142,528.55 971.6392,528.3609 Q971.3642,528.1719 971.2439,527.6734 Q971.1924,527.3297 971.0033,527.1406 Q970.6595,526.7797 970.0408,526.5649 Q969.422,526.35 968.8033,526.35 Q968.0299,526.35 967.3853,526.6594 Q966.7408,526.9688 966.2424,527.6563 Q965.7439,528.3438 965.7439,529.2891 L965.7439,530.3031 Q965.7439,531.4375 966.672,532.1938 Q967.6002,532.95 969.2502,532.95 Q970.2299,532.95 970.9174,532.7266 Q971.3127,532.6063 971.7595,532.2109 Q972.0517,531.9875 972.2064,531.9188 Q972.3611,531.85 972.5502,531.85 Q972.9111,531.85 973.1775,532.1336 Q973.4439,532.4172 973.4439,532.8125 Q973.4439,533.1906 973.0658,533.6375 Q972.5158,534.2906 971.6392,534.6516 Q970.4877,535.15 969.0783,535.15 Q967.4283,535.15 966.1049,534.4969 Q965.0392,533.9813 964.2916,532.8641 Q963.5439,531.7469 963.5439,530.4234 L963.5439,529.2203 Q963.5439,527.8453 964.2056,526.6422 Q964.8674,525.4391 966.0275,524.7945 Q967.1877,524.15 968.4939,524.15 Q969.2845,524.15 969.972,524.425 Q970.6595,524.7 971.2439,525.25 Z "/><text fill="#000000" font-family="sans-serif" font-size="13.2" lengthAdjust="spacingAndGlyphs" textLength="38.5" x="984.4439" y="534.5012">model</text><!--class EventEmitter--><rect fill="#FEFECE" height="35.2" id="EventEmitter" style="stroke: #A80036; stroke-width: 1.6500000357627869;" width="111.1" x="759.4939" y="511.5"/><ellipse cx="775.9939" cy="529.1" fill="#ADD1B2" rx="12.1" ry="12.1" style="stroke: #A80036; stroke-width: 1.100000023841858;"/><path d="M778.1939,525.25 Q778.4174,524.7 778.6752,524.425 Q778.933,524.15 779.2252,524.15 Q779.7408,524.15 780.0674,524.4594 Q780.3939,524.7688 780.3939,525.4906 L780.3939,527.2094 Q780.3939,527.9313 780.0845,528.2406 Q779.7752,528.55 779.2939,528.55 Q778.8642,528.55 778.5892,528.3609 Q778.3142,528.1719 778.1939,527.6734 Q778.1424,527.3297 777.9533,527.1406 Q777.6095,526.7797 776.9908,526.5649 Q776.372,526.35 775.7533,526.35 Q774.9799,526.35 774.3353,526.6594 Q773.6908,526.9688 773.1924,527.6563 Q772.6939,528.3438 772.6939,529.2891 L772.6939,530.3031 Q772.6939,531.4375 773.622,532.1938 Q774.5502,532.95 776.2002,532.95 Q777.1799,532.95 777.8674,532.7266 Q778.2627,532.6063 778.7095,532.2109 Q779.0017,531.9875 779.1564,531.9188 Q779.3111,531.85 779.5002,531.85 Q779.8611,531.85 780.1275,532.1336 Q780.3939,532.4172 780.3939,532.8125 Q780.3939,533.1906 780.0158,533.6375 Q779.4658,534.2906 778.5892,534.6516 Q777.4377,535.15 776.0283,535.15 Q774.3783,535.15 773.0549,534.4969 Q771.9892,533.9813 771.2416,532.8641 Q770.4939,531.7469 770.4939,530.4234 L770.4939,529.2203 Q770.4939,527.8453 771.1556,526.6422 Q771.8174,525.4391 772.9775,524.7945 Q774.1377,524.15 775.4439,524.15 Q776.2345,524.15 776.922,524.425 Q777.6095,524.7 778.1939,525.25 Z "/><text fill="#000000" font-family="sans-serif" font-size="13.2" lengthAdjust="spacingAndGlyphs" textLength="75.9" x="791.3939" y="534.5012">EventEmitter</text><!--class RestClient--><rect fill="#FEFECE" height="35.2" id="RestClient" style="stroke: #A80036; stroke-width: 1.6500000357627869;" width="99" x="939.8939" y="630.3"/><ellipse cx="956.3939" cy="647.9" fill="#ADD1B2" rx="12.1" ry="12.1" style="stroke: #A80036; stroke-width: 1.100000023841858;"/><path d="M958.5939,644.05 Q958.8174,643.5 959.0752,643.225 Q959.333,642.95 959.6252,642.95 Q960.1408,642.95 960.4674,643.2594 Q960.7939,643.5688 960.7939,644.2906 L960.7939,646.0094 Q960.7939,646.7313 960.4845,647.0406 Q960.1752,647.35 959.6939,647.35 Q959.2642,647.35 958.9892,647.161 Q958.7142,646.9719 958.5939,646.4735 Q958.5424,646.1297 958.3533,645.9406 Q958.0095,645.5797 957.3908,645.3649 Q956.772,645.15 956.1533,645.15 Q955.3799,645.15 954.7353,645.4594 Q954.0908,645.7688 953.5924,646.4563 Q953.0939,647.1438 953.0939,648.0891 L953.0939,649.1031 Q953.0939,650.2375 954.022,650.9938 Q954.9502,651.75 956.6002,651.75 Q957.5799,651.75 958.2674,651.5266 Q958.6627,651.4063 959.1095,651.011 Q959.4017,650.7875 959.5564,650.7188 Q959.7111,650.65 959.9002,650.65 Q960.2611,650.65 960.5275,650.9336 Q960.7939,651.2172 960.7939,651.6125 Q960.7939,651.9906 960.4158,652.4375 Q959.8658,653.0906 958.9892,653.4516 Q957.8377,653.95 956.4283,653.95 Q954.7783,653.95 953.4549,653.2969 Q952.3892,652.7813 951.6416,651.6641 Q950.8939,650.5469 950.8939,649.2235 L950.8939,648.0203 Q950.8939,646.6453 951.5556,645.4422 Q952.2174,644.2391 953.3775,643.5945 Q954.5377,642.95 955.8439,642.95 Q956.6345,642.95 957.322,643.225 Q958.0095,643.5 958.5939,644.05 Z "/><text fill="#000000" font-family="sans-serif" font-size="13.2" lengthAdjust="spacingAndGlyphs" textLength="63.8" x="971.7939" y="653.3012">RestClient</text><!--link EventEmitter to model--><path d="M892.8964,529.1 C913.5115,529.1 934.8471,529.1 952.1006,529.1 " fill="none" id="EventEmitter-model" style="stroke: #A80036; stroke-width: 1.100000023841858;"/><polygon fill="none" points="892.6137,536.8,870.6137,529.1,892.6137,521.4,892.6137,536.8" style="stroke: #A80036; stroke-width: 1.100000023841858;"/><!--link createEventPresenter to model--><path d="M700.403,320.2254 C752.8466,329.0738 817.6905,344.6641 870.5939,371.8 C929.4703,401.9983 966.7053,476.762 981.2869,511.2041 " fill="none" id="createEventPresenter-model" style="stroke: #A80036; stroke-width: 1.100000023841858;"/><polygon fill="#FFFFFF" points="685.9611,317.9044,691.7792,323.296,698.9938,319.9992,693.1757,314.6075,685.9611,317.9044" style="stroke: #A80036; stroke-width: 1.100000023841858;"/><!--link eventListPresenter to model--><path d="M692.3257,370.2952 C756.404,365.8424 842.523,369.985 904.6939,411.4 C942.4503,436.5504 968.6072,484.9746 980.694,511.1887 " fill="none" id="eventListPresenter-model" style="stroke: #A80036; stroke-width: 1.100000023841858;"/><polygon fill="#FFFFFF" points="677.7738,371.4777,684.7085,375.3287,690.9305,370.4086,683.9958,366.5576,677.7738,371.4777" style="stroke: #A80036; stroke-width: 1.100000023841858;"/><!--link eventDetailsPresenter to model--><path d="M670.1211,434.8971 C690.1147,429.3135 712.3028,424.0918 733.0939,421.3 C808.6826,411.1492 836.2068,387.7434 904.6939,421.3 C942.9761,440.0572 968.7546,485.7314 980.6863,511.1975 " fill="none" id="eventDetailsPresenter-model" style="stroke: #A80036; stroke-width: 1.100000023841858;"/><polygon fill="#FFFFFF" points="656.3392,438.8945,663.9037,441.2818,669.0167,435.2175,661.4523,432.8301,656.3392,438.8945" style="stroke: #A80036; stroke-width: 1.100000023841858;"/><!--link coderListPresenter to model--><path d="M692.8944,255.7665 C748.2464,271.7869 818.6431,298.4608 870.5939,339.9 C930.3217,387.5432 967.945,474.2837 982.0217,511.4395 " fill="none" id="coderListPresenter-model" style="stroke: #A80036; stroke-width: 1.100000023841858;"/><polygon fill="#FFFFFF" points="678.8034,251.823,683.9732,257.8391,691.5149,255.3809,686.3451,249.3648,678.8034,251.823" style="stroke: #A80036; stroke-width: 1.100000023841858;"/><!--link SmartAddEvent to model--><path d="M213.0524,335.4593 C228.9298,329.5226 246.4781,322.6377 262.2939,315.7 C367.0106,269.7651 380.93,226.578 492.1939,200.2 C588.2866,177.419 619.2769,173.6427 714.3939,200.2 C792.5654,222.0262 815.5158,235.1877 870.5939,294.8 C930.4361,359.568 967.1079,460.4743 981.4101,505.7426 " fill="none" id="SmartAddEvent-model" style="stroke: #A80036; stroke-width: 1.100000023841858;"/><polygon fill="#A80036" points="983.1217,511.2382,984.3784,500.4776,981.486,505.9871,975.9766,503.0947,983.1217,511.2382" style="stroke: #A80036; stroke-width: 1.100000023841858;"/><text fill="#000000" font-family="sans-serif" font-size="14.3" lengthAdjust="spacingAndGlyphs" textLength="73.7" x="408.5939" y="199.6446">addListener</text><!--link SmartEventDetails to model--><path d="M236.3537,654.3095 C351.505,660.3231 576.2867,654.9556 714.3939,540.1 C731.775,525.646 714.4005,505.5105 733.0939,492.8 C799.238,447.8243 897.4196,483.3455 950.6607,508.8853 " fill="none" id="SmartEventDetails-model" style="stroke: #A80036; stroke-width: 1.100000023841858;"/><polygon fill="#A80036" points="955.6701,511.3218,948.6926,503.0342,950.7243,508.9157,944.8428,510.9475,955.6701,511.3218" style="stroke: #A80036; stroke-width: 1.100000023841858;"/><text fill="#000000" font-family="sans-serif" font-size="14.3" lengthAdjust="spacingAndGlyphs" textLength="73.7" x="408.5939" y="635.2446">addListener</text><!--link SmartEventList to model--><path d="M212.1944,556.4427 C228.1829,550.5907 246.0139,544.0149 262.2939,537.9 C281.4174,530.717 285.2575,525.8539 305.1939,521.4 C483.1519,481.6405 558.0575,585.5542 714.3939,491.7 C727.7677,483.6711 719.4385,469.5394 733.0939,462 C799.8617,425.139 832.7473,436.6978 904.6939,462 C930.05,470.9166 953.4041,491.128 968.9449,507.0527 " fill="none" id="SmartEventList-model" style="stroke: #A80036; stroke-width: 1.100000023841858;"/><polygon fill="#A80036" points="973.1161,511.4175,969.4547,501.2212,969.3152,507.4422,963.0942,507.3027,973.1161,511.4175" style="stroke: #A80036; stroke-width: 1.100000023841858;"/><text fill="#000000" font-family="sans-serif" font-size="14.3" lengthAdjust="spacingAndGlyphs" textLength="73.7" x="408.5939" y="507.6446">addListener</text><!--link SmartCoderList to model--><path d="M227.986,188.4344 C240.2081,183.2622 252.2817,176.6622 262.2939,168.3 C290.7388,144.5455 268.1349,96.8 305.1939,96.8 C305.1939,96.8 305.1939,96.8 816.1439,96.8 C904.8765,96.8 968.088,415.1268 984.2393,505.4599 " fill="none" id="SmartCoderList-model" style="stroke: #A80036; stroke-width: 1.100000023841858;"/><polygon fill="#A80036" points="985.2348,511.0754,987.8389,500.5593,984.2746,505.6599,979.174,502.0956,985.2348,511.0754" style="stroke: #A80036; stroke-width: 1.100000023841858;"/><text fill="#000000" font-family="sans-serif" font-size="14.3" lengthAdjust="spacingAndGlyphs" textLength="73.7" x="408.5939" y="92.9446">addListener</text><!--link SmartAddEvent to AddEvent--><path d="M162.1939,320.7193 C162.1939,312.9093 162.1939,305.0993 162.1939,297.2893 " fill="none" id="SmartAddEvent-AddEvent" style="stroke: #A80036; stroke-width: 1.100000023841858;"/><polygon fill="#FFFFFF" points="162.1939,335.2503,166.5939,328.6503,162.1939,322.0503,157.7939,328.6503,162.1939,335.2503" style="stroke: #A80036; stroke-width: 1.100000023841858;"/><!--link SmartEventDetails to EventDetails--><path d="M74.3184,637.8602 C50.0775,629.9416 28.0024,616.1606 19.1941,592.35 C2.4019,546.9563 2.4019,528.8437 19.1941,483.45 C23.1036,472.8812 26.2368,470.3259 35.6941,464.2 C56.9335,450.4412 83.406,441.5928 106.6368,435.9773 " fill="none" id="SmartEventDetails-EventDetails" style="stroke: #A80036; stroke-width: 1.100000023841858;"/><polygon fill="#FFFFFF" points="88.3457,641.7798,83.1734,635.766,75.6327,638.2275,80.8051,644.2413,88.3457,641.7798" style="stroke: #A80036; stroke-width: 1.100000023841858;"/><!--link SmartEventList to EventList--><path d="M162.1939,541.8193 C162.1939,534.0093 162.1939,526.1993 162.1939,518.3893 " fill="none" id="SmartEventList-EventList" style="stroke: #A80036; stroke-width: 1.100000023841858;"/><polygon fill="#FFFFFF" points="162.1939,556.3503,166.5939,549.7503,162.1939,543.1503,157.7939,549.7503,162.1939,556.3503" style="stroke: #A80036; stroke-width: 1.100000023841858;"/><!--link SmartCoderList to CoderList--><path d="M162.1939,173.3193 C162.1939,165.5093 162.1939,157.6993 162.1939,149.8893 " fill="none" id="SmartCoderList-CoderList" style="stroke: #A80036; stroke-width: 1.100000023841858;"/><polygon fill="#FFFFFF" points="162.1939,187.8503,166.5939,181.2503,162.1939,174.6503,157.7939,181.2503,162.1939,187.8503" style="stroke: #A80036; stroke-width: 1.100000023841858;"/><!--link SmartAddEvent to createEventPresenter--><path d="M226.1776,346.7959 C302.0215,339.1927 429.9262,326.37 515.1993,317.8208 " fill="none" id="SmartAddEvent-createEventPresenter" style="stroke: #A80036; stroke-width: 1.100000023841858; stroke-dasharray: 7.0,7.0;"/><polygon fill="#A80036" points="520.7532,317.2642,510.4628,313.8764,515.2808,317.8143,511.3429,322.6323,520.7532,317.2642" style="stroke: #A80036; stroke-width: 1.100000023841858;"/><!--link SmartEventDetails to eventDetailsPresenter--><path d="M235.9621,631.3161 C245.9138,626.3667 255.1483,619.9414 262.2939,611.6 C275.2684,596.4552 259.292,583.6754 271.0939,567.6 C312.0106,511.8685 342.3816,516.0507 407.4939,492.8 C440.8602,480.8859 478.9092,472.6821 512.4658,467.1315 " fill="none" id="SmartEventDetails-eventDetailsPresenter" style="stroke: #A80036; stroke-width: 1.100000023841858; stroke-dasharray: 7.0,7.0;"/><polygon fill="#A80036" points="518.2419,466.1943,507.7655,463.435,512.8128,467.0743,509.1734,472.1216,518.2419,466.1943" style="stroke: #A80036; stroke-width: 1.100000023841858;"/><!--link SmartEventList to eventListPresenter--><path d="M225.5363,562.4828 C239.4161,557.1181 252.8097,549.2982 262.2939,537.9 C277.2022,519.9832 255.7544,503.7483 271.0939,486.2 C334.1536,414.062 446.7221,391.6528 522.9026,385.0231 " fill="none" id="SmartEventList-eventListPresenter" style="stroke: #A80036; stroke-width: 1.100000023841858; stroke-dasharray: 7.0,7.0;"/><polygon fill="#A80036" points="528.781,384.5358,518.5525,380.9654,523.2997,384.9884,519.2767,389.7355,528.781,384.5358" style="stroke: #A80036; stroke-width: 1.100000023841858;"/><!--link SmartCoderList to coderListPresenter--><path d="M228.0553,210.0824 C306.2202,215.3712 437.6592,224.2658 522.115,229.9814 " fill="none" id="SmartCoderList-coderListPresenter" style="stroke: #A80036; stroke-width: 1.100000023841858; stroke-dasharray: 7.0,7.0;"/><polygon fill="#A80036" points="527.6084,230.3532,518.0276,225.2957,522.1209,229.9823,517.4343,234.0756,527.6084,230.3532" style="stroke: #A80036; stroke-width: 1.100000023841858;"/><!--link model to RestClient--><path d="M989.3939,561.2145 C989.3939,584.232 989.3939,607.2484 989.3939,630.2656 " fill="none" id="model-RestClient" style="stroke: #A80036; stroke-width: 1.100000023841858;"/><polygon fill="#A80036" points="989.3939,546.8826,984.9939,553.4826,989.3939,560.0826,993.7939,553.4826,989.3939,546.8826" style="stroke: #A80036; stroke-width: 1.100000023841858;"/><!--
@startuml
hide members
hide methods
'hide circle
'skinparam monochrome true
skinparam shadowing false
left to right direction
skinparam dpi 1200

package client {
    package view {
        class AddEvent
        class EventDetails
        class EventList
        class CoderList

        class SmartAddEvent
        class SmartEventDetails
        class SmartEventList
        class SmartCoderList
    }

    package presenter {
        class createEventPresenter
        class eventListPresenter
        class eventDetailsPresenter
        class coderListPresenter
    }

    package model {
        class model extends EventEmitter
    }

    package rest_client {
        class RestClient
    }
}



createEventPresenter o- - - model
eventListPresenter o- model
eventDetailsPresenter o- model
coderListPresenter o- model

SmartAddEvent - - - -> model : addListener
SmartEventDetails -> model : addListener
SmartEventList -> model : addListener
SmartCoderList -> model : addListener

SmartAddEvent o- AddEvent
SmartEventDetails o- EventDetails
SmartEventList o- EventList
SmartCoderList o- CoderList

SmartAddEvent ....> createEventPresenter
SmartEventDetails .> eventDetailsPresenter
SmartEventList .> eventListPresenter
SmartCoderList .> coderListPresenter

model *- RestClient
@enduml

PlantUML version 1.2017.15(Mon Jul 03 19:45:34 EEST 2017)
(GPL source distribution)
Java Runtime: OpenJDK Runtime Environment
JVM: OpenJDK 64-Bit Server VM
Java Version: 1.8.0_152-release-1343-b28
Operating System: Windows 8.1
OS Version: 6.3
Default Encoding: Cp1252
Language: en
Country: US
--></g></svg>