<?xml version="1.0" encoding="UTF-8" standalone="no"?><svg xmlns="http://www.w3.org/2000/svg" xmlns:xlink="http://www.w3.org/1999/xlink" contentScriptType="application/ecmascript" contentStyleType="text/css" height="572.8px" preserveAspectRatio="none" style="width:1037px;height:572px;" version="1.1" viewBox="0 0 1037 572" width="1037.6px" zoomAndPan="magnify"><defs/><g><rect fill="#FFFFFF" height="389.5375" style="stroke: #A80036; stroke-width: 0.800000011920929;" width="8" x="116.8" y="105.2875"/><rect fill="#FFFFFF" height="357.775" style="stroke: #A80036; stroke-width: 0.800000011920929;" width="8" x="241.6" y="129.85"/><rect fill="#FFFFFF" height="322.2938" style="stroke: #A80036; stroke-width: 0.800000011920929;" width="8" x="344.8" y="154.1313"/><rect fill="#FFFFFF" height="286.8125" style="stroke: #A80036; stroke-width: 0.800000011920929;" width="8" x="448" y="178.4125"/><rect fill="#FFFFFF" height="251.05" style="stroke: #A80036; stroke-width: 0.800000011920929;" width="8" x="559.2" y="202.6938"/><rect fill="#FFFFFF" height="202.7688" style="stroke: #A80036; stroke-width: 0.800000011920929;" width="8" x="702.4" y="226.975"/><rect fill="#FFFFFF" height="22.4" style="stroke: #A80036; stroke-width: 0.800000011920929;" width="8" x="706.4" y="354.7813"/><rect fill="#FFFFFF" height="24.2813" style="stroke: #A80036; stroke-width: 0.800000011920929;" width="8" x="868" y="251.2563"/><rect fill="#FFFFFF" height="11.4813" style="stroke: #A80036; stroke-width: 0.800000011920929;" width="8" x="868" y="407.0625"/><rect fill="#FFFFFF" height="24.2813" style="stroke: #A80036; stroke-width: 0.800000011920929;" width="8" x="974.8" y="299.8188"/><line style="stroke: #A80036; stroke-width: 0.800000011920929; stroke-dasharray: 5.0,5.0;" x1="23.2" x2="23.2" y1="66.8875" y2="502.025"/><line style="stroke: #A80036; stroke-width: 0.800000011920929; stroke-dasharray: 5.0,5.0;" x1="120.8" x2="120.8" y1="66.8875" y2="502.025"/><line style="stroke: #A80036; stroke-width: 0.800000011920929; stroke-dasharray: 5.0,5.0;" x1="245.6" x2="245.6" y1="66.8875" y2="502.025"/><line style="stroke: #A80036; stroke-width: 0.800000011920929; stroke-dasharray: 5.0,5.0;" x1="348.8" x2="348.8" y1="66.8875" y2="502.025"/><line style="stroke: #A80036; stroke-width: 0.800000011920929; stroke-dasharray: 5.0,5.0;" x1="451.6" x2="451.6" y1="66.8875" y2="502.025"/><line style="stroke: #A80036; stroke-width: 0.800000011920929; stroke-dasharray: 5.0,5.0;" x1="563.2" x2="563.2" y1="66.8875" y2="502.025"/><line style="stroke: #A80036; stroke-width: 0.800000011920929; stroke-dasharray: 5.0,5.0;" x1="706" x2="706" y1="66.8875" y2="502.025"/><line style="stroke: #A80036; stroke-width: 0.800000011920929; stroke-dasharray: 5.0,5.0;" x1="872" x2="872" y1="66.8875" y2="502.025"/><line style="stroke: #A80036; stroke-width: 0.800000011920929; stroke-dasharray: 5.0,5.0;" x1="978.4" x2="978.4" y1="66.8875" y2="502.025"/><text fill="#000000" font-family="sans-serif" font-size="11.2" lengthAdjust="spacingAndGlyphs" textLength="28.8" x="6.4" y="64.4266">coder</text><ellipse cx="23.2" cy="10.4" fill="#FEFECE" rx="6.4" ry="6.4" style="stroke: #A80036; stroke-width: 1.600000023841858;"/><path d="M23.2,16.8 L23.2,38.4 M12.8,23.2 L33.6,23.2 M23.2,38.4 L12.8,50.4 M23.2,38.4 L33.6,50.4 " fill="#FEFECE" style="stroke: #A80036; stroke-width: 1.600000023841858;"/><text fill="#000000" font-family="sans-serif" font-size="11.2" lengthAdjust="spacingAndGlyphs" textLength="28.8" x="6.4" y="512.8516">coder</text><ellipse cx="23.2" cy="523.3125" fill="#FEFECE" rx="6.4" ry="6.4" style="stroke: #A80036; stroke-width: 1.600000023841858;"/><path d="M23.2,529.7125 L23.2,551.3125 M12.8,536.1125 L33.6,536.1125 M23.2,551.3125 L12.8,563.3125 M23.2,551.3125 L33.6,563.3125 " fill="#FEFECE" style="stroke: #A80036; stroke-width: 1.600000023841858;"/><rect fill="#FEFECE" height="25.2875" style="stroke: #A80036; stroke-width: 1.2000000178813934;" width="107.2" x="67.2" y="40.8"/><text fill="#000000" font-family="sans-serif" font-size="11.2" lengthAdjust="spacingAndGlyphs" textLength="96" x="72.8" y="58.0266">:SmartEventDetails</text><rect fill="#FEFECE" height="25.2875" style="stroke: #A80036; stroke-width: 1.2000000178813934;" width="107.2" x="67.2" y="501.225"/><text fill="#000000" font-family="sans-serif" font-size="11.2" lengthAdjust="spacingAndGlyphs" textLength="96" x="72.8" y="518.4516">:SmartEventDetails</text><rect fill="#FEFECE" height="25.2875" style="stroke: #A80036; stroke-width: 1.2000000178813934;" width="126.4" x="182.4" y="40.8"/><text fill="#000000" font-family="sans-serif" font-size="11.2" lengthAdjust="spacingAndGlyphs" textLength="115.2" x="188" y="58.0266">:eventDetailsPresenter</text><rect fill="#FEFECE" height="25.2875" style="stroke: #A80036; stroke-width: 1.2000000178813934;" width="126.4" x="182.4" y="501.225"/><text fill="#000000" font-family="sans-serif" font-size="11.2" lengthAdjust="spacingAndGlyphs" textLength="115.2" x="188" y="518.4516">:eventDetailsPresenter</text><rect fill="#FEFECE" height="25.2875" style="stroke: #A80036; stroke-width: 1.2000000178813934;" width="44.8" x="326.4" y="40.8"/><text fill="#000000" font-family="sans-serif" font-size="11.2" lengthAdjust="spacingAndGlyphs" textLength="33.6" x="332" y="58.0266">:model</text><rect fill="#FEFECE" height="25.2875" style="stroke: #A80036; stroke-width: 1.2000000178813934;" width="44.8" x="326.4" y="501.225"/><text fill="#000000" font-family="sans-serif" font-size="11.2" lengthAdjust="spacingAndGlyphs" textLength="33.6" x="332" y="518.4516">:model</text><rect fill="#FEFECE" height="25.2875" style="stroke: #A80036; stroke-width: 1.2000000178813934;" width="66.4" x="418.8" y="40.8"/><text fill="#000000" font-family="sans-serif" font-size="11.2" lengthAdjust="spacingAndGlyphs" textLength="55.2" x="424.4" y="58.0266">:RestClient</text><rect fill="#FEFECE" height="25.2875" style="stroke: #A80036; stroke-width: 1.2000000178813934;" width="66.4" x="418.8" y="501.225"/><text fill="#000000" font-family="sans-serif" font-size="11.2" lengthAdjust="spacingAndGlyphs" textLength="55.2" x="424.4" y="518.4516">:RestClient</text><rect fill="#FEFECE" height="25.2875" style="stroke: #A80036; stroke-width: 1.2000000178813934;" width="92.8" x="516.8" y="40.8"/><text fill="#000000" font-family="sans-serif" font-size="11.2" lengthAdjust="spacingAndGlyphs" textLength="81.6" x="522.4" y="58.0266">:EventController</text><rect fill="#FEFECE" height="25.2875" style="stroke: #A80036; stroke-width: 1.2000000178813934;" width="92.8" x="516.8" y="501.225"/><text fill="#000000" font-family="sans-serif" font-size="11.2" lengthAdjust="spacingAndGlyphs" textLength="81.6" x="522.4" y="518.4516">:EventController</text><rect fill="#FEFECE" height="25.2875" style="stroke: #A80036; stroke-width: 1.2000000178813934;" width="146.4" x="633.2" y="40.8"/><text fill="#000000" font-family="sans-serif" font-size="11.2" lengthAdjust="spacingAndGlyphs" textLength="135.2" x="638.8" y="58.0266">:EventManagementService</text><rect fill="#FEFECE" height="25.2875" style="stroke: #A80036; stroke-width: 1.2000000178813934;" width="146.4" x="633.2" y="501.225"/><text fill="#000000" font-family="sans-serif" font-size="11.2" lengthAdjust="spacingAndGlyphs" textLength="135.2" x="638.8" y="518.4516">:EventManagementService</text><rect fill="#FEFECE" height="25.2875" style="stroke: #A80036; stroke-width: 1.2000000178813934;" width="97.6" x="823.2" y="40.8"/><text fill="#000000" font-family="sans-serif" font-size="11.2" lengthAdjust="spacingAndGlyphs" textLength="86.4" x="828.8" y="58.0266">:EventRepository</text><rect fill="#FEFECE" height="25.2875" style="stroke: #A80036; stroke-width: 1.2000000178813934;" width="97.6" x="823.2" y="501.225"/><text fill="#000000" font-family="sans-serif" font-size="11.2" lengthAdjust="spacingAndGlyphs" textLength="86.4" x="828.8" y="518.4516">:EventRepository</text><rect fill="#FEFECE" height="25.2875" style="stroke: #A80036; stroke-width: 1.2000000178813934;" width="100" x="928.8" y="40.8"/><text fill="#000000" font-family="sans-serif" font-size="11.2" lengthAdjust="spacingAndGlyphs" textLength="88.8" x="934.4" y="58.0266">:CoderRepository</text><rect fill="#FEFECE" height="25.2875" style="stroke: #A80036; stroke-width: 1.2000000178813934;" width="100" x="928.8" y="501.225"/><text fill="#000000" font-family="sans-serif" font-size="11.2" lengthAdjust="spacingAndGlyphs" textLength="88.8" x="934.4" y="518.4516">:CoderRepository</text><rect fill="#FFFFFF" height="389.5375" style="stroke: #A80036; stroke-width: 0.800000011920929;" width="8" x="116.8" y="105.2875"/><rect fill="#FFFFFF" height="357.775" style="stroke: #A80036; stroke-width: 0.800000011920929;" width="8" x="241.6" y="129.85"/><rect fill="#FFFFFF" height="322.2938" style="stroke: #A80036; stroke-width: 0.800000011920929;" width="8" x="344.8" y="154.1313"/><rect fill="#FFFFFF" height="286.8125" style="stroke: #A80036; stroke-width: 0.800000011920929;" width="8" x="448" y="178.4125"/><rect fill="#FFFFFF" height="251.05" style="stroke: #A80036; stroke-width: 0.800000011920929;" width="8" x="559.2" y="202.6938"/><rect fill="#FFFFFF" height="202.7688" style="stroke: #A80036; stroke-width: 0.800000011920929;" width="8" x="702.4" y="226.975"/><rect fill="#FFFFFF" height="22.4" style="stroke: #A80036; stroke-width: 0.800000011920929;" width="8" x="706.4" y="354.7813"/><rect fill="#FFFFFF" height="24.2813" style="stroke: #A80036; stroke-width: 0.800000011920929;" width="8" x="868" y="251.2563"/><rect fill="#FFFFFF" height="11.4813" style="stroke: #A80036; stroke-width: 0.800000011920929;" width="8" x="868" y="407.0625"/><rect fill="#FFFFFF" height="24.2813" style="stroke: #A80036; stroke-width: 0.800000011920929;" width="8" x="974.8" y="299.8188"/><polygon fill="#A80036" points="107.2,102.0875,115.2,105.2875,107.2,108.4875,110.4,105.2875" style="stroke: #A80036; stroke-width: 0.800000011920929;"/><line style="stroke: #A80036; stroke-width: 0.800000011920929;" x1="23.2" x2="112" y1="105.2875" y2="105.2875"/><text fill="#000000" font-family="sans-serif" font-size="10.4" lengthAdjust="spacingAndGlyphs" textLength="78.4" x="28.8" y="88.8836">click "Join event"</text><text fill="#000000" font-family="sans-serif" font-size="10.4" lengthAdjust="spacingAndGlyphs" textLength="28.8" x="28.8" y="101.9648">button</text><polygon fill="#A80036" points="232,126.65,240,129.85,232,133.05,235.2,129.85" style="stroke: #A80036; stroke-width: 0.800000011920929;"/><line style="stroke: #A80036; stroke-width: 0.800000011920929;" x1="124.8" x2="236.8" y1="129.85" y2="129.85"/><text fill="#000000" font-family="sans-serif" font-size="10.4" lengthAdjust="spacingAndGlyphs" textLength="93.6" x="130.4" y="126.2461">onJoinEvent(eventId)</text><polygon fill="#A80036" points="335.2,150.9313,343.2,154.1313,335.2,157.3313,338.4,154.1313" style="stroke: #A80036; stroke-width: 0.800000011920929;"/><line style="stroke: #A80036; stroke-width: 0.800000011920929;" x1="249.6" x2="340" y1="154.1313" y2="154.1313"/><text fill="#000000" font-family="sans-serif" font-size="10.4" lengthAdjust="spacingAndGlyphs" textLength="80" x="255.2" y="150.5273">joinEvent(eventId)</text><polygon fill="#A80036" points="438.4,175.2125,446.4,178.4125,438.4,181.6125,441.6,178.4125" style="stroke: #A80036; stroke-width: 0.800000011920929;"/><line style="stroke: #A80036; stroke-width: 0.800000011920929;" x1="352.8" x2="443.2" y1="178.4125" y2="178.4125"/><text fill="#000000" font-family="sans-serif" font-size="10.4" lengthAdjust="spacingAndGlyphs" textLength="80" x="358.4" y="174.8086">joinEvent(eventId)</text><polygon fill="#A80036" points="549.6,199.4938,557.6,202.6938,549.6,205.8938,552.8,202.6938" style="stroke: #A80036; stroke-width: 0.800000011920929;"/><line style="stroke: #A80036; stroke-width: 0.800000011920929;" x1="456" x2="554.4" y1="202.6938" y2="202.6938"/><text fill="#000000" font-family="sans-serif" font-size="10.4" lengthAdjust="spacingAndGlyphs" textLength="88" x="461.6" y="199.0898">/event/{eventId}/join</text><polygon fill="#A80036" points="692.8,223.775,700.8,226.975,692.8,230.175,696,226.975" style="stroke: #A80036; stroke-width: 0.800000011920929;"/><line style="stroke: #A80036; stroke-width: 0.800000011920929;" x1="567.2" x2="697.6" y1="226.975" y2="226.975"/><text fill="#000000" font-family="sans-serif" font-size="10.4" lengthAdjust="spacingAndGlyphs" textLength="120" x="572.8" y="223.3711">joinEvent(coderId, eventId)</text><polygon fill="#A80036" points="858.4,248.0563,866.4,251.2563,858.4,254.4563,861.6,251.2563" style="stroke: #A80036; stroke-width: 0.800000011920929;"/><line style="stroke: #A80036; stroke-width: 0.800000011920929;" x1="710.4" x2="863.2" y1="251.2563" y2="251.2563"/><text fill="#000000" font-family="sans-serif" font-size="10.4" lengthAdjust="spacingAndGlyphs" textLength="75.2" x="716" y="247.6523">findById(eventId)</text><polygon fill="#A80036" points="719.2,272.3375,711.2,275.5375,719.2,278.7375,716,275.5375" style="stroke: #A80036; stroke-width: 0.800000011920929;"/><line style="stroke: #A80036; stroke-width: 0.800000011920929; stroke-dasharray: 2.0,2.0;" x1="714.4" x2="871.2" y1="275.5375" y2="275.5375"/><text fill="#000000" font-family="sans-serif" font-size="10.4" lengthAdjust="spacingAndGlyphs" textLength="24" x="724" y="271.9336">event</text><polygon fill="#A80036" points="965.2,296.6188,973.2,299.8188,965.2,303.0188,968.4,299.8188" style="stroke: #A80036; stroke-width: 0.800000011920929;"/><line style="stroke: #A80036; stroke-width: 0.800000011920929;" x1="710.4" x2="970" y1="299.8188" y2="299.8188"/><text fill="#000000" font-family="sans-serif" font-size="10.4" lengthAdjust="spacingAndGlyphs" textLength="76.8" x="716" y="296.2148">findById(coderId)</text><polygon fill="#A80036" points="719.2,320.9,711.2,324.1,719.2,327.3,716,324.1" style="stroke: #A80036; stroke-width: 0.800000011920929;"/><line style="stroke: #A80036; stroke-width: 0.800000011920929; stroke-dasharray: 2.0,2.0;" x1="714.4" x2="978" y1="324.1" y2="324.1"/><text fill="#000000" font-family="sans-serif" font-size="10.4" lengthAdjust="spacingAndGlyphs" textLength="25.6" x="724" y="320.4961">coder</text><line style="stroke: #A80036; stroke-width: 0.800000011920929;" x1="714.4" x2="748" y1="348.6625" y2="348.6625"/><line style="stroke: #A80036; stroke-width: 0.800000011920929;" x1="748" x2="748" y1="348.6625" y2="359.0625"/><line style="stroke: #A80036; stroke-width: 0.800000011920929;" x1="715.2" x2="748" y1="359.0625" y2="359.0625"/><polygon fill="#A80036" points="723.2,355.8625,715.2,359.0625,723.2,362.2625,720,359.0625" style="stroke: #A80036; stroke-width: 0.800000011920929;"/><text fill="#000000" font-family="sans-serif" font-size="10.4" lengthAdjust="spacingAndGlyphs" textLength="143.2" x="720" y="344.7773">addCoderToEvent(coder, event)</text><polygon fill="#A80036" points="858.4,403.8625,866.4,407.0625,858.4,410.2625,861.6,407.0625" style="stroke: #A80036; stroke-width: 0.800000011920929;"/><line style="stroke: #A80036; stroke-width: 0.800000011920929;" x1="710.4" x2="863.2" y1="407.0625" y2="407.0625"/><text fill="#000000" font-family="sans-serif" font-size="10.4" lengthAdjust="spacingAndGlyphs" textLength="142.4" x="716" y="403.4586">updateEventParticipants(event)</text><polygon fill="#A80036" points="719.2,415.3438,711.2,418.5438,719.2,421.7438,716,418.5438" style="stroke: #A80036; stroke-width: 0.800000011920929;"/><line style="stroke: #A80036; stroke-width: 0.800000011920929; stroke-dasharray: 2.0,2.0;" x1="714.4" x2="871.2" y1="418.5438" y2="418.5438"/><polygon fill="#A80036" points="576,426.5438,568,429.7438,576,432.9438,572.8,429.7438" style="stroke: #A80036; stroke-width: 0.800000011920929;"/><line style="stroke: #A80036; stroke-width: 0.800000011920929; stroke-dasharray: 2.0,2.0;" x1="571.2" x2="705.6" y1="429.7438" y2="429.7438"/><polygon fill="#A80036" points="464.8,450.5438,456.8,453.7438,464.8,456.9438,461.6,453.7438" style="stroke: #A80036; stroke-width: 0.800000011920929;"/><line style="stroke: #A80036; stroke-width: 0.800000011920929; stroke-dasharray: 2.0,2.0;" x1="460" x2="562.4" y1="453.7438" y2="453.7438"/><text fill="#000000" font-family="sans-serif" font-size="10.4" lengthAdjust="spacingAndGlyphs" textLength="73.6" x="469.6" y="450.1399">status 200 (OK)</text><polygon fill="#A80036" points="361.6,462.025,353.6,465.225,361.6,468.425,358.4,465.225" style="stroke: #A80036; stroke-width: 0.800000011920929;"/><line style="stroke: #A80036; stroke-width: 0.800000011920929; stroke-dasharray: 2.0,2.0;" x1="356.8" x2="451.2" y1="465.225" y2="465.225"/><polygon fill="#A80036" points="258.4,473.225,250.4,476.425,258.4,479.625,255.2,476.425" style="stroke: #A80036; stroke-width: 0.800000011920929;"/><line style="stroke: #A80036; stroke-width: 0.800000011920929; stroke-dasharray: 2.0,2.0;" x1="253.6" x2="348" y1="476.425" y2="476.425"/><polygon fill="#A80036" points="133.6,484.425,125.6,487.625,133.6,490.825,130.4,487.625" style="stroke: #A80036; stroke-width: 0.800000011920929;"/><line style="stroke: #A80036; stroke-width: 0.800000011920929; stroke-dasharray: 2.0,2.0;" x1="128.8" x2="244.8" y1="487.625" y2="487.625"/><!--
@startuml
skinparam shadowing false
autoactivate on
actor coder
participant ":SmartEventDetails" as SmartEventDetails
participant ":eventDetailsPresenter" as eventDetailsPresenter
participant ":model" as model
participant ":RestClient" as RestClient
participant ":EventController" as EventController
participant ":EventManagementService" as EventManagementService
participant ":EventRepository" as EventRepository
participant ":CoderRepository" as CoderRepository

coder ->  SmartEventDetails : click "Join event"\nbutton
SmartEventDetails -> eventDetailsPresenter : onJoinEvent(eventId)
eventDetailsPresenter -> model : joinEvent(eventId)
model -> RestClient : joinEvent(eventId)
RestClient -> EventController : /event/{eventId}/join
EventController -> EventManagementService : joinEvent(coderId, eventId)
EventManagementService -> EventRepository : findById(eventId)
EventRepository - -> EventManagementService : event
EventManagementService -> CoderRepository : findById(coderId)
CoderRepository - -> EventManagementService : coder
EventManagementService -> EventManagementService : addCoderToEvent(coder, event)
'EventManagementService - -> EventManagementService
deactivate EventManagementService
EventManagementService -> EventRepository : updateEventParticipants(event)
EventRepository - -> EventManagementService
EventManagementService - -> EventController
EventController - -> RestClient : status 200 (OK)
RestClient - -> model
model - -> eventDetailsPresenter
eventDetailsPresenter - -> SmartEventDetails


@enduml

PlantUML version 1.2017.15(Mon Jul 03 19:45:34 EEST 2017)
(GPL source distribution)
Java Runtime: OpenJDK Runtime Environment
JVM: OpenJDK 64-Bit Server VM
Java Version: 1.8.0_152-release-1343-b28
Operating System: Windows 8.1
OS Version: 6.3
Default Encoding: Cp1252
Language: en
Country: US
--></g></svg>